<?xml version="1.0" encoding="UTF-8" standalone="no"?>
<!-- Created with Inkscape (http://www.inkscape.org/) -->

<svg
   width="143.92636mm"
   height="111.125mm"
   viewBox="0 0 143.92636 111.125"
   version="1.1"
   id="svg1483"
   inkscape:version="1.2.1 (9c6d41e410, 2022-07-14)"
   sodipodi:docname="cloud-host.svg"
   xmlns:inkscape="http://www.inkscape.org/namespaces/inkscape"
   xmlns:sodipodi="http://sodipodi.sourceforge.net/DTD/sodipodi-0.dtd"
   xmlns="http://www.w3.org/2000/svg"
   xmlns:svg="http://www.w3.org/2000/svg">
  <sodipodi:namedview
     id="namedview1485"
     pagecolor="#ffffff"
     bordercolor="#666666"
     borderopacity="1.0"
     inkscape:showpageshadow="2"
     inkscape:pageopacity="0.0"
     inkscape:pagecheckerboard="0"
     inkscape:deskcolor="#d1d1d1"
     inkscape:document-units="mm"
     showgrid="false"
     inkscape:zoom="0.71446409"
     inkscape:cx="281.32975"
     inkscape:cy="333.11681"
     inkscape:window-width="1920"
     inkscape:window-height="1030"
     inkscape:window-x="0"
     inkscape:window-y="0"
     inkscape:window-maximized="1"
     inkscape:current-layer="layer1" />
  <defs
     id="defs1480">
    <clipPath
       id="clip0_0_1">
      <rect
         width="544"
         height="420"
         fill="#ffffff"
         transform="translate(0,39)"
         id="rect786"
         x="0"
         y="0" />
    </clipPath>
  </defs>
  <g
     inkscape:label="Layer 1"
     inkscape:groupmode="layer"
     id="layer1"
     transform="translate(-30.853047,-60.24214)">
    <g
       clip-path="url(#clip0_0_1)"
       id="g372"
       transform="matrix(0.26458333,0,0,0.26458333,30.846071,49.92339)">
      <path
         d="m 87.3676,148.43 c 0.6784,-6.524 2.9951,-12.77 6.7344,-18.157 3.7393,-5.387 8.78,-9.74 14.652,-12.654 5.872,-2.914 12.386,-4.294 18.935,-4.012 6.548,0.282 12.919,2.218 18.519,5.627 5.076,-3.57 10.981,-5.78 17.152,-6.42 6.171,-0.641 12.403,0.31 18.103,2.761 5.7,2.452 10.678,6.322 14.46,11.243 3.783,4.921 6.244,10.729 7.15,16.87 9.236,2.147 17.36,7.619 22.825,15.373 5.465,7.754 7.889,17.249 6.81,26.676 -1.079,9.427 -5.585,18.128 -12.66,24.445 -7.076,6.317 -16.226,9.809 -25.708,9.811 h -92.932 c -8.6122,0.006 -16.9584,-2.983 -23.6097,-8.458 -6.6513,-5.474 -11.1939,-13.091 -12.8499,-21.548 -1.656,-8.457 -0.3224,-17.227 3.7725,-24.808 4.095,-7.582 10.6964,-13.502 18.6738,-16.749 z"
         fill="#66c5ff"
         id="path4" />
      <path
         opacity="0.6"
         d="m 182.033,177.952 c 0.92,-4.428 0.92,-8.998 0,-13.426 l -5.253,-0.745 c -0.589,-2.159 -1.449,-4.235 -2.559,-6.178 l 3.181,-4.254 c -2.468,-3.784 -5.696,-7.014 -9.477,-9.484 l -4.238,3.156 c -1.949,-1.108 -4.027,-1.973 -6.187,-2.574 l -0.731,-5.243 c -4.434,-0.921 -9.01,-0.921 -13.444,0 l -0.745,5.243 c -2.16,0.601 -4.238,1.466 -6.187,2.574 l -4.252,-3.183 c -3.774,2.479 -6.999,5.707 -9.477,9.483 l 3.182,4.268 c -1.111,1.943 -1.97,4.019 -2.559,6.178 l -5.253,0.745 c -0.921,4.428 -0.921,8.999 0,13.427 l 5.253,0.759 c 0.592,2.155 1.457,4.227 2.572,6.164 l -3.195,4.281 c 2.478,3.777 5.703,7.005 9.477,9.484 l 4.252,-3.197 c 1.949,1.104 4.027,1.964 6.187,2.56 l 0.745,5.271 c 4.429,0.921 9.001,0.921 13.43,0 l 0.745,-5.271 c 2.16,-0.596 4.238,-1.456 6.187,-2.56 l 4.252,3.197 c 3.774,-2.479 6.999,-5.707 9.477,-9.484 l -3.195,-4.267 c 1.113,-1.944 1.977,-4.019 2.572,-6.178 z m -32.02,9.132 c -3.123,0.003 -6.176,-0.922 -8.774,-2.656 -2.598,-1.734 -4.624,-4.2 -5.821,-7.087 -1.197,-2.886 -1.511,-6.063 -0.903,-9.128 0.607,-3.065 2.11,-5.881 4.317,-8.092 2.207,-2.211 5.02,-3.717 8.083,-4.327 3.062,-0.611 6.237,-0.299 9.123,0.896 2.885,1.196 5.351,3.22 7.086,5.819 1.736,2.598 2.662,5.653 2.662,8.778 0.002,2.073 -0.405,4.127 -1.197,6.044 -0.792,1.916 -1.953,3.658 -3.418,5.125 -1.465,1.467 -3.204,2.631 -5.119,3.425 -1.914,0.794 -3.967,1.203 -6.039,1.203 z"
         fill="#ffffff"
         id="path6" />
      <path
         d="m 299.173,111.823 c 0.682,-6.523 3.001,-12.7665 6.741,-18.1516 3.74,-5.3851 8.779,-9.7366 14.651,-12.6499 5.871,-2.9133 12.383,-4.2938 18.93,-4.0133 6.548,0.2805 12.918,2.2129 18.519,5.6177 5.078,-3.5658 10.983,-5.7724 17.154,-6.41 6.17,-0.6376 12.401,0.315 18.1,2.7673 5.699,2.4522 10.676,6.3225 14.459,11.2429 3.782,4.9203 6.244,10.7269 7.151,16.8679 9.237,2.148 17.362,7.62 22.827,15.376 5.465,7.756 7.888,17.252 6.808,26.68 -1.081,9.428 -5.59,18.129 -12.668,24.445 -7.078,6.316 -16.23,9.805 -25.713,9.804 h -92.933 c -8.61,0.001 -16.953,-2.992 -23.602,-8.466 -6.648,-5.475 -11.19,-13.091 -12.847,-21.546 -1.657,-8.455 -0.326,-17.223 3.764,-24.805 4.09,-7.582 10.686,-13.506 18.659,-16.759 z"
         fill="#66c5ff"
         id="path8" />
      <g
         opacity="0.6"
         id="g24">
        <path
           d="m 343.838,144.745 c 0,-5.216 2.789,-8.129 6.526,-8.129 3.737,0 6.526,2.967 6.526,8.129 0,5.162 -2.789,8.129 -6.526,8.129 -3.737,0 -6.526,-2.913 -6.526,-8.129 z m 10.764,0 c 0,-4.064 -1.747,-6.151 -4.238,-6.151 -2.491,0 -4.251,2.06 -4.251,6.151 0,4.092 1.746,6.151 4.251,6.151 2.505,0 4.224,-2.059 4.224,-6.151 z"
           fill="#ffffff"
           id="path10" />
        <path
           d="m 359.083,144.745 c 0,-5.216 2.789,-8.129 6.54,-8.129 3.75,0 6.512,2.967 6.512,8.129 0,5.162 -2.789,8.129 -6.512,8.129 -3.724,0 -6.54,-2.913 -6.54,-8.129 z m 10.764,0 c 0,-4.064 -1.733,-6.151 -4.224,-6.151 -2.491,0 -4.252,2.06 -4.252,6.151 0,4.092 1.733,6.151 4.252,6.151 2.518,0 4.224,-2.059 4.224,-6.151 z"
           fill="#ffffff"
           id="path12" />
        <path
           d="m 379.23,136.738 v 16.014 h -2.262 V 138.73 h -3.614 v -1.992 z"
           fill="#ffffff"
           id="path14" />
        <path
           d="m 382.736,144.745 c 0,-5.216 2.789,-8.129 6.539,-8.129 3.751,0 6.513,2.967 6.513,8.129 0,5.162 -2.789,8.129 -6.513,8.129 -3.723,0 -6.539,-2.913 -6.539,-8.129 z m 10.764,0 c 0,-4.064 -1.733,-6.151 -4.225,-6.151 -2.491,0 -4.251,2.06 -4.251,6.151 0,4.092 1.733,6.151 4.251,6.151 2.519,0 4.225,-2.059 4.225,-6.151 z"
           fill="#ffffff"
           id="path16" />
        <path
           d="m 402.882,136.738 v 16.014 h -2.261 V 138.73 h -3.601 v -1.992 z"
           fill="#ffffff"
           id="path18" />
        <path
           d="m 406.375,144.745 c 0,-5.216 2.789,-8.129 6.54,-8.129 3.75,0 6.512,2.967 6.512,8.129 0,5.162 -2.789,8.129 -6.512,8.129 -3.724,0 -6.54,-2.913 -6.54,-8.129 z m 10.764,0 c 0,-4.064 -1.733,-6.151 -4.224,-6.151 -2.491,0 -4.252,2.06 -4.252,6.151 0,4.092 1.733,6.151 4.252,6.151 2.518,0 4.224,-2.059 4.224,-6.151 z"
           fill="#ffffff"
           id="path20" />
        <path
           d="m 426.521,136.738 v 16.014 H 424.26 V 138.73 h -3.614 v -1.992 z"
           fill="#ffffff"
           id="path22" />
      </g>
      <path
         d="m 178.161,319.858 c -0.001,-8.79 -2.802,-17.351 -7.994,-24.44 -5.193,-7.09 -12.509,-12.339 -20.885,-14.986 -0.834,-6.579 -3.333,-12.837 -7.26,-18.179 -3.928,-5.343 -9.153,-9.594 -15.182,-12.349 -6.028,-2.756 -12.66,-3.926 -19.267,-3.399 -6.607,0.527 -12.9698,2.734 -18.4859,6.411 -5.5172,-3.677 -11.8808,-5.883 -18.4883,-6.41 -6.6074,-0.526 -13.2398,0.643 -19.2692,3.399 -6.0293,2.756 -11.2558,7.006 -15.1846,12.348 -3.9289,5.342 -6.4298,11.599 -7.2662,18.179 -9.4022,2.976 -17.4305,9.219 -22.63379,17.601 -5.20331,8.383 -7.238282,18.351 -5.7371,28.104 1.50118,9.753 6.43947,18.647 13.92229,25.074 7.4828,6.427 17.0164,9.963 26.8775,9.97 H 137.76 c 10.795,-0.238 21.068,-4.695 28.62,-12.419 7.551,-7.723 11.78,-18.099 11.781,-28.904 z"
         fill="#24a7ff"
         id="path26" />
      <path
         d="m 88.7351,252.753 c -5.5248,-3.6 -11.873,-5.737 -18.449,-6.211 -6.5761,-0.473 -13.1645,0.733 -19.1474,3.505 -5.9828,2.772 -11.164,7.019 -15.0575,12.344 -3.8935,5.324 -6.3718,11.55 -7.2024,18.096 -9.4022,2.975 -17.4305,9.218 -22.63379,17.601 -5.20331,8.382 -7.238282,18.351 -5.7371,28.103 1.50118,9.753 6.43947,18.647 13.92229,25.074 7.4828,6.427 17.0164,9.964 26.8775,9.97 h 28.9601 z"
         fill="#3bb0ff"
         id="path28" />
      <path
         d="M 189.655,341.048 H 84.2808 v 7.844 H 189.655 Z"
         fill="#3d4959"
         id="path30" />
      <path
         d="M 189.655,303.017 H 84.2808 v 7.845 H 189.655 Z"
         fill="#3d4959"
         id="path32" />
      <path
         d="M 194.367,346.955 H 79.1089 c -2.9985,0 -5.4292,2.432 -5.4292,5.433 v 24.4 c 0,3.001 2.4307,5.433 5.4292,5.433 H 194.367 c 2.998,0 5.429,-2.432 5.429,-5.433 v -24.4 c 0,-3.001 -2.431,-5.433 -5.429,-5.433 z"
         fill="#d6e0ea"
         id="path34" />
      <path
         d="m 126.022,346.955 -5.741,35.226 H 79.1089 c -1.4363,0 -2.8138,-0.571 -3.8295,-1.588 -1.0156,-1.016 -1.5862,-2.394 -1.5862,-3.832 v -24.387 c 0,-1.437 0.5706,-2.816 1.5862,-3.832 1.0157,-1.016 2.3932,-1.587 3.8295,-1.587 z"
         fill="#ededed"
         id="path36" />
      <path
         d="m 192.038,374.458 v -19.74 H 81.4376 v 19.74 z"
         fill="#3d4959"
         id="path38" />
      <path
         d="m 183.319,364.568 c 0.003,0.673 -0.194,1.332 -0.566,1.893 -0.372,0.561 -0.902,0.999 -1.522,1.258 -0.621,0.26 -1.305,0.329 -1.965,0.199 -0.66,-0.129 -1.267,-0.452 -1.743,-0.927 -0.477,-0.475 -0.802,-1.081 -0.934,-1.741 -0.132,-0.66 -0.066,-1.345 0.191,-1.967 0.257,-0.622 0.692,-1.154 1.251,-1.528 0.559,-0.375 1.217,-0.574 1.89,-0.574 0.899,0 1.761,0.356 2.398,0.991 0.637,0.635 0.996,1.496 1,2.396 z"
         fill="#24a7ff"
         id="path40" />
      <path
         d="m 168.643,364.568 c 0,0.576 -0.171,1.139 -0.491,1.618 -0.32,0.479 -0.774,0.852 -1.306,1.073 -0.532,0.22 -1.117,0.278 -1.682,0.166 -0.565,-0.113 -1.083,-0.39 -1.49,-0.798 -0.408,-0.407 -0.685,-0.926 -0.797,-1.491 -0.112,-0.565 -0.055,-1.151 0.166,-1.683 0.22,-0.532 0.593,-0.987 1.072,-1.307 0.478,-0.32 1.041,-0.491 1.617,-0.491 0.772,0 1.512,0.307 2.058,0.853 0.546,0.546 0.853,1.287 0.853,2.06 z"
         fill="#24a7ff"
         id="path42" />
      <path
         d="m 154.454,364.568 c 0,0.576 -0.171,1.139 -0.491,1.618 -0.32,0.479 -0.774,0.852 -1.306,1.073 -0.532,0.22 -1.117,0.278 -1.682,0.166 -0.565,-0.113 -1.083,-0.39 -1.49,-0.798 -0.408,-0.407 -0.685,-0.926 -0.797,-1.491 -0.112,-0.565 -0.055,-1.151 0.166,-1.683 0.22,-0.532 0.593,-0.987 1.072,-1.307 0.478,-0.32 1.041,-0.491 1.617,-0.491 0.772,0 1.512,0.307 2.058,0.853 0.546,0.546 0.853,1.287 0.853,2.06 z"
         fill="#ffffff"
         id="path44" />
      <path
         d="m 140.265,364.568 c 0,0.576 -0.171,1.139 -0.491,1.618 -0.32,0.479 -0.774,0.852 -1.306,1.073 -0.532,0.22 -1.117,0.278 -1.682,0.166 -0.565,-0.113 -1.083,-0.39 -1.49,-0.798 -0.408,-0.407 -0.685,-0.926 -0.797,-1.491 -0.112,-0.565 -0.055,-1.151 0.166,-1.683 0.22,-0.532 0.593,-0.987 1.072,-1.307 0.478,-0.32 1.041,-0.491 1.617,-0.491 0.772,0 1.512,0.307 2.058,0.853 0.546,0.546 0.853,1.287 0.853,2.06 z"
         fill="#24a7ff"
         id="path46" />
      <path
         d="m 126.076,364.568 c 0,0.576 -0.171,1.139 -0.491,1.618 -0.32,0.479 -0.774,0.852 -1.306,1.073 -0.532,0.22 -1.117,0.278 -1.682,0.166 -0.565,-0.113 -1.083,-0.39 -1.49,-0.798 -0.408,-0.407 -0.685,-0.926 -0.797,-1.491 -0.112,-0.565 -0.055,-1.151 0.166,-1.683 0.22,-0.532 0.593,-0.987 1.072,-1.307 0.478,-0.32 1.041,-0.491 1.617,-0.491 0.772,0 1.512,0.307 2.058,0.853 0.546,0.546 0.853,1.287 0.853,2.06 z"
         fill="#ffffff"
         id="path48" />
      <path
         d="M 194.367,308.328 H 79.1089 c -2.9985,0 -5.4292,2.433 -5.4292,5.433 v 24.401 c 0,3 2.4307,5.433 5.4292,5.433 H 194.367 c 2.998,0 5.429,-2.433 5.429,-5.433 v -24.401 c 0,-3 -2.431,-5.433 -5.429,-5.433 z"
         fill="#d6e0ea"
         id="path50" />
      <path
         d="m 132.304,308.328 -5.727,35.226 H 79.1089 c -1.4363,0 -2.8138,-0.571 -3.8295,-1.587 -1.0156,-1.016 -1.5862,-2.395 -1.5862,-3.832 v -24.387 c 0,-1.438 0.5706,-2.816 1.5862,-3.832 1.0157,-1.017 2.3932,-1.588 3.8295,-1.588 z"
         fill="#ededed"
         id="path52" />
      <path
         d="m 192.038,335.832 v -19.74 H 81.4375 v 19.74 z"
         fill="#3d4959"
         id="path54" />
      <path
         d="M 194.367,270.298 H 79.1089 c -2.9985,0 -5.4292,2.432 -5.4292,5.433 v 24.401 c 0,3 2.4307,5.433 5.4292,5.433 H 194.367 c 2.998,0 5.429,-2.433 5.429,-5.433 v -24.401 c 0,-3.001 -2.431,-5.433 -5.429,-5.433 z"
         fill="#d6e0ea"
         id="path56" />
      <path
         d="m 138.505,270.298 -5.741,35.226 H 79.1089 c -1.4363,0 -2.8138,-0.571 -3.8295,-1.587 -1.0156,-1.017 -1.5862,-2.395 -1.5862,-3.832 v -24.388 c 0,-1.437 0.5706,-2.815 1.5862,-3.832 1.0157,-1.016 2.3932,-1.587 3.8295,-1.587 z"
         fill="#ededed"
         id="path58" />
      <path
         d="m 192.052,297.815 v -19.74 H 81.451 v 19.74 z"
         fill="#3d4959"
         id="path60" />
      <path
         d="m 179.921,329.355 c 1.877,0 3.398,-1.522 3.398,-3.4 0,-1.878 -1.521,-3.401 -3.398,-3.401 -1.877,0 -3.399,1.523 -3.399,3.401 0,1.878 1.522,3.4 3.399,3.4 z"
         fill="#24a7ff"
         id="path62" />
      <path
         d="m 168.643,325.955 c 0,0.576 -0.171,1.139 -0.491,1.618 -0.32,0.479 -0.774,0.853 -1.306,1.073 -0.532,0.221 -1.117,0.278 -1.682,0.166 -0.565,-0.113 -1.083,-0.39 -1.49,-0.797 -0.408,-0.408 -0.685,-0.927 -0.797,-1.492 -0.112,-0.565 -0.055,-1.151 0.166,-1.683 0.22,-0.532 0.593,-0.987 1.072,-1.307 0.478,-0.32 1.041,-0.491 1.617,-0.491 0.772,0 1.512,0.307 2.058,0.853 0.546,0.546 0.853,1.287 0.853,2.06 z"
         fill="#24a7ff"
         id="path64" />
      <path
         d="m 154.454,325.955 c 0,0.576 -0.171,1.139 -0.491,1.618 -0.32,0.479 -0.774,0.853 -1.306,1.073 -0.532,0.221 -1.117,0.278 -1.682,0.166 -0.565,-0.113 -1.083,-0.39 -1.49,-0.797 -0.408,-0.408 -0.685,-0.927 -0.797,-1.492 -0.112,-0.565 -0.055,-1.151 0.166,-1.683 0.22,-0.532 0.593,-0.987 1.072,-1.307 0.478,-0.32 1.041,-0.491 1.617,-0.491 0.772,0 1.512,0.307 2.058,0.853 0.546,0.546 0.853,1.287 0.853,2.06 z"
         fill="#ffffff"
         id="path66" />
      <path
         d="m 140.265,325.955 c 0,0.576 -0.171,1.139 -0.491,1.618 -0.32,0.479 -0.774,0.853 -1.306,1.073 -0.532,0.221 -1.117,0.278 -1.682,0.166 -0.565,-0.113 -1.083,-0.39 -1.49,-0.797 -0.408,-0.408 -0.685,-0.927 -0.797,-1.492 -0.112,-0.565 -0.055,-1.151 0.166,-1.683 0.22,-0.532 0.593,-0.987 1.072,-1.307 0.478,-0.32 1.041,-0.491 1.617,-0.491 0.772,0 1.512,0.307 2.058,0.853 0.546,0.546 0.853,1.287 0.853,2.06 z"
         fill="#24a7ff"
         id="path68" />
      <path
         d="m 126.076,325.955 c 0,0.576 -0.171,1.139 -0.491,1.618 -0.32,0.479 -0.774,0.853 -1.306,1.073 -0.532,0.221 -1.117,0.278 -1.682,0.166 -0.565,-0.113 -1.083,-0.39 -1.49,-0.797 -0.408,-0.408 -0.685,-0.927 -0.797,-1.492 -0.112,-0.565 -0.055,-1.151 0.166,-1.683 0.22,-0.532 0.593,-0.987 1.072,-1.307 0.478,-0.32 1.041,-0.491 1.617,-0.491 0.772,0 1.512,0.307 2.058,0.853 0.546,0.546 0.853,1.287 0.853,2.06 z"
         fill="#ffffff"
         id="path70" />
      <path
         d="m 183.319,287.938 c 0,0.673 -0.199,1.33 -0.573,1.889 -0.373,0.56 -0.904,0.995 -1.525,1.253 -0.621,0.257 -1.304,0.325 -1.963,0.193 -0.659,-0.131 -1.265,-0.455 -1.74,-0.93 -0.475,-0.476 -0.799,-1.082 -0.93,-1.742 -0.131,-0.659 -0.064,-1.343 0.193,-1.964 0.257,-0.622 0.693,-1.153 1.252,-1.527 0.559,-0.373 1.216,-0.573 1.888,-0.573 0.901,0 1.765,0.359 2.403,0.996 0.637,0.638 0.995,1.503 0.995,2.405 z"
         fill="#24a7ff"
         id="path72" />
      <path
         d="m 168.643,287.938 c 0,0.576 -0.171,1.139 -0.491,1.618 -0.32,0.479 -0.774,0.853 -1.306,1.073 -0.532,0.221 -1.117,0.278 -1.682,0.166 -0.565,-0.112 -1.083,-0.39 -1.49,-0.797 -0.408,-0.408 -0.685,-0.927 -0.797,-1.492 -0.112,-0.565 -0.055,-1.15 0.166,-1.683 0.22,-0.532 0.593,-0.987 1.072,-1.307 0.478,-0.32 1.041,-0.491 1.617,-0.491 0.772,0 1.512,0.307 2.058,0.853 0.546,0.547 0.853,1.287 0.853,2.06 z"
         fill="#ffffff"
         id="path74" />
      <path
         d="m 154.454,287.938 c 0,0.576 -0.171,1.139 -0.491,1.618 -0.32,0.479 -0.774,0.853 -1.306,1.073 -0.532,0.221 -1.117,0.278 -1.682,0.166 -0.565,-0.112 -1.083,-0.39 -1.49,-0.797 -0.408,-0.408 -0.685,-0.927 -0.797,-1.492 -0.112,-0.565 -0.055,-1.15 0.166,-1.683 0.22,-0.532 0.593,-0.987 1.072,-1.307 0.478,-0.32 1.041,-0.491 1.617,-0.491 0.772,0 1.512,0.307 2.058,0.853 0.546,0.547 0.853,1.287 0.853,2.06 z"
         fill="#ffffff"
         id="path76" />
      <path
         d="m 140.265,287.938 c 0,0.576 -0.171,1.139 -0.491,1.618 -0.32,0.479 -0.774,0.853 -1.306,1.073 -0.532,0.221 -1.117,0.278 -1.682,0.166 -0.565,-0.112 -1.083,-0.39 -1.49,-0.797 -0.408,-0.408 -0.685,-0.927 -0.797,-1.492 -0.112,-0.565 -0.055,-1.15 0.166,-1.683 0.22,-0.532 0.593,-0.987 1.072,-1.307 0.478,-0.32 1.041,-0.491 1.617,-0.491 0.772,0 1.512,0.307 2.058,0.853 0.546,0.547 0.853,1.287 0.853,2.06 z"
         fill="#24a7ff"
         id="path78" />
      <path
         d="m 126.076,287.938 c 0,0.576 -0.171,1.139 -0.491,1.618 -0.32,0.479 -0.774,0.853 -1.306,1.073 -0.532,0.221 -1.117,0.278 -1.682,0.166 -0.565,-0.112 -1.083,-0.39 -1.49,-0.797 -0.408,-0.408 -0.685,-0.927 -0.797,-1.492 -0.112,-0.565 -0.055,-1.15 0.166,-1.683 0.22,-0.532 0.593,-0.987 1.072,-1.307 0.478,-0.32 1.041,-0.491 1.617,-0.491 0.772,0 1.512,0.307 2.058,0.853 0.546,0.547 0.853,1.287 0.853,2.06 z"
         fill="#24a7ff"
         id="path80" />
      <path
         d="m 346.275,328.597 c 0.006,-6.946 -2.202,-13.712 -6.302,-19.316 -4.1,-5.604 -9.879,-9.753 -16.497,-11.846 -0.665,-5.192 -2.644,-10.128 -5.748,-14.341 -3.104,-4.213 -7.232,-7.564 -11.992,-9.735 -4.76,-2.17 -9.995,-3.089 -15.209,-2.67 -5.214,0.42 -10.235,2.165 -14.587,5.069 -4.351,-2.905 -9.371,-4.65 -14.585,-5.07 -5.213,-0.42 -10.448,0.499 -15.207,2.67 -4.759,2.171 -8.886,5.522 -11.988,9.735 -3.103,4.214 -5.08,9.151 -5.742,14.342 -7.435,2.34 -13.786,7.267 -17.904,13.889 -4.119,6.621 -5.731,14.499 -4.546,22.207 1.184,7.709 5.088,14.738 11.005,19.815 5.916,5.076 13.453,7.865 21.247,7.862 h 76.171 c 8.52,-0.185 16.63,-3.702 22.59,-9.797 5.96,-6.096 9.296,-14.286 9.294,-22.814 z"
         fill="#24a7ff"
         id="path82" />
      <path
         d="m 275.669,275.568 c -4.361,-2.844 -9.373,-4.533 -14.565,-4.907 -5.192,-0.375 -10.394,0.577 -15.117,2.765 -4.724,2.189 -8.814,5.543 -11.887,9.748 -3.074,4.204 -5.029,9.121 -5.682,14.289 -7.435,2.34 -13.786,7.267 -17.904,13.888 -4.119,6.621 -5.731,14.499 -4.546,22.208 1.184,7.708 5.088,14.737 11.005,19.814 5.916,5.077 13.453,7.866 21.247,7.862 h 22.949 z"
         fill="#3bb0ff"
         id="path84" />
      <path
         d="M 328.864,397.314 H 223.49 v 7.845 h 105.374 z"
         fill="#3d4959"
         id="path86" />
      <path
         d="M 328.864,359.297 H 223.49 v 7.845 h 105.374 z"
         fill="#3d4959"
         id="path88" />
      <path
         d="M 333.576,403.221 H 218.318 c -2.999,0 -5.43,2.433 -5.43,5.433 v 24.401 c 0,3 2.431,5.433 5.43,5.433 h 115.258 c 2.998,0 5.429,-2.433 5.429,-5.433 v -24.401 c 0,-3 -2.431,-5.433 -5.429,-5.433 z"
         fill="#d6e0ea"
         id="path90" />
      <path
         d="m 265.231,403.221 -5.741,35.226 h -41.159 c -1.436,0 -2.814,-0.571 -3.829,-1.587 -1.016,-1.016 -1.586,-2.395 -1.586,-3.832 v -24.387 c 0,-1.438 0.57,-2.816 1.586,-3.832 1.015,-1.017 2.393,-1.588 3.829,-1.588 z"
         fill="#ededed"
         id="path92" />
      <path
         d="m 331.234,430.738 v -19.74 H 220.633 v 19.74 z"
         fill="#3d4959"
         id="path94" />
      <path
         d="m 322.514,420.861 c -0.01,0.67 -0.219,1.323 -0.599,1.875 -0.379,0.552 -0.914,0.979 -1.536,1.228 -0.622,0.249 -1.303,0.309 -1.959,0.172 -0.655,-0.138 -1.256,-0.466 -1.726,-0.943 -0.469,-0.478 -0.788,-1.084 -0.915,-1.742 -0.126,-0.658 -0.056,-1.339 0.203,-1.957 0.259,-0.619 0.694,-1.147 1.252,-1.518 0.557,-0.371 1.212,-0.569 1.882,-0.57 0.451,0 0.897,0.09 1.313,0.264 0.416,0.175 0.793,0.43 1.109,0.752 0.317,0.321 0.566,0.702 0.733,1.121 0.168,0.419 0.25,0.867 0.243,1.318 z"
         fill="#24a7ff"
         id="path96" />
      <path
         d="m 307.838,420.861 c 0,0.576 -0.171,1.14 -0.491,1.619 -0.319,0.479 -0.774,0.852 -1.306,1.072 -0.532,0.221 -1.117,0.279 -1.682,0.166 -0.565,-0.112 -1.083,-0.39 -1.49,-0.797 -0.407,-0.407 -0.685,-0.926 -0.797,-1.491 -0.112,-0.565 -0.055,-1.151 0.166,-1.683 0.22,-0.533 0.593,-0.988 1.072,-1.308 0.479,-0.32 1.041,-0.491 1.617,-0.491 0.772,0 1.512,0.307 2.058,0.854 0.546,0.546 0.853,1.287 0.853,2.059 z"
         fill="#24a7ff"
         id="path98" />
      <path
         d="m 293.663,420.861 c 0,0.576 -0.171,1.14 -0.491,1.619 -0.32,0.479 -0.775,0.852 -1.306,1.072 -0.532,0.221 -1.118,0.279 -1.682,0.166 -0.565,-0.112 -1.084,-0.39 -1.491,-0.797 -0.407,-0.407 -0.684,-0.926 -0.796,-1.491 -0.113,-0.565 -0.055,-1.151 0.165,-1.683 0.221,-0.533 0.594,-0.988 1.072,-1.308 0.479,-0.32 1.042,-0.491 1.618,-0.491 0.772,0 1.512,0.307 2.058,0.854 0.546,0.546 0.853,1.287 0.853,2.059 z"
         fill="#ffffff"
         id="path100" />
      <path
         d="m 279.46,420.861 c 0,0.576 -0.171,1.14 -0.491,1.619 -0.319,0.479 -0.774,0.852 -1.306,1.072 -0.532,0.221 -1.117,0.279 -1.682,0.166 -0.564,-0.112 -1.083,-0.39 -1.49,-0.797 -0.407,-0.407 -0.685,-0.926 -0.797,-1.491 -0.112,-0.565 -0.055,-1.151 0.166,-1.683 0.22,-0.533 0.593,-0.988 1.072,-1.308 0.479,-0.32 1.041,-0.491 1.617,-0.491 0.772,0 1.513,0.307 2.058,0.854 0.546,0.546 0.853,1.287 0.853,2.059 z"
         fill="#24a7ff"
         id="path102" />
      <path
         d="m 265.23,420.861 c 0,0.576 -0.17,1.14 -0.49,1.619 -0.32,0.479 -0.775,0.852 -1.306,1.072 -0.532,0.221 -1.118,0.279 -1.682,0.166 -0.565,-0.112 -1.084,-0.39 -1.491,-0.797 -0.407,-0.407 -0.684,-0.926 -0.796,-1.491 -0.113,-0.565 -0.055,-1.151 0.165,-1.683 0.221,-0.533 0.594,-0.988 1.072,-1.308 0.479,-0.32 1.042,-0.491 1.618,-0.491 0.772,0 1.512,0.307 2.058,0.854 0.546,0.546 0.852,1.287 0.852,2.059 z"
         fill="#ffffff"
         id="path104" />
      <path
         d="M 333.576,364.595 H 218.318 c -2.999,0 -5.43,2.432 -5.43,5.433 v 24.4 c 0,3.001 2.431,5.433 5.43,5.433 h 115.258 c 2.998,0 5.429,-2.432 5.429,-5.433 v -24.4 c 0,-3.001 -2.431,-5.433 -5.429,-5.433 z"
         fill="#d6e0ea"
         id="path106" />
      <path
         d="m 271.499,364.568 -5.727,35.226 h -47.454 c -1.437,0 -2.814,-0.571 -3.83,-1.588 -1.015,-1.016 -1.586,-2.394 -1.586,-3.832 v -24.387 c 0,-1.437 0.571,-2.816 1.586,-3.832 1.016,-1.016 2.393,-1.587 3.83,-1.587 z"
         fill="#ededed"
         id="path108" />
      <path
         d="m 331.247,392.098 v -19.74 H 220.646 v 19.74 z"
         fill="#3d4959"
         id="path110" />
      <path
         d="M 333.576,326.578 H 218.318 c -2.999,0 -5.43,2.433 -5.43,5.433 v 24.401 c 0,3 2.431,5.433 5.43,5.433 h 115.258 c 2.998,0 5.429,-2.433 5.429,-5.433 v -24.401 c 0,-3 -2.431,-5.433 -5.429,-5.433 z"
         fill="#d6e0ea"
         id="path112" />
      <path
         d="m 277.7,326.632 -5.7,35.226 h -53.682 c -1.437,0 -2.814,-0.571 -3.83,-1.587 -1.015,-1.016 -1.586,-2.395 -1.586,-3.832 v -24.387 c 0,-1.438 0.571,-2.816 1.586,-3.832 1.016,-1.017 2.393,-1.588 3.83,-1.588 z"
         fill="#ededed"
         id="path114" />
      <path
         d="m 331.233,354.081 v -19.74 h -110.6 v 19.74 z"
         fill="#3d4959"
         id="path116" />
      <path
         d="m 322.514,382.181 c 0,0.672 -0.199,1.33 -0.572,1.889 -0.374,0.559 -0.904,0.995 -1.525,1.253 -0.621,0.257 -1.305,0.324 -1.964,0.193 -0.659,-0.131 -1.265,-0.455 -1.74,-0.931 -0.475,-0.475 -0.799,-1.081 -0.93,-1.741 -0.131,-0.66 -0.064,-1.343 0.193,-1.965 0.258,-0.621 0.693,-1.152 1.252,-1.526 0.559,-0.373 1.216,-0.573 1.888,-0.573 0.447,-0.002 0.89,0.085 1.303,0.255 0.413,0.171 0.788,0.421 1.104,0.737 0.316,0.316 0.566,0.692 0.736,1.105 0.171,0.414 0.257,0.857 0.255,1.304 z"
         fill="#24a7ff"
         id="path118" />
      <path
         d="m 307.838,382.181 c 0,0.576 -0.171,1.139 -0.491,1.618 -0.319,0.479 -0.774,0.852 -1.306,1.073 -0.532,0.22 -1.117,0.278 -1.682,0.166 -0.565,-0.113 -1.083,-0.39 -1.49,-0.798 -0.407,-0.407 -0.685,-0.926 -0.797,-1.491 -0.112,-0.565 -0.055,-1.151 0.166,-1.683 0.22,-0.532 0.593,-0.987 1.072,-1.307 0.479,-0.32 1.041,-0.491 1.617,-0.491 0.772,0 1.512,0.307 2.058,0.853 0.546,0.546 0.853,1.287 0.853,2.06 z"
         fill="#24a7ff"
         id="path120" />
      <path
         d="m 293.663,382.181 c 0,0.576 -0.171,1.139 -0.491,1.618 -0.32,0.479 -0.775,0.852 -1.306,1.073 -0.532,0.22 -1.118,0.278 -1.682,0.166 -0.565,-0.113 -1.084,-0.39 -1.491,-0.798 -0.407,-0.407 -0.684,-0.926 -0.796,-1.491 -0.113,-0.565 -0.055,-1.151 0.165,-1.683 0.221,-0.532 0.594,-0.987 1.072,-1.307 0.479,-0.32 1.042,-0.491 1.618,-0.491 0.772,0 1.512,0.307 2.058,0.853 0.546,0.546 0.853,1.287 0.853,2.06 z"
         fill="#ffffff"
         id="path122" />
      <path
         d="m 279.46,382.181 c 0,0.576 -0.171,1.139 -0.491,1.618 -0.319,0.479 -0.774,0.852 -1.306,1.073 -0.532,0.22 -1.117,0.278 -1.682,0.166 -0.564,-0.113 -1.083,-0.39 -1.49,-0.798 -0.407,-0.407 -0.685,-0.926 -0.797,-1.491 -0.112,-0.565 -0.055,-1.151 0.166,-1.683 0.22,-0.532 0.593,-0.987 1.072,-1.307 0.479,-0.32 1.041,-0.491 1.617,-0.491 0.772,0 1.513,0.307 2.058,0.853 0.546,0.546 0.853,1.287 0.853,2.06 z"
         fill="#24a7ff"
         id="path124" />
      <path
         d="m 265.23,382.181 c 0,0.576 -0.17,1.139 -0.49,1.618 -0.32,0.479 -0.775,0.852 -1.306,1.073 -0.532,0.22 -1.118,0.278 -1.682,0.166 -0.565,-0.113 -1.084,-0.39 -1.491,-0.798 -0.407,-0.407 -0.684,-0.926 -0.796,-1.491 -0.113,-0.565 -0.055,-1.151 0.165,-1.683 0.221,-0.532 0.594,-0.987 1.072,-1.307 0.479,-0.32 1.042,-0.491 1.618,-0.491 0.772,0 1.512,0.307 2.058,0.853 0.546,0.546 0.852,1.287 0.852,2.06 z"
         fill="#ffffff"
         id="path126" />
      <path
         d="m 322.514,344.245 c 0,0.673 -0.199,1.33 -0.572,1.889 -0.374,0.56 -0.904,0.996 -1.525,1.253 -0.621,0.257 -1.305,0.325 -1.964,0.193 -0.659,-0.131 -1.265,-0.455 -1.74,-0.93 -0.475,-0.476 -0.799,-1.082 -0.93,-1.741 -0.131,-0.66 -0.064,-1.344 0.193,-1.965 0.258,-0.622 0.693,-1.153 1.252,-1.526 0.559,-0.374 1.216,-0.574 1.888,-0.574 0.901,0 1.766,0.359 2.403,0.997 0.637,0.637 0.995,1.502 0.995,2.404 z"
         fill="#24a7ff"
         id="path128" />
      <path
         d="m 307.838,344.245 c 0,0.576 -0.171,1.139 -0.491,1.619 -0.319,0.479 -0.774,0.852 -1.306,1.072 -0.532,0.221 -1.117,0.278 -1.682,0.166 -0.565,-0.112 -1.083,-0.39 -1.49,-0.797 -0.407,-0.407 -0.685,-0.927 -0.797,-1.492 -0.112,-0.565 -0.055,-1.15 0.166,-1.683 0.22,-0.532 0.593,-0.987 1.072,-1.307 0.479,-0.32 1.041,-0.491 1.617,-0.491 0.772,0 1.512,0.307 2.058,0.853 0.546,0.547 0.853,1.288 0.853,2.06 z"
         fill="#ffffff"
         id="path130" />
      <path
         d="m 293.663,344.245 c 0,0.576 -0.171,1.139 -0.491,1.619 -0.32,0.479 -0.775,0.852 -1.306,1.072 -0.532,0.221 -1.118,0.278 -1.682,0.166 -0.565,-0.112 -1.084,-0.39 -1.491,-0.797 -0.407,-0.407 -0.684,-0.927 -0.796,-1.492 -0.113,-0.565 -0.055,-1.15 0.165,-1.683 0.221,-0.532 0.594,-0.987 1.072,-1.307 0.479,-0.32 1.042,-0.491 1.618,-0.491 0.772,0 1.512,0.307 2.058,0.853 0.546,0.547 0.853,1.288 0.853,2.06 z"
         fill="#ffffff"
         id="path132" />
      <path
         d="m 279.46,344.245 c 0,0.576 -0.171,1.139 -0.491,1.619 -0.319,0.479 -0.774,0.852 -1.306,1.072 -0.532,0.221 -1.117,0.278 -1.682,0.166 -0.564,-0.112 -1.083,-0.39 -1.49,-0.797 -0.407,-0.407 -0.685,-0.927 -0.797,-1.492 -0.112,-0.565 -0.055,-1.15 0.166,-1.683 0.22,-0.532 0.593,-0.987 1.072,-1.307 0.479,-0.32 1.041,-0.491 1.617,-0.491 0.772,0 1.513,0.307 2.058,0.853 0.546,0.547 0.853,1.288 0.853,2.06 z"
         fill="#24a7ff"
         id="path134" />
      <path
         d="m 265.23,344.245 c 0,0.576 -0.17,1.139 -0.49,1.619 -0.32,0.479 -0.775,0.852 -1.306,1.072 -0.532,0.221 -1.118,0.278 -1.682,0.166 -0.565,-0.112 -1.084,-0.39 -1.491,-0.797 -0.407,-0.407 -0.684,-0.927 -0.796,-1.492 -0.113,-0.565 -0.055,-1.15 0.165,-1.683 0.221,-0.532 0.594,-0.987 1.072,-1.307 0.479,-0.32 1.042,-0.491 1.618,-0.491 0.772,0 1.512,0.307 2.058,0.853 0.546,0.547 0.852,1.288 0.852,2.06 z"
         fill="#24a7ff"
         id="path136" />
      <path
         d="m 544,319.858 c -10e-4,-8.79 -2.801,-17.351 -7.994,-24.44 -5.193,-7.09 -12.509,-12.339 -20.885,-14.986 -0.836,-6.58 -3.337,-12.837 -7.266,-18.179 -3.929,-5.342 -9.155,-9.592 -15.185,-12.348 -6.029,-2.756 -12.661,-3.925 -19.269,-3.399 -6.607,0.527 -12.971,2.733 -18.488,6.41 -5.516,-3.677 -11.879,-5.884 -18.486,-6.411 -6.607,-0.527 -13.239,0.643 -19.267,3.399 -6.029,2.755 -11.254,7.006 -15.181,12.349 -3.928,5.342 -6.427,11.6 -7.261,18.179 -9.402,2.976 -17.43,9.219 -22.634,17.601 -5.203,8.383 -7.238,18.351 -5.737,28.104 1.501,9.753 6.44,18.647 13.923,25.074 7.482,6.427 17.016,9.963 26.877,9.97 h 96.452 c 10.796,-0.238 21.069,-4.695 28.62,-12.419 7.551,-7.723 11.78,-18.099 11.781,-28.904 z"
         fill="#24a7ff"
         id="path138" />
      <path
         d="m 454.574,252.753 c -5.524,-3.6 -11.873,-5.737 -18.449,-6.211 -6.576,-0.473 -13.164,0.733 -19.147,3.505 -5.983,2.772 -11.164,7.019 -15.057,12.344 -3.894,5.324 -6.372,11.55 -7.203,18.096 -9.402,2.975 -17.43,9.218 -22.634,17.601 -5.203,8.382 -7.238,18.351 -5.737,28.103 1.501,9.753 6.44,18.647 13.923,25.074 7.482,6.427 17.016,9.964 26.877,9.97 h 29.014 z"
         fill="#3bb0ff"
         id="path140" />
      <path
         d="M 468.059,341.048 H 362.685 v 7.844 h 105.374 z"
         fill="#3d4959"
         id="path142" />
      <path
         d="M 468.059,303.017 H 362.685 v 7.845 h 105.374 z"
         fill="#3d4959"
         id="path144" />
      <path
         d="M 472.771,346.955 H 357.513 c -2.999,0 -5.429,2.432 -5.429,5.433 v 24.4 c 0,3.001 2.43,5.433 5.429,5.433 h 115.258 c 2.998,0 5.429,-2.432 5.429,-5.433 v -24.4 c 0,-3.001 -2.431,-5.433 -5.429,-5.433 z"
         fill="#d6e0ea"
         id="path146" />
      <path
         d="m 404.426,346.955 -5.754,35.226 h -41.159 c -1.437,0 -2.814,-0.571 -3.83,-1.588 -1.015,-1.016 -1.586,-2.394 -1.586,-3.832 v -24.387 c 0,-1.437 0.571,-2.816 1.586,-3.832 1.016,-1.016 2.393,-1.587 3.83,-1.587 z"
         fill="#ededed"
         id="path148" />
      <path
         d="m 470.442,374.458 v -19.74 h -110.6 v 19.74 z"
         fill="#3d4959"
         id="path150" />
      <path
         d="m 461.71,364.568 c 0.002,0.673 -0.195,1.332 -0.567,1.893 -0.371,0.561 -0.901,0.999 -1.522,1.258 -0.621,0.26 -1.304,0.329 -1.964,0.199 -0.66,-0.129 -1.267,-0.452 -1.744,-0.927 -0.477,-0.475 -0.802,-1.081 -0.934,-1.741 -0.132,-0.66 -0.065,-1.345 0.191,-1.967 0.257,-0.622 0.693,-1.154 1.252,-1.528 0.559,-0.375 1.217,-0.574 1.889,-0.574 0.899,0 1.762,0.356 2.398,0.991 0.637,0.635 0.997,1.496 1.001,2.396 z"
         fill="#24a7ff"
         id="path152" />
      <path
         d="m 444.122,367.508 c 1.608,0 2.911,-1.304 2.911,-2.913 0,-1.609 -1.303,-2.913 -2.911,-2.913 -1.607,0 -2.911,1.304 -2.911,2.913 0,1.609 1.304,2.913 2.911,2.913 z"
         fill="#24a7ff"
         id="path154" />
      <path
         d="m 432.844,364.568 c 0,0.576 -0.17,1.139 -0.49,1.618 -0.32,0.479 -0.775,0.852 -1.307,1.073 -0.532,0.22 -1.117,0.278 -1.682,0.166 -0.564,-0.113 -1.083,-0.39 -1.49,-0.798 -0.407,-0.407 -0.684,-0.926 -0.797,-1.491 -0.112,-0.565 -0.054,-1.151 0.166,-1.683 0.22,-0.532 0.593,-0.987 1.072,-1.307 0.479,-0.32 1.042,-0.491 1.617,-0.491 0.772,0 1.513,0.307 2.059,0.853 0.546,0.546 0.852,1.287 0.852,2.06 z"
         fill="#ffffff"
         id="path156" />
      <path
         d="m 418.655,364.568 c 0,0.576 -0.17,1.139 -0.49,1.618 -0.32,0.479 -0.775,0.852 -1.307,1.073 -0.532,0.22 -1.117,0.278 -1.681,0.166 -0.565,-0.113 -1.084,-0.39 -1.491,-0.798 -0.407,-0.407 -0.684,-0.926 -0.797,-1.491 -0.112,-0.565 -0.054,-1.151 0.166,-1.683 0.22,-0.532 0.593,-0.987 1.072,-1.307 0.479,-0.32 1.042,-0.491 1.617,-0.491 0.772,0 1.513,0.307 2.059,0.853 0.546,0.546 0.852,1.287 0.852,2.06 z"
         fill="#24a7ff"
         id="path158" />
      <path
         d="m 404.466,364.568 c 0,0.576 -0.17,1.139 -0.49,1.618 -0.32,0.479 -0.775,0.852 -1.307,1.073 -0.532,0.22 -1.117,0.278 -1.681,0.166 -0.565,-0.113 -1.084,-0.39 -1.491,-0.798 -0.407,-0.407 -0.684,-0.926 -0.797,-1.491 -0.112,-0.565 -0.054,-1.151 0.166,-1.683 0.22,-0.532 0.594,-0.987 1.072,-1.307 0.479,-0.32 1.042,-0.491 1.617,-0.491 0.772,0 1.513,0.307 2.059,0.853 0.546,0.546 0.852,1.287 0.852,2.06 z"
         fill="#ffffff"
         id="path160" />
      <path
         d="M 472.771,308.328 H 357.513 c -2.999,0 -5.429,2.433 -5.429,5.433 v 24.401 c 0,3 2.43,5.433 5.429,5.433 h 115.258 c 2.998,0 5.429,-2.433 5.429,-5.433 v -24.401 c 0,-3 -2.431,-5.433 -5.429,-5.433 z"
         fill="#d6e0ea"
         id="path162" />
      <path
         d="m 410.708,308.328 -5.741,35.226 H 357.58 c -1.436,0 -2.813,-0.571 -3.829,-1.587 -1.016,-1.016 -1.586,-2.395 -1.586,-3.832 v -24.387 c 0,-1.438 0.57,-2.816 1.586,-3.832 1.016,-1.017 2.393,-1.588 3.829,-1.588 z"
         fill="#ededed"
         id="path164" />
      <path
         d="m 470.442,335.832 v -19.74 h -110.6 v 19.74 z"
         fill="#3d4959"
         id="path166" />
      <path
         d="M 472.771,270.298 H 357.513 c -2.999,0 -5.429,2.432 -5.429,5.433 v 24.401 c 0,3 2.43,5.433 5.429,5.433 h 115.258 c 2.998,0 5.429,-2.433 5.429,-5.433 v -24.401 c 0,-3.001 -2.431,-5.433 -5.429,-5.433 z"
         fill="#d6e0ea"
         id="path168" />
      <path
         d="m 416.868,270.298 -5.74,35.226 h -53.615 c -1.437,0 -2.814,-0.571 -3.83,-1.587 -1.015,-1.017 -1.586,-2.395 -1.586,-3.832 v -24.388 c 0,-1.437 0.571,-2.815 1.586,-3.832 1.016,-1.016 2.393,-1.587 3.83,-1.587 z"
         fill="#ededed"
         id="path170" />
      <path
         d="m 470.442,297.801 v -19.74 h -110.6 v 19.74 z"
         fill="#3d4959"
         id="path172" />
      <path
         d="m 461.709,325.955 c 0,0.672 -0.199,1.33 -0.572,1.889 -0.374,0.559 -0.904,0.995 -1.525,1.253 -0.621,0.257 -1.305,0.324 -1.964,0.193 -0.659,-0.131 -1.265,-0.455 -1.74,-0.931 -0.475,-0.475 -0.799,-1.081 -0.93,-1.741 -0.131,-0.659 -0.064,-1.343 0.194,-1.965 0.257,-0.621 0.692,-1.152 1.251,-1.526 0.559,-0.373 1.216,-0.573 1.888,-0.573 0.901,0 1.766,0.358 2.403,0.996 0.637,0.638 0.995,1.503 0.995,2.405 z"
         fill="#24a7ff"
         id="path174" />
      <path
         d="m 447.033,325.955 c 0,0.576 -0.171,1.139 -0.49,1.618 -0.32,0.479 -0.775,0.853 -1.307,1.073 -0.532,0.221 -1.117,0.278 -1.682,0.166 -0.564,-0.113 -1.083,-0.39 -1.49,-0.797 -0.407,-0.408 -0.684,-0.927 -0.797,-1.492 -0.112,-0.565 -0.054,-1.151 0.166,-1.683 0.22,-0.532 0.593,-0.987 1.072,-1.307 0.479,-0.32 1.042,-0.491 1.617,-0.491 0.772,0 1.513,0.307 2.059,0.853 0.545,0.546 0.852,1.287 0.852,2.06 z"
         fill="#24a7ff"
         id="path176" />
      <path
         d="m 432.844,325.955 c 0,0.576 -0.17,1.139 -0.49,1.618 -0.32,0.479 -0.775,0.853 -1.307,1.073 -0.532,0.221 -1.117,0.278 -1.682,0.166 -0.564,-0.113 -1.083,-0.39 -1.49,-0.797 -0.407,-0.408 -0.684,-0.927 -0.797,-1.492 -0.112,-0.565 -0.054,-1.151 0.166,-1.683 0.22,-0.532 0.593,-0.987 1.072,-1.307 0.479,-0.32 1.042,-0.491 1.617,-0.491 0.772,0 1.513,0.307 2.059,0.853 0.546,0.546 0.852,1.287 0.852,2.06 z"
         fill="#ffffff"
         id="path178" />
      <path
         d="m 418.655,325.955 c 0,0.576 -0.17,1.139 -0.49,1.618 -0.32,0.479 -0.775,0.853 -1.307,1.073 -0.532,0.221 -1.117,0.278 -1.681,0.166 -0.565,-0.113 -1.084,-0.39 -1.491,-0.797 -0.407,-0.408 -0.684,-0.927 -0.797,-1.492 -0.112,-0.565 -0.054,-1.151 0.166,-1.683 0.22,-0.532 0.593,-0.987 1.072,-1.307 0.479,-0.32 1.042,-0.491 1.617,-0.491 0.772,0 1.513,0.307 2.059,0.853 0.546,0.546 0.852,1.287 0.852,2.06 z"
         fill="#24a7ff"
         id="path180" />
      <path
         d="m 404.466,325.955 c 0,0.576 -0.17,1.139 -0.49,1.618 -0.32,0.479 -0.775,0.853 -1.307,1.073 -0.532,0.221 -1.117,0.278 -1.681,0.166 -0.565,-0.113 -1.084,-0.39 -1.491,-0.797 -0.407,-0.408 -0.684,-0.927 -0.797,-1.492 -0.112,-0.565 -0.054,-1.151 0.166,-1.683 0.22,-0.532 0.594,-0.987 1.072,-1.307 0.479,-0.32 1.042,-0.491 1.617,-0.491 0.772,0 1.513,0.307 2.059,0.853 0.546,0.546 0.852,1.287 0.852,2.06 z"
         fill="#ffffff"
         id="path182" />
      <path
         d="m 461.709,287.938 c 0,0.673 -0.199,1.33 -0.572,1.889 -0.374,0.56 -0.904,0.995 -1.525,1.253 -0.621,0.257 -1.305,0.325 -1.964,0.193 -0.659,-0.131 -1.265,-0.455 -1.74,-0.93 -0.475,-0.476 -0.799,-1.082 -0.93,-1.742 -0.131,-0.659 -0.064,-1.343 0.194,-1.964 0.257,-0.622 0.692,-1.153 1.251,-1.527 0.559,-0.373 1.216,-0.573 1.888,-0.573 0.447,-10e-4 0.89,0.085 1.303,0.256 0.413,0.17 0.788,0.42 1.104,0.736 0.316,0.317 0.566,0.692 0.736,1.106 0.171,0.413 0.257,0.856 0.255,1.303 z"
         fill="#24a7ff"
         id="path184" />
      <path
         d="m 447.033,287.938 c 0,0.576 -0.171,1.139 -0.49,1.618 -0.32,0.479 -0.775,0.853 -1.307,1.073 -0.532,0.221 -1.117,0.278 -1.682,0.166 -0.564,-0.112 -1.083,-0.39 -1.49,-0.797 -0.407,-0.408 -0.684,-0.927 -0.797,-1.492 -0.112,-0.565 -0.054,-1.15 0.166,-1.683 0.22,-0.532 0.593,-0.987 1.072,-1.307 0.479,-0.32 1.042,-0.491 1.617,-0.491 0.772,0 1.513,0.307 2.059,0.853 0.545,0.547 0.852,1.287 0.852,2.06 z"
         fill="#ffffff"
         id="path186" />
      <path
         d="m 432.844,287.938 c 0,0.576 -0.17,1.139 -0.49,1.618 -0.32,0.479 -0.775,0.853 -1.307,1.073 -0.532,0.221 -1.117,0.278 -1.682,0.166 -0.564,-0.112 -1.083,-0.39 -1.49,-0.797 -0.407,-0.408 -0.684,-0.927 -0.797,-1.492 -0.112,-0.565 -0.054,-1.15 0.166,-1.683 0.22,-0.532 0.593,-0.987 1.072,-1.307 0.479,-0.32 1.042,-0.491 1.617,-0.491 0.772,0 1.513,0.307 2.059,0.853 0.546,0.547 0.852,1.287 0.852,2.06 z"
         fill="#ffffff"
         id="path188" />
      <path
         d="m 418.655,287.938 c 0,0.576 -0.17,1.139 -0.49,1.618 -0.32,0.479 -0.775,0.853 -1.307,1.073 -0.532,0.221 -1.117,0.278 -1.681,0.166 -0.565,-0.112 -1.084,-0.39 -1.491,-0.797 -0.407,-0.408 -0.684,-0.927 -0.797,-1.492 -0.112,-0.565 -0.054,-1.15 0.166,-1.683 0.22,-0.532 0.593,-0.987 1.072,-1.307 0.479,-0.32 1.042,-0.491 1.617,-0.491 0.772,0 1.513,0.307 2.059,0.853 0.546,0.547 0.852,1.287 0.852,2.06 z"
         fill="#24a7ff"
         id="path190" />
      <path
         d="m 404.466,287.938 c 0,0.576 -0.17,1.139 -0.49,1.618 -0.32,0.479 -0.775,0.853 -1.307,1.073 -0.532,0.221 -1.117,0.278 -1.681,0.166 -0.565,-0.112 -1.084,-0.39 -1.491,-0.797 -0.407,-0.408 -0.684,-0.927 -0.797,-1.492 -0.112,-0.565 -0.054,-1.15 0.166,-1.683 0.22,-0.532 0.594,-0.987 1.072,-1.307 0.479,-0.32 1.042,-0.491 1.617,-0.491 0.772,0 1.513,0.307 2.059,0.853 0.546,0.547 0.852,1.287 0.852,2.06 z"
         fill="#24a7ff"
         id="path192" />
      <path
         d="m 183.942,38.9999 h 184.009 c 3.164,0 6.198,1.2576 8.435,3.4961 2.237,2.2384 3.493,5.2744 3.493,8.4401 V 161.247 c 0,3.773 -1.497,7.391 -4.163,10.059 -2.666,2.668 -6.282,4.167 -10.053,4.167 H 186.23 c -1.873,0.009 -3.728,-0.353 -5.461,-1.064 -1.733,-0.71 -3.308,-1.757 -4.635,-3.079 -1.327,-1.322 -2.38,-2.893 -3.099,-4.623 -0.719,-1.731 -1.089,-3.586 -1.089,-5.46 V 50.9361 c 0,-1.5732 0.311,-3.1309 0.915,-4.5835 0.603,-1.4526 1.488,-2.7714 2.603,-3.8807 1.115,-1.1092 2.438,-1.987 3.893,-2.5829 1.454,-0.5958 3.013,-0.898 4.585,-0.8891 z"
         fill="#3bb0ff"
         id="path194" />
      <path
         opacity="0.2"
         d="m 274.126,39 h -90.13 c -1.567,-0.0018 -3.119,0.3058 -4.567,0.905 -1.448,0.5992 -2.763,1.4783 -3.871,2.5871 -1.108,1.1087 -1.987,2.4252 -2.586,3.8742 -0.598,1.4489 -0.906,3.0019 -0.904,4.5698 V 161.247 c 0.004,3.771 1.503,7.386 4.169,10.051 2.665,2.664 6.279,4.161 10.047,4.161 h 60.398 z"
         fill="#ffffff"
         id="path196" />
      <path
         d="M 171.946,61.4631 H 379.879 V 186 c 0,3.166 -1.256,6.202 -3.493,8.44 -2.237,2.238 -5.271,3.496 -8.435,3.496 H 183.942 c -1.572,0.009 -3.131,-0.293 -4.585,-0.889 -1.455,-0.596 -2.778,-1.474 -3.893,-2.583 -1.115,-1.109 -2,-2.428 -2.603,-3.881 -0.604,-1.452 -0.915,-3.01 -0.915,-4.583 z"
         fill="#d6e0ea"
         id="path198" />
      <path
         d="M 374.193,61.4631 V 186 c 0,0.829 -0.163,1.65 -0.48,2.416 -0.317,0.766 -0.782,1.462 -1.368,2.048 -0.586,0.587 -1.281,1.052 -2.047,1.369 -0.765,0.317 -1.586,0.48 -2.414,0.48 H 183.928 c -0.828,0 -1.649,-0.163 -2.414,-0.48 -0.766,-0.317 -1.461,-0.782 -2.047,-1.369 -0.586,-0.586 -1.051,-1.282 -1.368,-2.048 -0.317,-0.766 -0.48,-1.587 -0.48,-2.416 V 61.4631 Z"
         fill="#f3f9ff"
         id="path200" />
      <path
         d="m 312.861,153.213 v -12.194 l -8.394,-1.192 c -0.651,-2.725 -1.724,-5.331 -3.182,-7.722 l 5.064,-6.775 -8.625,-8.698 -6.769,5.081 c -2.384,-1.462 -4.984,-2.537 -7.704,-3.184 l -1.205,-8.359 h -12.185 l -1.205,8.359 c -2.72,0.647 -5.32,1.722 -7.704,3.184 l -6.769,-5.081 -8.679,8.685 5.077,6.774 c -1.48,2.38 -2.555,4.99 -3.181,7.723 l -8.354,1.192 v 12.193 l 8.354,1.206 c 0.636,2.742 1.71,5.364 3.181,7.763 l -5.077,6.775 8.679,8.643 6.769,-5.08 c 2.37,1.497 4.974,2.587 7.704,3.224 l 1.205,8.36 h 12.185 l 1.205,-8.36 c 2.73,-0.637 5.333,-1.727 7.704,-3.224 l 6.769,5.08 8.625,-8.643 -5.064,-6.775 c 1.442,-2.395 2.514,-4.994 3.182,-7.709 z m -36.921,12.383 c -3.657,0.003 -7.233,-1.08 -10.274,-3.112 -3.042,-2.032 -5.412,-4.921 -6.812,-8.301 -1.4,-3.381 -1.767,-7.101 -1.053,-10.69 0.714,-3.589 2.475,-6.885 5.062,-9.472 2.587,-2.587 5.882,-4.347 9.47,-5.059 3.587,-0.712 7.304,-0.342 10.681,1.061 3.378,1.404 6.263,3.778 8.291,6.823 2.028,3.046 3.108,6.624 3.102,10.284 -0.002,2.423 -0.481,4.823 -1.41,7.061 -0.93,2.239 -2.291,4.272 -4.006,5.983 -1.715,1.711 -3.751,3.067 -5.99,3.991 -2.24,0.923 -4.639,1.396 -7.061,1.39 z"
         fill="#425160"
         id="path202" />
      <path
         d="m 275.886,165.555 c -4.902,0 -9.602,-1.948 -13.068,-5.416 -3.466,-3.468 -5.413,-8.172 -5.413,-13.077 0,-4.905 1.947,-9.609 5.413,-13.077 3.466,-3.468 8.166,-5.417 13.068,-5.417 v -18.425 h -6.079 l -1.205,8.359 c -2.72,0.647 -5.32,1.722 -7.704,3.184 l -6.77,-5.081 -8.678,8.685 5.077,6.774 c -1.48,2.38 -2.555,4.99 -3.182,7.722 l -8.353,1.193 v 12.193 l 8.353,1.206 c 0.636,2.742 1.711,5.364 3.182,7.763 l -5.077,6.774 8.678,8.644 6.77,-5.08 c 2.37,1.497 4.974,2.587 7.704,3.224 l 1.205,8.36 h 6.079 z"
         fill="#3d4959"
         id="path204" />
      <path
         d="m 358.257,103.856 v -8.725 l -5.997,-0.8535 c -0.454,-1.9433 -1.217,-3.8007 -2.261,-5.5007 l 3.615,-4.7961 -6.147,-6.1916 -4.834,3.6174 c -1.701,-1.0435 -3.556,-1.8117 -5.497,-2.2761 l -0.852,-5.9478 h -8.774 l -0.853,5.9478 c -1.94,0.4644 -3.795,1.2326 -5.497,2.2761 l -4.792,-3.6174 -6.188,6.1916 3.615,4.7961 c -1.06,1.6937 -1.828,3.5529 -2.274,5.5007 l -5.958,0.8535 v 8.725 l 5.958,0.854 c 0.45,1.954 1.219,3.822 2.274,5.527 l -3.615,4.81 6.188,6.151 4.792,-3.617 c 1.692,1.069 3.549,1.847 5.497,2.303 l 0.853,5.961 h 8.719 l 0.853,-5.961 c 1.948,-0.456 3.806,-1.234 5.497,-2.303 l 4.834,3.617 6.146,-6.151 -3.615,-4.837 c 1.033,-1.705 1.796,-3.561 2.261,-5.5 z m -26.32,8.82 c -2.606,0.003 -5.155,-0.768 -7.323,-2.216 -2.169,-1.447 -3.859,-3.506 -4.858,-5.915 -0.999,-2.41 -1.261,-5.0614 -0.753,-7.6199 0.508,-2.5584 1.763,-4.9086 3.606,-6.753 1.843,-1.8444 4.192,-3.1002 6.748,-3.6084 2.557,-0.5083 5.207,-0.2461 7.614,0.7534 2.408,0.9994 4.465,2.6912 5.912,4.8611 1.446,2.1699 2.217,4.7205 2.214,7.3289 0.004,1.7309 -0.334,3.4449 -0.994,5.0439 -0.66,1.599 -1.629,3.052 -2.852,4.276 -1.223,1.224 -2.675,2.193 -4.273,2.854 -1.598,0.661 -3.311,0.999 -5.041,0.995 z"
         fill="#41566d"
         id="path206" />
      <path
         d="m 250.31,68.3323 h -65.637 v 5.46 h 65.637 z"
         fill="#d6e0ea"
         id="path208" />
      <path
         d="m 250.31,81.2302 h -65.637 v 5.46 h 65.637 z"
         fill="#d6e0ea"
         id="path210" />
      <path
         d="m 250.31,94.1284 h -65.637 v 5.46 h 65.637 z"
         fill="#d6e0ea"
         id="path212" />
      <path
         d="m 236.121,107.026 h -51.448 v 5.46 h 51.448 z"
         fill="#d6e0ea"
         id="path214" />
      <path
         d="m 236.121,119.925 h -51.448 v 5.46 h 51.448 z"
         fill="#d6e0ea"
         id="path216" />
      <path
         d="m 330.678,50.4348 c 0.003,0.909 -0.264,1.7983 -0.767,2.5554 -0.502,0.7571 -1.218,1.3479 -2.057,1.6976 -0.838,0.3497 -1.761,0.4426 -2.653,0.2669 -0.891,-0.1757 -1.71,-0.6121 -2.353,-1.2538 -0.643,-0.6418 -1.082,-1.4602 -1.26,-2.3515 -0.178,-0.8913 -0.088,-1.8155 0.259,-2.6555 0.347,-0.84 0.935,-1.5581 1.69,-2.0634 0.755,-0.5053 1.643,-0.775 2.552,-0.775 0.602,-0.0018 1.198,0.1153 1.755,0.3447 0.557,0.2293 1.063,0.5663 1.489,0.9917 0.427,0.4254 0.765,0.9309 0.996,1.4874 0.23,0.5565 0.349,1.153 0.349,1.7555 z"
         fill="#ffffff"
         id="path218" />
      <path
         d="m 349.376,50.4348 c 0,0.9057 -0.269,1.7911 -0.771,2.5442 -0.503,0.753 -1.218,1.34 -2.054,1.6866 -0.836,0.3466 -1.756,0.4373 -2.644,0.2606 -0.888,-0.1767 -1.703,-0.6129 -2.343,-1.2533 -0.64,-0.6404 -1.076,-1.4564 -1.253,-2.3447 -0.176,-0.8883 -0.086,-1.8091 0.261,-2.6458 0.346,-0.8368 0.933,-1.552 1.685,-2.0552 0.753,-0.5032 1.637,-0.7717 2.543,-0.7717 1.213,0 2.377,0.4824 3.235,1.3412 0.859,0.8588 1.341,2.0236 1.341,3.2381 z"
         fill="#ffffff"
         id="path220" />
      <path
         d="m 368.127,50.4348 c 0,0.9057 -0.268,1.7911 -0.771,2.5442 -0.503,0.753 -1.217,1.34 -2.054,1.6866 -0.836,0.3466 -1.756,0.4373 -2.644,0.2606 -0.887,-0.1767 -1.703,-0.6129 -2.343,-1.2533 -0.64,-0.6404 -1.076,-1.4564 -1.252,-2.3447 -0.177,-0.8883 -0.086,-1.8091 0.26,-2.6458 0.347,-0.8368 0.933,-1.552 1.686,-2.0552 0.752,-0.5032 1.637,-0.7717 2.542,-0.7717 1.214,0 2.378,0.4824 3.236,1.3412 0.858,0.8588 1.34,2.0236 1.34,3.2381 z"
         fill="#ffffff"
         id="path222" />
      <path
         d="m 320.335,178.264 c 0,0.723 -0.215,1.431 -0.617,2.032 -0.401,0.602 -0.972,1.071 -1.64,1.347 -0.668,0.277 -1.403,0.35 -2.112,0.209 -0.709,-0.142 -1.361,-0.49 -1.872,-1.002 -0.511,-0.511 -0.859,-1.163 -1,-1.873 -0.141,-0.709 -0.069,-1.445 0.208,-2.113 0.276,-0.669 0.745,-1.24 1.346,-1.642 0.601,-0.402 1.308,-0.616 2.031,-0.616 0.97,0 1.899,0.385 2.585,1.071 0.685,0.686 1.071,1.617 1.071,2.587 z"
         fill="#24a7ff"
         id="path224" />
      <path
         d="m 336.148,178.264 c 0.003,0.727 -0.21,1.438 -0.612,2.043 -0.401,0.606 -0.973,1.079 -1.643,1.359 -0.671,0.28 -1.409,0.354 -2.121,0.214 -0.713,-0.14 -1.368,-0.489 -1.883,-1.002 -0.514,-0.513 -0.865,-1.167 -1.008,-1.879 -0.142,-0.713 -0.07,-1.452 0.207,-2.124 0.277,-0.671 0.747,-1.246 1.351,-1.65 0.604,-0.404 1.314,-0.619 2.04,-0.619 0.971,0 1.902,0.385 2.59,1.07 0.687,0.686 1.076,1.616 1.079,2.588 z"
         fill="#24a7ff"
         id="path226" />
      <path
         d="m 353.451,178.264 c 0.003,1.025 -0.299,2.027 -0.866,2.88 -0.567,0.854 -1.375,1.519 -2.32,1.912 -0.946,0.394 -1.987,0.498 -2.992,0.298 -1.004,-0.199 -1.927,-0.692 -2.651,-1.417 -0.724,-0.724 -1.217,-1.648 -1.416,-2.653 -0.199,-1.005 -0.096,-2.047 0.297,-2.993 0.394,-0.947 1.059,-1.755 1.911,-2.322 0.853,-0.568 1.855,-0.87 2.879,-0.867 1.368,0 2.68,0.544 3.647,1.512 0.968,0.968 1.511,2.281 1.511,3.65 z"
         fill="#24a7ff"
         id="path228" />
      <path
         d="m 367.762,178.264 c 0.003,0.727 -0.21,1.438 -0.612,2.043 -0.401,0.606 -0.973,1.079 -1.644,1.359 -0.67,0.28 -1.408,0.354 -2.121,0.214 -0.712,-0.14 -1.367,-0.489 -1.882,-1.002 -0.514,-0.513 -0.865,-1.167 -1.008,-1.879 -0.142,-0.713 -0.07,-1.452 0.207,-2.124 0.277,-0.671 0.747,-1.246 1.351,-1.65 0.604,-0.404 1.314,-0.619 2.04,-0.619 0.971,0 1.902,0.385 2.59,1.07 0.687,0.686 1.075,1.616 1.079,2.588 z"
         fill="#24a7ff"
         id="path230" />
      <path
         d="m 191.456,178.264 c 0.003,0.727 -0.21,1.438 -0.612,2.043 -0.401,0.606 -0.973,1.079 -1.643,1.359 -0.671,0.28 -1.409,0.354 -2.121,0.214 -0.713,-0.14 -1.368,-0.489 -1.883,-1.002 -0.514,-0.513 -0.865,-1.167 -1.008,-1.879 -0.142,-0.713 -0.07,-1.452 0.207,-2.124 0.277,-0.671 0.747,-1.246 1.351,-1.65 0.604,-0.404 1.314,-0.619 2.04,-0.619 0.971,0 1.902,0.385 2.59,1.07 0.687,0.686 1.075,1.616 1.079,2.588 z"
         fill="#24a7ff"
         id="path232" />
      <path
         d="m 207.256,178.264 c 0,0.723 -0.214,1.431 -0.616,2.032 -0.402,0.602 -0.972,1.071 -1.64,1.347 -0.668,0.277 -1.403,0.35 -2.113,0.209 -0.709,-0.142 -1.36,-0.49 -1.871,-1.002 -0.511,-0.511 -0.86,-1.163 -1.001,-1.873 -0.141,-0.709 -0.068,-1.445 0.208,-2.113 0.277,-0.669 0.746,-1.24 1.347,-1.642 0.601,-0.402 1.308,-0.616 2.031,-0.616 0.969,0 1.899,0.385 2.584,1.071 0.686,0.686 1.071,1.617 1.071,2.587 z"
         fill="#24a7ff"
         id="path234" />
      <path
         d="m 223.056,178.264 c 0,0.723 -0.214,1.431 -0.616,2.032 -0.402,0.602 -0.972,1.071 -1.64,1.347 -0.668,0.277 -1.403,0.35 -2.112,0.209 -0.71,-0.142 -1.361,-0.49 -1.872,-1.002 -0.511,-0.511 -0.86,-1.163 -1.001,-1.873 -0.141,-0.709 -0.068,-1.445 0.208,-2.113 0.277,-0.669 0.746,-1.24 1.347,-1.642 0.601,-0.402 1.308,-0.616 2.031,-0.616 0.969,0 1.899,0.385 2.585,1.071 0.685,0.686 1.07,1.617 1.07,2.587 z"
         fill="#24a7ff"
         id="path236" />
      <path
         d="m 238.87,178.264 c 0.003,0.727 -0.211,1.439 -0.613,2.045 -0.402,0.606 -0.975,1.078 -1.646,1.358 -0.671,0.279 -1.41,0.353 -2.123,0.212 -0.713,-0.141 -1.368,-0.491 -1.882,-1.005 -0.514,-0.515 -0.863,-1.17 -1.004,-1.884 -0.142,-0.713 -0.068,-1.453 0.212,-2.124 0.279,-0.671 0.751,-1.245 1.357,-1.647 0.605,-0.403 1.317,-0.616 2.043,-0.613 0.97,0 1.9,0.385 2.585,1.071 0.686,0.686 1.071,1.617 1.071,2.587 z"
         fill="#24a7ff"
         id="path238" />
      <path
         d="M 158.84,74.456 V 64.4167 l -6.891,-0.9891 c -0.526,-2.2334 -1.404,-4.369 -2.599,-6.3271 l 4.156,-5.5277 -7.067,-7.1129 -5.578,4.1594 c -1.954,-1.2059 -4.089,-2.0888 -6.323,-2.6149 l -0.975,-6.8555 h -10.032 l -0.989,6.8555 c -2.233,0.531 -4.367,1.4136 -6.323,2.6149 l -5.524,-4.1594 -7.108,7.14 4.157,5.5277 c -1.212,1.9515 -2.094,4.089 -2.613,6.3271 l -6.8508,0.9891 v 10.0393 l 6.8508,0.9755 c 0.521,2.2501 1.403,4.4007 2.613,6.3677 l -4.157,5.5278 7.108,7.0858 5.524,-4.1594 c 1.949,1.2209 4.085,2.1134 6.323,2.642 l 0.989,6.8554 h 10.032 l 0.975,-6.8554 c 2.239,-0.5236 4.376,-1.4164 6.323,-2.642 l 5.578,4.1594 7.067,-7.0858 -4.156,-5.5684 c 1.186,-1.9625 2.063,-4.0967 2.599,-6.3271 z m -30.273,7.5465 c -2.487,0.0026 -4.918,-0.7332 -6.987,-2.1143 -2.068,-1.3811 -3.681,-3.3453 -4.633,-5.6441 -0.952,-2.2987 -1.201,-4.8285 -0.716,-7.2691 0.485,-2.4405 1.684,-4.682 3.443,-6.4406 1.759,-1.7586 4.001,-2.9553 6.44,-3.4385 2.439,-0.4831 4.967,-0.231 7.263,0.7243 2.296,0.9554 4.258,2.5711 5.636,4.6426 1.377,2.0714 2.11,4.5054 2.105,6.9939 0.002,1.6491 -0.322,3.2825 -0.952,4.8063 -0.63,1.5238 -1.555,2.9081 -2.721,4.0737 -1.166,1.1655 -2.55,2.0892 -4.074,2.7183 -1.523,0.6291 -3.156,0.951 -4.804,0.9475 z"
         fill="#e4eff7"
         id="path240" />
      <path
         d="m 471.106,213.151 v -8.698 l -5.958,-0.854 c -0.464,-1.914 -1.227,-3.742 -2.261,-5.419 l 3.602,-4.796 -6.133,-6.165 -4.82,3.604 c -1.676,-1.034 -3.503,-1.797 -5.416,-2.262 l -0.853,-5.935 h -8.692 l -0.853,5.935 c -1.912,0.468 -3.739,1.231 -5.416,2.262 l -4.779,-3.604 -6.174,6.165 3.615,4.796 c -1.05,1.668 -1.814,3.5 -2.261,5.419 l -5.943,0.854 v 8.698 l 5.943,0.854 c 0.449,1.944 1.213,3.802 2.261,5.5 l -3.615,4.796 6.174,6.138 4.779,-3.618 c 1.667,1.061 3.496,1.84 5.416,2.304 l 0.853,5.934 h 8.692 l 0.853,-5.934 c 1.921,-0.462 3.751,-1.24 5.416,-2.304 l 4.82,3.618 6.133,-6.138 -3.588,-4.823 c 1.02,-1.683 1.782,-3.51 2.261,-5.419 z m -26.226,6.53 c -2.142,0 -4.236,-0.635 -6.017,-1.826 -1.781,-1.191 -3.17,-2.884 -3.989,-4.865 -0.82,-1.98 -1.035,-4.159 -0.617,-6.262 0.418,-2.102 1.45,-4.034 2.965,-5.55 1.514,-1.515 3.444,-2.548 5.545,-2.966 2.101,-0.418 4.279,-0.203 6.258,0.617 1.98,0.82 3.671,2.209 4.861,3.992 1.19,1.782 1.826,3.878 1.826,6.022 0,2.874 -1.141,5.631 -3.173,7.664 -2.031,2.032 -4.786,3.174 -7.659,3.174 z"
         fill="#dde9f2"
         id="path242" />
      <path
         d="m 395.598,412.326 v -5.758 l -3.94,-0.569 c -0.299,-1.28 -0.807,-2.502 -1.502,-3.618 l 2.396,-3.17 -4.062,-4.065 -3.195,2.398 c -1.115,-0.695 -2.336,-1.203 -3.615,-1.503 l -0.569,-3.929 h -5.74 l -0.569,3.929 c -1.283,0.301 -2.508,0.809 -3.628,1.503 l -3.155,-2.398 -4.062,4.065 2.397,3.17 c -0.701,1.113 -1.209,2.336 -1.503,3.618 l -3.926,0.569 v 5.744 l 3.926,0.569 c 0.3,1.289 0.808,2.52 1.503,3.645 l -2.397,3.17 4.062,4.065 3.155,-2.398 c 1.116,0.707 2.342,1.224 3.628,1.531 l 0.569,3.929 h 5.74 l 0.569,-3.929 c 1.282,-0.304 2.504,-0.822 3.615,-1.531 l 3.141,2.411 4.062,-4.064 -2.397,-3.184 c 0.684,-1.126 1.191,-2.351 1.503,-3.631 z m -17.343,4.335 c -1.426,0.003 -2.82,-0.418 -4.007,-1.209 -1.187,-0.791 -2.112,-1.916 -2.659,-3.234 -0.547,-1.318 -0.69,-2.768 -0.413,-4.167 0.278,-1.4 0.964,-2.685 1.972,-3.694 1.008,-1.009 2.293,-1.696 3.691,-1.973 1.399,-0.278 2.848,-0.134 4.165,0.413 1.317,0.547 2.441,1.473 3.232,2.661 0.79,1.187 1.211,2.582 1.208,4.009 0.002,0.945 -0.183,1.882 -0.544,2.755 -0.36,0.874 -0.89,1.668 -1.558,2.336 -0.668,0.669 -1.461,1.198 -2.334,1.559 -0.873,0.361 -1.809,0.546 -2.753,0.544 z"
         fill="#e4eff7"
         id="path244" />
      <path
         d="m 225.967,452.754 c 0,-3.969 2.126,-6.232 4.983,-6.232 2.856,0 4.968,2.263 4.968,6.232 0,3.97 -2.125,6.246 -4.968,6.246 -2.844,0 -4.983,-2.303 -4.983,-6.246 z m 8.205,0 c 0,-3.116 -1.354,-4.687 -3.222,-4.687 -1.869,0 -3.236,1.571 -3.236,4.687 0,3.116 1.354,4.688 3.236,4.688 1.881,0 3.208,-1.558 3.208,-4.688 z"
         fill="#dde9f2"
         id="path246" />
      <path
         d="m 237.584,452.754 c 0,-3.969 2.125,-6.232 4.982,-6.232 2.857,0 4.955,2.263 4.955,6.232 0,3.97 -2.125,6.246 -4.955,6.246 -2.83,0 -4.982,-2.303 -4.982,-6.246 z m 8.123,0 c 0,-3.116 -1.354,-4.687 -3.209,-4.687 -1.855,0 -3.249,1.571 -3.249,4.687 0,3.116 1.354,4.688 3.249,4.688 1.896,0 3.277,-1.558 3.277,-4.688 z"
         fill="#dde9f2"
         id="path248" />
      <path
         d="m 252.923,446.657 v 12.194 h -1.719 v -10.69 h -2.708 v -1.517 z"
         fill="#dde9f2"
         id="path250" />
      <path
         d="m 255.591,452.754 c 0,-3.969 2.125,-6.232 4.982,-6.232 2.857,0 4.969,2.263 4.969,6.232 0,3.97 -2.126,6.246 -4.969,6.246 -2.843,0 -4.982,-2.303 -4.982,-6.246 z m 8.204,0 c 0,-3.116 -1.354,-4.687 -3.222,-4.687 -1.868,0 -3.236,1.571 -3.236,4.687 0,3.116 1.354,4.688 3.236,4.688 1.882,0 3.222,-1.558 3.222,-4.688 z"
         fill="#dde9f2"
         id="path252" />
      <path
         d="m 270.944,446.657 v 12.194 h -1.652 v -10.69 h -2.708 v -1.517 z"
         fill="#dde9f2"
         id="path254" />
      <path
         d="m 273.611,452.754 c 0,-3.969 2.126,-6.232 4.982,-6.232 2.857,0 4.956,2.263 4.956,6.232 0,3.97 -2.126,6.246 -4.956,6.246 -2.829,0 -4.982,-2.303 -4.982,-6.246 z m 8.205,0 c 0,-3.116 -1.354,-4.687 -3.223,-4.687 -1.868,0 -3.249,1.571 -3.249,4.687 0,3.116 1.354,4.688 3.249,4.688 1.896,0 3.223,-1.558 3.223,-4.688 z"
         fill="#dde9f2"
         id="path256" />
      <path
         d="m 288.951,446.657 v 12.194 h -1.72 v -10.69 h -2.707 v -1.517 z"
         fill="#dde9f2"
         id="path258" />
      <path
         d="m 40.4818,234.232 c 0,-4.999 2.7078,-7.844 6.2551,-7.844 3.5472,0 6.2415,2.845 6.2415,7.844 0,5 -2.7078,7.831 -6.2415,7.831 -3.5337,0 -6.2551,-2.845 -6.2551,-7.831 z m 10.3032,0 c 0,-3.915 -1.6653,-5.893 -4.0617,-5.893 -2.3964,0 -4.0617,1.978 -4.0617,5.893 0,3.916 1.6653,5.894 4.0617,5.894 2.3964,0 4.0347,-1.978 4.0347,-5.894 z"
         fill="#dde9f2"
         id="path260" />
      <path
         d="m 55.0499,234.232 c 0,-4.999 2.7078,-7.844 6.2686,-7.844 3.5608,0 6.228,2.845 6.228,7.844 0,5 -2.7078,7.831 -6.228,7.831 -3.5201,0 -6.2686,-2.845 -6.2686,-7.831 z m 10.3033,0 c 0,-3.915 -1.6518,-5.893 -4.0618,-5.893 -2.4099,0 -4.0617,1.978 -4.0617,5.893 0,3.916 1.6653,5.894 4.0617,5.894 2.3965,0 4.0618,-1.978 4.0618,-5.894 z"
         fill="#dde9f2"
         id="path262" />
      <path
         d="m 74.3295,226.564 v 15.323 h -2.1662 v -13.413 h -3.4525 v -1.91 z"
         fill="#dde9f2"
         id="path264" />
      <path
         d="m 77.6873,234.232 c 0,-4.999 2.7078,-7.844 6.255,-7.844 3.5472,0 6.2415,2.845 6.2415,7.844 0,5 -2.7078,7.831 -6.2415,7.831 -3.5337,0 -6.255,-2.845 -6.255,-7.831 z m 10.3032,0 c 0,-3.915 -1.6518,-5.893 -4.0617,-5.893 -2.41,0 -4.0618,1.978 -4.0618,5.893 0,3.916 1.6653,5.894 4.0618,5.894 2.3964,0 4.0617,-1.978 4.0617,-5.894 z"
         fill="#dde9f2"
         id="path266" />
      <path
         d="m 96.9669,226.564 v 15.323 h -2.1663 v -13.413 h -3.4525 v -1.91 z"
         fill="#dde9f2"
         id="path268" />
      <path
         d="m 105.077,226.564 v 15.323 h -2.167 v -13.413 h -3.4655 v -1.91 z"
         fill="#dde9f2"
         id="path270" />
      <path
         d="m 108.421,234.232 c 0,-4.999 2.708,-7.844 6.255,-7.844 3.547,0 6.241,2.845 6.241,7.844 0,5 -2.707,7.831 -6.241,7.831 -3.534,0 -6.255,-2.845 -6.255,-7.831 z m 10.303,0 c 0,-3.915 -1.652,-5.893 -4.062,-5.893 -2.41,0 -4.061,1.978 -4.061,5.893 0,3.916 1.665,5.894 4.061,5.894 2.397,0 4.062,-1.978 4.062,-5.894 z"
         fill="#dde9f2"
         id="path272" />
      <path
         d="m 123.07,234.232 c 0,-4.999 2.708,-7.844 6.255,-7.844 3.547,0 6.228,2.845 6.228,7.844 0,5 -2.708,7.831 -6.228,7.831 -3.52,0 -6.255,-2.845 -6.255,-7.831 z m 10.303,0 c 0,-3.915 -1.665,-5.893 -4.061,-5.893 -2.397,0 -4.062,1.978 -4.062,5.893 0,3.916 1.665,5.894 4.062,5.894 2.396,0 4.021,-1.978 4.021,-5.894 z"
         fill="#dde9f2"
         id="path274" />
      <path
         d="m 137.625,234.232 c 0,-4.999 2.708,-7.844 6.255,-7.844 3.547,0 6.241,2.845 6.241,7.844 0,5 -2.707,7.831 -6.241,7.831 -3.534,0 -6.255,-2.845 -6.255,-7.831 z m 10.303,0 c 0,-3.915 -1.652,-5.893 -4.062,-5.893 -2.41,0 -4.061,1.978 -4.061,5.893 0,3.916 1.665,5.894 4.061,5.894 2.397,0 4.062,-1.978 4.062,-5.894 z"
         fill="#dde9f2"
         id="path276" />
      <path
         d="m 156.918,226.564 v 15.323 h -2.166 v -13.413 h -3.453 v -1.91 z"
         fill="#dde9f2"
         id="path278" />
      <path
         d="m 160.262,234.232 c 0,-4.999 2.708,-7.844 6.255,-7.844 3.547,0 6.242,2.845 6.242,7.844 0,5 -2.708,7.831 -6.242,7.831 -3.534,0 -6.255,-2.845 -6.255,-7.831 z m 10.303,0 c 0,-3.915 -1.665,-5.893 -4.061,-5.893 -2.397,0 -4.062,1.978 -4.062,5.893 0,3.916 1.665,5.894 4.062,5.894 2.396,0 4.061,-1.978 4.061,-5.894 z"
         fill="#dde9f2"
         id="path280" />
      <path
         d="m 179.542,226.564 v 15.323 h -2.167 v -13.413 h -3.452 v -1.91 z"
         fill="#dde9f2"
         id="path282" />
      <path
         d="m 281.884,252.252 c 0,-5 2.707,-7.845 6.255,-7.845 3.547,0 6.241,2.845 6.241,7.845 0,4.999 -2.708,7.831 -6.241,7.831 -3.534,0 -6.255,-2.845 -6.255,-7.831 z m 10.303,0 c 0,-3.929 -1.666,-5.894 -4.062,-5.894 -2.396,0 -4.062,1.965 -4.062,5.894 0,3.929 1.666,5.88 4.062,5.88 2.396,0 4.062,-1.951 4.062,-5.88 z"
         fill="#dde9f2"
         id="path284" />
      <path
         d="m 301.163,244.583 v 15.323 h -2.166 v -13.412 h -3.453 v -1.911 z"
         fill="#dde9f2"
         id="path286" />
      <path
         d="m 309.26,244.583 v 15.323 h -2.167 v -13.412 h -3.452 v -1.911 z"
         fill="#dde9f2"
         id="path288" />
      <path
         d="m 312.617,252.252 c 0,-5 2.708,-7.845 6.255,-7.845 3.547,0 6.242,2.845 6.242,7.845 0,4.999 -2.708,7.831 -6.242,7.831 -3.533,0 -6.255,-2.845 -6.255,-7.831 z m 10.303,0 c 0,-3.929 -1.665,-5.894 -4.061,-5.894 -2.397,0 -4.062,1.965 -4.062,5.894 0,3.929 1.652,5.88 4.062,5.88 2.41,0 4.061,-1.951 4.061,-5.88 z"
         fill="#dde9f2"
         id="path290" />
      <path
         d="m 327.212,252.252 c 0,-5 2.708,-7.845 6.269,-7.845 3.561,0 6.228,2.845 6.228,7.845 0,4.999 -2.708,7.831 -6.228,7.831 -3.52,0 -6.269,-2.845 -6.269,-7.831 z m 10.317,0 c 0,-3.929 -1.665,-5.894 -4.062,-5.894 -2.396,0 -4.061,1.965 -4.061,5.894 0,3.929 1.665,5.88 4.061,5.88 2.397,0 4.062,-1.951 4.062,-5.88 z"
         fill="#dde9f2"
         id="path292" />
      <path
         d="m 341.821,252.252 c 0,-5 2.708,-7.845 6.255,-7.845 3.547,0 6.242,2.845 6.242,7.845 0,4.999 -2.708,7.831 -6.242,7.831 -3.534,0 -6.255,-2.845 -6.255,-7.831 z m 10.303,0 c 0,-3.929 -1.665,-5.894 -4.061,-5.894 -2.397,0 -4.062,1.965 -4.062,5.894 0,3.929 1.665,5.88 4.062,5.88 2.396,0 4.061,-1.951 4.061,-5.88 z"
         fill="#dde9f2"
         id="path294" />
      <path
         d="m 394.935,68.3322 c 0,0.7235 -0.215,1.4307 -0.616,2.0323 -0.402,0.6015 -0.973,1.0704 -1.641,1.3472 -0.668,0.2769 -1.403,0.3494 -2.112,0.2082 -0.709,-0.1411 -1.36,-0.4895 -1.872,-1.0011 -0.511,-0.5116 -0.859,-1.1634 -1,-1.873 -0.141,-0.7096 -0.069,-1.4451 0.208,-2.1135 0.277,-0.6685 0.745,-1.2398 1.346,-1.6417 0.602,-0.402 1.308,-0.6165 2.031,-0.6165 0.97,0 1.9,0.3854 2.585,1.0714 0.686,0.686 1.071,1.6165 1.071,2.5867 z"
         fill="#dde9f2"
         id="path296" />
      <path
         d="m 410.748,68.3322 c 0.003,0.7273 -0.21,1.439 -0.612,2.0449 -0.402,0.6059 -0.975,1.0786 -1.646,1.3581 -0.671,0.2796 -1.41,0.3535 -2.123,0.2122 -0.713,-0.1412 -1.368,-0.4912 -1.882,-1.0055 -0.514,-0.5143 -0.864,-1.1697 -1.005,-1.8832 -0.141,-0.7135 -0.067,-1.4529 0.212,-2.1243 0.28,-0.6715 0.752,-1.2447 1.357,-1.6472 0.606,-0.4024 1.317,-0.6158 2.044,-0.6131 0.969,0 1.899,0.3854 2.585,1.0714 0.685,0.686 1.07,1.6165 1.07,2.5867 z"
         fill="#dde9f2"
         id="path298" />
      <path
         d="m 428.065,68.3322 c 0,1.0236 -0.303,2.0243 -0.872,2.8754 -0.568,0.8511 -1.376,1.5144 -2.321,1.9062 -0.945,0.3917 -1.985,0.4942 -2.988,0.2945 -1.003,-0.1997 -1.925,-0.6927 -2.648,-1.4165 -0.723,-0.7238 -1.216,-1.6459 -1.416,-2.6499 -0.199,-1.0039 -0.097,-2.0445 0.295,-2.9902 0.391,-0.9457 1.054,-1.754 1.905,-2.3227 0.85,-0.5687 1.85,-0.8723 2.873,-0.8723 1.372,0 2.687,0.5453 3.657,1.5159 0.97,0.9706 1.515,2.287 1.515,3.6596 z"
         fill="#dde9f2"
         id="path300" />
      <path
         d="m 442.362,68.3322 c 0.003,0.7273 -0.21,1.439 -0.613,2.0449 -0.402,0.6059 -0.975,1.0786 -1.646,1.3581 -0.67,0.2796 -1.409,0.3535 -2.122,0.2122 -0.713,-0.1412 -1.368,-0.4912 -1.882,-1.0055 -0.514,-0.5143 -0.864,-1.1697 -1.005,-1.8832 -0.141,-0.7135 -0.067,-1.4529 0.212,-2.1243 0.279,-0.6715 0.752,-1.2447 1.357,-1.6472 0.606,-0.4024 1.317,-0.6158 2.044,-0.6131 0.969,0 1.899,0.3854 2.585,1.0714 0.685,0.686 1.07,1.6165 1.07,2.5867 z"
         fill="#dde9f2"
         id="path302" />
      <path
         d="m 176.956,397.314 c -0.003,-0.727 0.21,-1.438 0.611,-2.043 0.402,-0.606 0.974,-1.079 1.644,-1.359 0.67,-0.28 1.409,-0.354 2.121,-0.214 0.713,0.14 1.368,0.489 1.882,1.002 0.515,0.513 0.866,1.167 1.008,1.879 0.143,0.713 0.071,1.452 -0.206,2.124 -0.277,0.671 -0.748,1.245 -1.351,1.65 -0.604,0.404 -1.314,0.619 -2.04,0.619 -0.481,0.002 -0.958,-0.091 -1.403,-0.274 -0.445,-0.183 -0.85,-0.453 -1.191,-0.792 -0.341,-0.34 -0.611,-0.744 -0.796,-1.189 -0.184,-0.444 -0.279,-0.921 -0.279,-1.403 z"
         fill="#dde9f2"
         id="path304" />
      <path
         d="m 161.156,397.314 c 0,-0.723 0.214,-1.431 0.616,-2.032 0.401,-0.602 0.972,-1.071 1.64,-1.347 0.668,-0.277 1.403,-0.35 2.112,-0.209 0.709,0.142 1.361,0.49 1.872,1.002 0.511,0.511 0.859,1.163 1,1.873 0.142,0.709 0.069,1.445 -0.208,2.113 -0.276,0.668 -0.745,1.24 -1.346,1.642 -0.601,0.402 -1.308,0.616 -2.031,0.616 -0.969,0 -1.899,-0.385 -2.585,-1.071 -0.685,-0.686 -1.07,-1.617 -1.07,-2.587 z"
         fill="#dde9f2"
         id="path306" />
      <path
         d="m 143.839,397.314 c 0,-1.023 0.303,-2.024 0.872,-2.875 0.568,-0.851 1.376,-1.515 2.321,-1.906 0.945,-0.392 1.985,-0.495 2.988,-0.295 1.003,0.2 1.925,0.693 2.648,1.417 0.723,0.723 1.216,1.646 1.416,2.649 0.199,1.004 0.097,2.045 -0.295,2.991 -0.391,0.945 -1.054,1.754 -1.905,2.322 -0.85,0.569 -1.85,0.873 -2.873,0.873 -1.372,0 -2.687,-0.546 -3.657,-1.516 -0.97,-0.971 -1.515,-2.287 -1.515,-3.66 z"
         fill="#dde9f2"
         id="path308" />
      <path
         d="m 129.542,397.314 c -0.003,-0.727 0.21,-1.439 0.613,-2.045 0.402,-0.606 0.975,-1.078 1.646,-1.358 0.671,-0.279 1.409,-0.353 2.122,-0.212 0.713,0.141 1.368,0.491 1.882,1.006 0.514,0.514 0.864,1.169 1.005,1.883 0.141,0.713 0.068,1.453 -0.212,2.124 -0.279,0.671 -0.752,1.245 -1.357,1.647 -0.605,0.403 -1.317,0.616 -2.044,0.613 -0.969,0 -1.899,-0.385 -2.584,-1.071 -0.686,-0.686 -1.071,-1.617 -1.071,-2.587 z"
         fill="#dde9f2"
         id="path310" />
      <path
         d="m 366.056,263.199 h -6.214 v 3.671 h 6.214 z"
         fill="#55738e"
         id="path312" />
      <path
         d="m 366.056,256.302 h -6.214 v 3.672 h 6.214 z"
         fill="#55738e"
         id="path314" />
      <path
         d="m 366.056,249.406 h -6.214 v 3.672 h 6.214 z"
         fill="#55738e"
         id="path316" />
      <path
         d="m 366.056,242.51 h -6.214 v 3.672 h 6.214 z"
         fill="#55738e"
         id="path318" />
      <path
         d="m 366.056,235.614 h -6.214 v 3.672 h 6.214 z"
         fill="#55738e"
         id="path320" />
      <path
         d="m 366.056,228.718 h -6.214 v 3.672 h 6.214 z"
         fill="#55738e"
         id="path322" />
      <path
         d="m 366.056,221.822 h -6.214 v 3.672 h 6.214 z"
         fill="#55738e"
         id="path324" />
      <path
         d="m 366.056,214.926 h -6.214 v 3.671 h 6.214 z"
         fill="#55738e"
         id="path326" />
      <path
         d="m 366.056,208.03 h -6.214 v 3.671 h 6.214 z"
         fill="#55738e"
         id="path328" />
      <path
         d="m 366.056,201.134 h -6.214 v 3.671 h 6.214 z"
         fill="#55738e"
         id="path330" />
      <path
         d="m 279.054,263.199 h -6.215 v 3.671 h 6.215 z"
         fill="#55738e"
         id="path332" />
      <path
         d="m 279.054,256.302 h -6.215 v 3.672 h 6.215 z"
         fill="#55738e"
         id="path334" />
      <path
         d="m 279.054,249.406 h -6.215 v 3.672 h 6.215 z"
         fill="#55738e"
         id="path336" />
      <path
         d="m 279.054,242.51 h -6.215 v 3.672 h 6.215 z"
         fill="#55738e"
         id="path338" />
      <path
         d="m 279.054,235.614 h -6.215 v 3.672 h 6.215 z"
         fill="#55738e"
         id="path340" />
      <path
         d="m 279.054,228.718 h -6.215 v 3.672 h 6.215 z"
         fill="#55738e"
         id="path342" />
      <path
         d="m 279.054,221.822 h -6.215 v 3.672 h 6.215 z"
         fill="#55738e"
         id="path344" />
      <path
         d="m 279.054,214.926 h -6.215 v 3.671 h 6.215 z"
         fill="#55738e"
         id="path346" />
      <path
         d="m 279.054,208.03 h -6.215 v 3.671 h 6.215 z"
         fill="#55738e"
         id="path348" />
      <path
         d="m 279.054,201.134 h -6.215 v 3.671 h 6.215 z"
         fill="#55738e"
         id="path350" />
      <path
         d="m 192.038,263.199 h -6.214 v 3.671 h 6.214 z"
         fill="#55738e"
         id="path352" />
      <path
         d="m 192.038,256.302 h -6.214 v 3.672 h 6.214 z"
         fill="#55738e"
         id="path354" />
      <path
         d="m 192.038,249.406 h -6.214 v 3.672 h 6.214 z"
         fill="#55738e"
         id="path356" />
      <path
         d="m 192.038,242.51 h -6.214 v 3.672 h 6.214 z"
         fill="#55738e"
         id="path358" />
      <path
         d="m 192.038,235.614 h -6.214 v 3.672 h 6.214 z"
         fill="#55738e"
         id="path360" />
      <path
         d="m 192.038,228.718 h -6.214 v 3.672 h 6.214 z"
         fill="#55738e"
         id="path362" />
      <path
         d="m 192.038,221.822 h -6.214 v 3.672 h 6.214 z"
         fill="#55738e"
         id="path364" />
      <path
         d="m 192.038,214.926 h -6.214 v 3.671 h 6.214 z"
         fill="#55738e"
         id="path366" />
      <path
         d="m 192.038,208.03 h -6.214 v 3.671 h 6.214 z"
         fill="#55738e"
         id="path368" />
      <path
         d="m 192.038,201.134 h -6.214 v 3.671 h 6.214 z"
         fill="#55738e"
         id="path370" />
    </g>
  </g>
</svg>
