<?xml version="1.0" encoding="UTF-8" standalone="no"?>
<!-- Created with Inkscape (http://www.inkscape.org/) -->

<svg
   width="141.89069mm"
   height="95.835976mm"
   viewBox="0 0 141.89069 95.835976"
   version="1.1"
   id="svg692"
   inkscape:version="1.2.1 (9c6d41e410, 2022-07-14)"
   sodipodi:docname="security.svg"
   xmlns:inkscape="http://www.inkscape.org/namespaces/inkscape"
   xmlns:sodipodi="http://sodipodi.sourceforge.net/DTD/sodipodi-0.dtd"
   xmlns="http://www.w3.org/2000/svg"
   xmlns:svg="http://www.w3.org/2000/svg">
  <sodipodi:namedview
     id="namedview694"
     pagecolor="#ffffff"
     bordercolor="#666666"
     borderopacity="1.0"
     inkscape:showpageshadow="2"
     inkscape:pageopacity="0.0"
     inkscape:pagecheckerboard="0"
     inkscape:deskcolor="#d1d1d1"
     inkscape:document-units="mm"
     showgrid="false"
     inkscape:zoom="0.71446409"
     inkscape:cx="138.5654"
     inkscape:cy="286.92835"
     inkscape:window-width="1920"
     inkscape:window-height="1030"
     inkscape:window-x="0"
     inkscape:window-y="0"
     inkscape:window-maximized="1"
     inkscape:current-layer="layer1" />
  <defs
     id="defs689" />
  <g
     inkscape:label="Layer 1"
     inkscape:groupmode="layer"
     id="layer1"
     transform="translate(-68.666882,-72.437374)">
    <path
       d="m 196.48701,107.11862 c -3.93435,5.21123 -10.54893,8.30712 -17.45985,8.30712 -11.22892,0 -21.21429,-8.57171 -21.21429,-19.788454 0,-9.252744 5.06148,-15.888494 12.02796,-18.943108 1.91558,-0.836084 3.93964,-1.399911 6.01133,-1.675078 1.05304,-0.141816 2.11402,-0.212725 3.175,-0.21246 2.71463,0 5.40279,0.535252 7.91104,1.575065 7.43215,3.071283 12.84023,10.308696 13.21594,18.734616 0.20902,4.66725 -1.2065,8.747389 -3.66713,12.002299 z"
       fill="#657285"
       id="path376"
       style="stroke-width:0.264583" />
    <path
       d="m 167.33258,96.899084 c 0,0 0.79375,1.833298 0,2.840302 -0.79111,1.007264 -0.86254,2.912264 0.72231,4.170364 1.58221,1.25783 2.26483,1.36631 1.905,2.6244 -0.35983,1.25809 -0.73554,2.79532 -0.14288,3.44223 0.59267,0.64717 0.83609,2.1844 2.159,2.29738 1.32292,0.11324 -0.10583,-1.05199 0.75671,-2.13096 0.86519,-1.0787 4.20952,-1.29381 3.88673,-3.42397 -0.32279,-2.13016 2.75431,-2.31934 3.18559,-3.72163 0.43391,-1.40229 -1.4023,-2.2643 -2.94217,-2.15688 -1.54252,0.10768 -0.59531,-2.291824 -2.26748,-2.642926 -1.67481,-0.350837 -2.45798,-1.698095 -3.429,-1.536435 -0.97102,0.16166 -2.05052,-1.213908 -3.15913,-0.781844 -1.10595,0.4318 -0.67468,1.019969 -0.67468,1.019969 z"
       fill="#b8c1c9"
       id="path378"
       style="stroke-width:0.264583" />
    <path
       d="m 164.52535,82.230055 c 0,0 -1.15094,0.898525 -1.47109,2.3368 -0.32014,1.43801 -1.94468,2.3368 -2.19604,4.319058 -0.25135,1.981994 0.89165,2.030677 0.48684,3.109648 -0.40482,1.078706 0.0979,1.618192 1.33085,2.157677 1.23296,0.539486 1.34144,1.368161 2.06904,1.641211 0.73025,0.27305 0.53975,1.000654 0.78317,1.081616 0.24342,0.08096 0.13494,-0.551391 0.38894,-1.378479 0.25135,-0.827087 0.46566,-1.168929 -0.4498,-1.132946 -0.9181,0.03572 -0.63235,-0.701146 -0.27252,-1.168135 0.35984,-0.466725 -0.5027,-0.539221 -0.7911,-0.467519 -0.2884,0.07144 -0.21431,1.402292 -0.80963,0.772583 -0.59531,-0.629443 -0.88106,-1.348052 -0.39687,-2.175139 0.48683,-0.826823 1.52929,-0.14314 2.27012,-1.132152 0.73819,-0.988748 1.78065,-0.593461 1.83886,0.197644 0.0582,0.791368 1.52929,0.808831 1.78064,-0.233363 0.254,-1.042194 0.14553,-2.858823 1.6563,-3.154627 1.51341,-0.296069 4.48468,-1.80684 2.59291,-2.427023 -1.88912,-0.620183 -1.13506,-1.915054 -2.10608,-1.837796 -0.97102,0.07699 -0.59267,1.537229 -1.67481,1.102519 -1.0795,-0.434446 -1.86267,-1.590675 -0.34925,-1.913996 1.51341,-0.323585 2.13254,-1.994959 0.97102,-1.887538 -1.16152,0.107421 -1.34938,-1.024731 -2.05052,-0.889529 -0.70379,0.135202 -1.4314,1.837796 -2.159,2.264305 -0.73025,0.426243 -1.44198,0.815181 -1.44198,0.815181 z"
       fill="#b8c1c9"
       id="path380"
       style="stroke-width:0.264583" />
    <path
       d="m 174.26201,78.904242 c 0,0 1.4949,-0.413544 2.14313,0 0.64823,0.413544 1.65629,1.58168 0.80962,2.01348 -0.84666,0.4318 -1.73037,0.575204 -1.31497,1.38377 0.41275,0.808832 -1.18798,1.078971 -1.63778,0 -0.44979,-1.078706 -0.44979,-1.470289 -0.9181,-1.977496 -0.47096,-0.507206 -0.26987,-1.581414 0.9181,-1.419754 z"
       fill="#b8c1c9"
       id="path382"
       style="stroke-width:0.264583" />
    <path
       d="m 196.48701,107.11862 c -6.17802,-1.61925 -1.05304,-4.16005 -3.21997,-7.08422 -1.23296,-1.665026 0.96308,-3.670304 -0.44186,-3.945999 -0.81492,-0.159809 -2.69081,1.919816 -3.77031,0 -1.08215,-1.919552 -3.01361,-1.929607 -3.57717,-0.768086 -0.56091,1.161521 -2.93158,1.966384 -4.48733,1.12395 -1.55311,-0.842698 -0.65352,-1.966648 -2.00025,-2.848769 -1.34408,-0.882385 -1.44463,-2.286529 0,-3.369733 1.44727,-1.083469 0.78317,-2.648479 2.95275,-2.166937 2.16958,0.481541 1.74889,-4.513792 1.74889,-4.513792 -0.0344,-0.873919 0.81228,-1.023673 0.33073,-1.83806 -0.48154,-0.814123 -1.83885,-0.150548 -2.56116,-1.95633 -0.72232,-1.805781 1.14564,-2.88925 2.65112,-2.712773 0.43921,0.05159 1.50548,-0.255323 2.8284,-0.65696 7.43479,3.071019 12.84287,10.308696 13.21858,18.734352 0.20373,4.668308 -1.21179,8.748447 -3.67242,12.003357 z"
       fill="#b8c1c9"
       id="path384"
       style="stroke-width:0.264583" />
    <path
       d="m 167.77443,92.772907 c 0,0 1.24619,-0.693738 1.90765,-0.142346 0.6641,0.551392 0.94985,0.918898 1.92616,0.710142 0.97896,-0.208492 1.64307,0.183885 1.01336,0.472546 -0.62971,0.288395 -2.11667,0.788458 -2.794,0.189177 -0.67998,-0.599017 -2.6379,-0.98769 -2.05317,-1.229519 z"
       fill="#b8c1c9"
       id="path386"
       style="stroke-width:0.264583" />
    <path
       d="m 172.79358,95.01234 c 0,0 0.88371,0.157163 1.09008,-0.205846 0.20373,-0.363008 -0.20637,-0.01561 -0.54504,-0.204787 -0.33867,-0.189442 -0.9869,0 -0.54504,0.410633 z"
       fill="#b8c1c9"
       id="path388"
       style="stroke-width:0.264583" />
    <path
       d="m 140.93774,168.27335 c 38.44925,0 69.61982,-3.13399 69.61982,-6.99955 0,-3.86583 -31.17057,-6.99956 -69.61982,-6.99956 -38.44977,0 -69.619806,3.13373 -69.619806,6.99956 0,3.86556 31.170036,6.99955 69.619806,6.99955 z"
       fill="#eaeaea"
       id="path390"
       style="stroke-width:0.264583" />
    <g
       opacity="0.6"
       id="g394"
       transform="matrix(0.26458333,0,0,0.26458333,-125.80194,44.12688)">
      <path
         d="m 1139.2,319.542 c 30.1,-30.734 72.34,-67.032 90.72,-50.76 22.15,19.62 -31.64,44.303 -72.09,69.581 -14.51,9.069 -37.82,0.768 -18.63,-18.821 z"
         fill="#d5d6da"
         id="path392" />
    </g>
    <path
       d="m 167.96758,135.19329 c 7.97189,-3.5949 17.80646,-4.7326 24.65387,-5.05434 7.42156,-0.34819 13.02279,0.16193 13.07836,0.16643 l 0.0317,-0.3474 c -0.0529,-0.006 -5.68061,-0.51726 -13.12598,-0.16828 -6.87652,0.32279 -16.75871,1.47029 -24.78352,5.0845 z"
       fill="#ffffff"
       id="path398"
       style="stroke-width:0.264583" />
    <path
       d="m 193.7036,157.92787 c -5.10117,-2.2807 -9.26836,4.91279 -13.37734,-0.006 -3.47133,-4.16189 -3.54012,-4.81515 -5.90814,-4.6728 -0.81227,0.0526 -1.61131,0.2204 -2.37596,0.49794 -0.9181,0.32729 -2.46856,0.66173 -3.92377,-0.0587 -8.88735,-4.40081 -11.09398,-23.93209 1.83621,-24.30965 0.93398,-0.0275 1.93146,0.4281 2.99244,0.98055 5.7785,2.99852 5.6462,6.56219 14.22135,3.45784 8.57515,-3.10409 7.67821,9.71788 11.38237,11.96287 3.70153,2.24499 7.53534,3.45704 7.53534,9.1223 0,5.66526 -7.28134,5.30966 -12.3825,3.02525 z"
       fill="#d5d6da"
       id="path400"
       style="stroke-width:0.264583" />
    <g
       opacity="0.5"
       id="g412"
       transform="matrix(0.26458333,0,0,0.26458333,-125.80194,44.12688)">
      <path
         d="m 1103.77,361.147 0.05,-1.389 c 0.61,0.024 62.24,3.251 150.01,64.601 l -0.8,1.136 c -87.43,-61.118 -148.66,-64.324 -149.26,-64.348 z"
         fill="#ffffff"
         id="path402" />
      <path
         d="m 1181.94,367.291 c -3.85,-18.588 0.12,-28.181 0.3,-28.581 l 1.27,0.546 c -0.03,0.093 -3.96,9.641 -0.21,27.754 z"
         fill="#ffffff"
         id="path404" />
      <path
         d="m 1175.03,380.802 c 0.95,-7.988 7.22,-15.866 18.14,-22.812 5.14,-3.238 10.6,-5.964 16.27,-8.138 l 0.47,1.306 c -0.31,0.111 -31.32,11.462 -33.5,29.811 z"
         fill="#ffffff"
         id="path406" />
      <path
         d="m 1199.17,395.532 c -0.52,-2.126 -0.7,-3.401 -0.72,-3.474 l 1.39,-0.191 c 0.04,0.268 4.07,27.091 27.36,43.127 l -0.79,1.139 c -18.78,-12.91 -25.3,-32.672 -27.24,-40.601 z"
         fill="#ffffff"
         id="path408" />
      <path
         d="m 1191.32,429.614 c -0.93,-9.614 1.85,-16.491 4.34,-20.568 2.72,-4.439 5.63,-6.572 5.75,-6.662 l 0.81,1.136 c -0.11,0.08 -11.24,8.374 -9.53,25.969 z"
         fill="#ffffff"
         id="path410" />
    </g>
    <path
       d="m 97.38336,75.943555 c 0,0 1.287727,-2.473855 4.54369,-2.164292 3.2557,0.309827 2.86835,2.790031 4.41563,2.557462 1.54755,-0.232568 3.72137,0 4.18677,1.5494 0.46566,1.5494 2.55852,0.697442 2.63657,2.014273 0.0783,1.316832 -2.40374,2.247901 -5.27314,1.085322 -2.86941,-1.16258 -4.26403,0.902493 -8.29628,0.528372 -4.03225,-0.37412 -4.531783,-0.838993 -6.918061,-0.606425 -2.386277,0.232305 -2.329391,-1.399646 -1.243806,-2.481262 1.085586,-1.081617 5.482961,-0.985044 5.948627,-2.48285 z"
       fill="#eaeaea"
       id="path414"
       style="stroke-width:0.264583" />
    <g
       opacity="0.6"
       id="g418"
       transform="matrix(0.26458333,0,0,0.26458333,-125.80194,44.12688)">
      <path
         d="m 905.241,151.02 c 0,0 2.532,-4.862 8.936,-4.254 6.405,0.608 5.644,5.487 8.693,5.029 3.049,-0.459 7.302,0 8.233,3.049 0.932,3.05 5.035,1.39 5.188,3.963 0.153,2.574 -4.729,4.418 -10.372,2.133 -5.643,-2.286 -8.39,1.778 -16.321,1.042 -7.931,-0.737 -8.912,-1.65 -13.605,-1.195 -4.694,0.455 -4.587,-2.754 -2.434,-4.887 2.152,-2.132 10.768,-1.924 11.682,-4.88 z"
         fill="#eaeaea"
         id="path416" />
    </g>
    <path
       d="m 94.087975,92.388997 c -0.744273,0.868362 -1.242748,0.890322 -1.583267,0.599016 -0.340254,-0.291306 -0.395552,-0.786606 0.348721,-1.654175 1.357048,-1.582208 2.630223,-1.819539 2.630223,-1.819539 0,0 -0.01852,1.268148 -1.395677,2.874698 z"
       fill="#d5d6da"
       id="path420"
       style="stroke-width:0.264583" />
    <path
       d="m 96.458642,99.413155 c -0.424128,1.063355 -0.887678,1.244335 -1.304396,1.078965 -0.416719,-0.16536 -0.629179,-0.616738 -0.206111,-1.67904 0.770996,-1.936221 1.898915,-2.573073 1.898915,-2.573073 0,0 0.3937,1.208617 -0.388408,3.173148 z"
       fill="#d5d6da"
       id="path422"
       style="stroke-width:0.264583" />
    <path
       d="m 102.31334,117.80223 -0.20981,0.0524 c -0.008,-0.0323 -0.8427,-3.28798 -3.507849,-7.55915 -2.459037,-3.9415 -7.023894,-9.57924 -14.811375,-14.059958 l 0.108744,-0.183885 c 7.826904,4.502943 12.419277,10.171903 14.888633,14.136153 2.687107,4.29975 3.531657,7.58138 3.531657,7.61445 z"
       fill="#d5d6da"
       id="path424"
       style="stroke-width:0.264583" />
    <path
       d="m 92.177154,102.23705 -0.210608,-0.0513 c 1.854729,-7.641163 -3.18479,-14.409998 -3.236384,-14.477996 l 0.173038,-0.13044 c 0.05133,0.068 5.153554,6.916737 3.273954,14.659766 z"
       fill="#d5d6da"
       id="path426"
       style="stroke-width:0.264583" />
    <path
       d="m 87.946202,99.982009 c -1.302015,0.429681 -2.695839,0.502441 -4.035689,0.210341 l 0.05503,-0.208489 c 0.02487,0.0064 2.500577,0.643199 4.82256,-0.604573 l 0.102923,0.190236 c -0.303212,0.162718 -0.619125,0.300831 -0.944827,0.412485 z"
       fill="#d5d6da"
       id="path428"
       style="stroke-width:0.264583" />
    <path
       d="m 100.38135,113.30669 c -4.374352,0.97049 -8.493121,0.0918 -12.240944,-2.60429 -0.09102,-0.0699 -0.186002,-0.13468 -0.284162,-0.19394 0.0082,0.002 0.01667,0.002 0.02461,0 v -0.2159 c 0.06456,0 0.118004,0.036 0.388408,0.23151 3.696229,2.66515 7.756261,3.52504 12.067118,2.57307 z"
       fill="#d5d6da"
       id="path430"
       style="stroke-width:0.264583" />
    <path
       d="m 93.6657,113.15244 -0.216165,0.0145 c -0.197908,-2.93238 -3.347773,-6.25978 -3.380052,-6.29285 l 0.157427,-0.14976 c 0.596107,0.64797 1.144059,1.33879 1.639359,2.06666 0.765439,1.11549 1.696508,2.78448 1.799431,4.36139 z"
       fill="#d5d6da"
       id="path432"
       style="stroke-width:0.264583" />
    <path
       d="m 83.261754,95.14569 c 1.420548,0.603779 1.701006,1.118394 1.525323,1.530879 -0.175683,0.41275 -0.735806,0.567002 -2.16191,-0.03678 -2.588684,-1.102518 -3.521604,-2.379133 -3.521604,-2.379133 0,0 1.530879,-0.230452 4.158191,0.885031 z"
       fill="#d5d6da"
       id="path434"
       style="stroke-width:0.264583" />
    <path
       d="m 84.231452,99.338807 c 1.537229,0.147902 1.959504,0.551391 1.916377,0.999863 -0.04339,0.44847 -0.534458,0.76464 -2.071952,0.61648 -2.80035,-0.26909 -4.076171,-1.207297 -4.076171,-1.207297 0,0 1.390121,-0.684742 4.231746,-0.409046 z"
       fill="#d5d6da"
       id="path436"
       style="stroke-width:0.264583" />
    <path
       d="m 90.454187,105.99837 c 0.827882,0.79031 0.821532,1.28667 0.51144,1.6129 -0.310092,0.32597 -0.807773,0.35084 -1.635654,-0.43947 -1.507067,-1.44092 -1.674283,-2.72362 -1.674283,-2.72362 0,0 1.268412,0.0881 2.798497,1.55019 z"
       fill="#d5d6da"
       id="path438"
       style="stroke-width:0.264583" />
    <path
       d="m 88.917752,95.995796 c 0.609865,0.967582 0.482865,1.449123 0.102923,1.688042 -0.379942,0.238919 -0.868363,0.145256 -1.479285,-0.827087 -1.11125,-1.763448 -0.960438,-3.048265 -0.960438,-3.048265 0,0 1.208881,0.397933 2.3368,2.18731 z"
       fill="#d5d6da"
       id="path440"
       style="stroke-width:0.264583" />
    <path
       d="m 96.005146,111.13525 c 0.313796,1.10279 0.05715,1.52744 -0.375444,1.65418 -0.432329,0.12674 -0.874713,-0.10478 -1.18745,-1.20571 -0.570442,-2.00422 -0.06456,-3.1951 -0.06456,-3.1951 0,0 1.048808,0.71305 1.627452,2.74663 z"
       fill="#d5d6da"
       id="path442"
       style="stroke-width:0.264583" />
    <path
       d="m 89.002419,110.2026 c 0.9779,0.59558 1.080029,1.08241 0.846402,1.46579 -0.233627,0.38312 -0.713846,0.51647 -1.691746,-0.0791 -1.781969,-1.08532 -2.219854,-2.29738 -2.219854,-2.29738 0,0 1.258358,-0.18917 3.065198,0.9107 z"
       fill="#d5d6da"
       id="path444"
       style="stroke-width:0.264583" />
    <path
       d="m 89.04925,86.599384 c 0.828146,1.301221 0.769144,1.883833 0.391054,2.124604 -0.378089,0.240771 -0.932921,0.04868 -1.761596,-1.252537 -1.511564,-2.370667 -1.556808,-3.951288 -1.556808,-3.951288 0,0 1.394883,0.674423 2.92735,3.079221 z"
       fill="#d5d6da"
       id="path446"
       style="stroke-width:0.264583" />
    <path
       d="m 118.96463,146.08274 c 0,0 -22.066251,-36.32411 -31.708197,-29.97332 -9.64221,6.35079 20.184007,21.06771 26.272067,31.84525 z"
       fill="#d5d6da"
       id="path448"
       style="stroke-width:0.264583" />
    <path
       d="m 108.69615,139.6031 c 0,0 -25.39656,-26.90839 -34.110348,-19.24897 -8.714052,7.65942 21.931842,13.98985 29.015528,22.07392 z"
       fill="#eaeaea"
       id="path450"
       style="stroke-width:0.264583" />
    <path
       d="m 105.85982,141.20859 c -4.79399,-5.67161 -11.913397,-10.14042 -17.042345,-12.89103 -5.560219,-2.9808 -10.040408,-4.63867 -10.085387,-4.65534 l 0.102923,-0.2757 c 0.04498,0.0167 4.544483,1.68169 10.119518,4.67307 5.151967,2.76225 12.305501,7.25223 17.128861,12.95691 z"
       fill="#ffffff"
       id="path452"
       style="stroke-width:0.264583" />
    <path
       d="m 78.34659,150.04964 c 5.715529,1.11019 4.951941,9.73349 11.401954,8.00047 6.449748,-1.73328 5.904177,-2.14021 9.081823,0.60749 0,0 1.272383,2.69319 3.863973,3.09112 10.21133,1.56872 23.80589,-13.75568 13.01565,-21.81383 -0.77946,-0.58156 -1.89997,-0.78846 -3.13902,-0.95568 -6.72306,-0.90329 -8.74606,2.21377 -14.191453,-5.56233 -5.445125,-7.77611 -12.372446,3.68405 -16.873802,3.38084 -4.501357,-0.30321 -8.491273,-1.56236 -11.891434,3.26496 -3.40016,4.82732 3.015457,8.88153 8.732309,9.98696 z"
       fill="#b8c1c9"
       id="path454"
       style="stroke-width:0.264583" />
    <path
       d="m 112.69612,150.93838 0.2069,-0.32174 c -0.14155,-0.0918 -14.550226,-9.12309 -44.070847,-9.18924 v 0.38312 c 29.409496,0.0653 43.722127,9.03684 43.863947,9.12786 z"
       fill="#ffffff"
       id="path456"
       style="stroke-width:0.264583" />
    <path
       d="m 94.096177,139.946 c 3.816879,-3.58378 4.443412,-6.37381 4.468283,-6.4905 l -0.375443,-0.0799 c -0.0053,0.0275 -0.63553,2.80168 -4.355836,6.291 z"
       fill="#ffffff"
       id="path458"
       style="stroke-width:0.264583" />
    <path
       d="m 93.509331,144.08593 c 1.052513,-1.94839 0.890588,-4.7199 -0.469106,-8.01502 -0.645848,-1.5449 -1.442508,-3.02233 -2.37834,-4.41113 l -0.312737,0.2196 c 0.05239,0.0746 5.243777,7.54565 2.823369,12.02531 z"
       fill="#ffffff"
       id="path460"
       style="stroke-width:0.264583" />
    <path
       d="m 85.730052,143.58587 c 0.454554,-0.39687 0.700088,-0.65431 0.7112,-0.66622 l -0.27596,-0.26088 c -0.05159,0.0542 -5.217054,5.46021 -13.011944,5.39142 v 0.38232 c 6.274065,0.0558 10.881254,-3.36709 12.576704,-4.84664 z"
       fill="#ffffff"
       id="path462"
       style="stroke-width:0.264583" />
    <path
       d="m 82.091767,152.5108 c 1.734873,-2.02169 2.200539,-4.0095 2.285206,-5.32369 0.09181,-1.4306 -0.227277,-2.37357 -0.240242,-2.413 l -0.362479,0.12489 c 0.01191,0.036 1.204383,3.66659 -1.973262,7.36256 z"
       fill="#ffffff"
       id="path464"
       style="stroke-width:0.264583" />
    <path
       d="m 154.75693,151.00188 v -11.74406 h -23.71487 v 11.74406 c 0,3.0517 -2.03332,5.52556 -4.54104,5.52556 h -0.95594 v 1.51632 h 34.70989 v -1.51632 h -0.95514 c -2.50825,0 -4.5429,-2.47386 -4.5429,-5.52556 z"
       fill="#00a3fe"
       id="path466"
       style="stroke-width:0.264583" />
    <path
       d="m 160.05918,158.04376 h -34.3199 c -0.20134,0 -0.39423,-0.0799 -0.53657,-0.22225 -0.14235,-0.14208 -0.22252,-0.33496 -0.22252,-0.53604 v 0 c 0,-0.20109 0.0802,-0.39397 0.22252,-0.53605 0.14234,-0.14208 0.33523,-0.22198 0.53657,-0.22198 h 34.3199 c 0.20373,0 0.39423,0.0799 0.53711,0.22198 0.14287,0.14208 0.22225,0.33496 0.22225,0.53605 v 0 c 0,0.20108 -0.0794,0.39396 -0.22225,0.53604 -0.14288,0.14235 -0.33338,0.22225 -0.53711,0.22225 z"
       fill="#016eb9"
       id="path468"
       style="stroke-width:0.264583" />
    <path
       d="m 183.29489,146.46771 -80.19494,-0.9189 c -0.82497,-0.01 -1.6129,-0.34395 -2.19287,-0.93001 -0.57997,-0.58605 -0.9054,-1.37689 -0.90567,-2.2008 V 93.524588 c 2.7e-4,-0.82206 0.32385,-1.610783 0.90144,-2.196571 0.57732,-0.585523 1.36234,-0.92075 2.18519,-0.933185 l 79.16175,-1.211263 c 0.82814,-0.0127 1.62718,0.302948 2.22514,0.877888 0.59531,0.574675 0.93927,1.362075 0.95515,2.189427 l 1.03452,51.022516 c 0.008,0.41936 -0.0662,0.83635 -0.22225,1.22581 -0.15611,0.38947 -0.38894,0.74375 -0.68527,1.04167 -0.29634,0.29792 -0.64823,0.53366 -1.03717,0.69268 -0.38629,0.15928 -0.80433,0.23892 -1.22502,0.23415 z"
       fill="#016eb9"
       id="path470"
       style="stroke-width:0.264583" />
    <path
       d="m 180.58026,94.109053 h -75.79042 c -0.92816,0 -1.68063,0.751681 -1.68063,1.679046 v 39.304121 c 0,0.9271 0.75247,1.67878 1.68063,1.67878 h 75.79042 c 0.92605,0 1.68011,-0.75168 1.68011,-1.67878 V 95.788099 c 0,-0.927365 -0.75406,-1.679046 -1.68011,-1.679046 z"
       fill="#eaeaea"
       id="path472"
       style="stroke-width:0.264583" />
    <path
       d="m 150.95222,80.77617 0.99484,-0.02672 c 0.0926,-0.0024 0.17991,-0.02249 0.26458,-0.05927 0.082,-0.03704 0.1561,-0.08969 0.2196,-0.155575 0.0609,-0.06562 0.11113,-0.142875 0.14288,-0.227542 0.0317,-0.0844 0.0476,-0.174625 0.045,-0.265113 l -0.0317,-1.211262 c -0.005,-0.182563 -0.082,-0.355865 -0.21431,-0.481806 -0.13494,-0.125677 -0.31221,-0.193675 -0.49478,-0.188913 l -0.70379,0.01931 c -0.14816,0.0037 -0.29368,-0.04022 -0.41539,-0.125413 -0.12171,-0.08493 -0.21167,-0.206639 -0.25929,-0.346869 -0.0185,-0.0553 -0.0371,-0.110331 -0.0582,-0.16457 -0.0476,-0.13044 -0.0529,-0.271992 -0.0185,-0.4064 0.0344,-0.134144 0.11112,-0.254529 0.21431,-0.345282 l 0.48154,-0.420952 c 0.13758,-0.12065 0.22225,-0.290777 0.23548,-0.473604 0.0106,-0.182562 -0.0503,-0.362479 -0.16933,-0.500327 l -0.79905,-0.910696 c -0.0608,-0.06826 -0.13229,-0.124089 -0.21431,-0.164306 -0.082,-0.04022 -0.16933,-0.06403 -0.25929,-0.07012 -0.09,-0.0061 -0.18256,0.0058 -0.26723,0.03493 -0.0847,0.02884 -0.16404,0.07461 -0.23283,0.134144 l -0.48419,0.420952 c -0.10319,0.09155 -0.23283,0.149225 -0.37042,0.165629 -0.13758,0.01641 -0.27781,-0.0093 -0.39952,-0.07382 -0.0503,-0.02672 -0.10318,-0.05318 -0.1561,-0.07805 -0.13229,-0.06456 -0.24077,-0.170392 -0.30956,-0.30189 -0.0688,-0.131498 -0.0926,-0.281517 -0.0688,-0.427831 l 0.11113,-0.69559 c 0.0291,-0.180446 -0.0132,-0.365125 -0.12171,-0.513291 -0.10848,-0.148167 -0.26987,-0.247915 -0.44979,-0.277019 l -1.19592,-0.192881 c -0.17991,-0.02884 -0.36512,0.01508 -0.51329,0.122237 -0.14817,0.107156 -0.24871,0.268817 -0.27781,0.449263 l -0.15875,0.98425 c -0.0212,0.129116 -0.0794,0.249502 -0.16669,0.347133 -0.0873,0.09763 -0.20108,0.168275 -0.32808,0.204258 -0.21961,0.06271 -0.43392,0.141023 -0.64294,0.234156 -0.13494,0.06165 -0.2884,0.07832 -0.43392,0.04736 -0.14552,-0.03096 -0.27516,-0.107686 -0.3757,-0.219075 l -0.51594,-0.590021 c -0.0609,-0.06826 -0.13229,-0.12409 -0.21431,-0.164306 -0.0794,-0.04022 -0.16934,-0.06403 -0.2593,-0.07012 -0.09,-0.0061 -0.17991,0.0058 -0.26723,0.03493 -0.0847,0.02884 -0.16404,0.07461 -0.23283,0.134409 l -0.91281,0.797454 c -0.13758,0.12065 -0.22225,0.290777 -0.23283,0.473339 -0.0132,0.182563 0.0476,0.362215 0.16933,0.499798 l 0.69321,0.794015 c 0.09,0.09869 0.14552,0.220398 0.16668,0.350573 0.0212,0.130439 0.003,0.263789 -0.0503,0.384704 -0.0265,0.05874 -0.0503,0.118533 -0.0741,0.178064 -0.0503,0.124884 -0.13758,0.232305 -0.24606,0.309034 -0.11113,0.07646 -0.24077,0.119062 -0.37571,0.121973 l -1.12713,0.02963 c -0.18256,0.005 -0.35454,0.08229 -0.48154,0.215371 -0.127,0.132821 -0.19314,0.310091 -0.18785,0.492919 l 0.0318,1.211262 c 0.005,0.182827 0.082,0.355865 0.21431,0.481806 0.13229,0.125677 0.30956,0.193675 0.49213,0.188913 l 0.96837,-0.02567 c 0.14552,-0.0037 0.28575,0.0381 0.40746,0.119327 0.11906,0.08123 0.20902,0.198173 0.25929,0.33364 v 0.0093 c 0.0476,0.130704 0.0556,0.272785 0.0212,0.407722 -0.0344,0.134938 -0.10848,0.256117 -0.21431,0.347663 l -0.68263,0.597429 c -0.0688,0.05953 -0.12435,0.132292 -0.16404,0.213519 -0.0423,0.08123 -0.0661,0.169598 -0.0714,0.260085 -0.005,0.09049 0.005,0.18124 0.0344,0.266965 0.0291,0.08599 0.0767,0.165364 0.13493,0.233362 l 0.79905,0.911754 c 0.0608,0.068 0.13229,0.123825 0.21431,0.164042 0.082,0.03995 0.16933,0.06377 0.26194,0.06985 0.09,0.0058 0.17991,-0.0061 0.26458,-0.03519 0.0873,-0.0291 0.16669,-0.07488 0.23548,-0.134408 l 0.68262,-0.597429 c 0.10319,-0.09207 0.23284,-0.150019 0.37307,-0.166423 0.13758,-0.0164 0.27781,0.0095 0.40216,0.07461 l 0.008,0.0056 c 0.12965,0.06694 0.23283,0.172243 0.29633,0.30136 0.0662,0.129117 0.09,0.275431 0.0662,0.418042 l -0.15346,0.953029 c -0.0132,0.08943 -0.0106,0.180975 0.0106,0.269081 0.0212,0.08837 0.0582,0.171715 0.11113,0.245004 0.0529,0.07355 0.12171,0.135996 0.19844,0.183357 0.0767,0.04762 0.16404,0.07937 0.25135,0.09366 l 1.19592,0.192087 c 0.18256,0.02884 0.36777,-0.01508 0.51594,-0.122237 0.14816,-0.107157 0.24606,-0.268817 0.27781,-0.449263 l 0.17727,-1.110192 c 0.0212,-0.132556 0.0794,-0.256381 0.17198,-0.3556 0.09,-0.09948 0.20637,-0.169862 0.33866,-0.202935 0.0609,-0.01561 0.12436,-0.03228 0.18257,-0.05053 0.127,-0.03651 0.26193,-0.03572 0.38629,0.0016 0.127,0.03757 0.23812,0.110331 0.32544,0.20955 l 0.69585,0.794015 c 0.0582,0.06826 0.13229,0.124089 0.21167,0.164041 0.082,0.04022 0.17198,0.06403 0.26193,0.06985 0.09,0.0061 0.17992,-0.0058 0.26723,-0.03493 0.0847,-0.0291 0.16405,-0.07488 0.23284,-0.134673 l 0.91281,-0.797454 c 0.0688,-0.0598 0.12435,-0.132291 0.16404,-0.213519 0.0423,-0.08123 0.0635,-0.169333 0.0714,-0.25982 0.005,-0.09049 -0.005,-0.180975 -0.037,-0.266965 -0.0291,-0.08572 -0.0741,-0.164835 -0.13229,-0.233098 l -0.51859,-0.590814 c -0.0979,-0.111919 -0.1561,-0.252413 -0.16669,-0.40058 -0.0132,-0.148166 0.0238,-0.295804 0.10319,-0.421745 0.11906,-0.193146 0.2249,-0.39423 0.31486,-0.601928 0.0529,-0.121972 0.14023,-0.226218 0.25135,-0.300302 0.11113,-0.07382 0.24077,-0.114564 0.37306,-0.116945 z m -3.29141,0.56515 c -1.05834,0.9271 -3.22527,0.663575 -4.15396,-0.395023 -0.92604,-1.058863 -0.55563,-2.84877 0.50271,-3.767667 1.06098,-0.919163 2.86808,-0.430213 3.79412,0.628385 0.92869,1.058598 0.91811,2.607205 -0.14287,3.533511 z"
       fill="#00a3fe"
       id="path474"
       style="stroke-width:0.264583" />
    <path
       d="m 145.79549,86.969801 c -0.037,2.64e-4 -0.0767,-0.0029 -0.11377,-0.0093 l -1.19591,-0.192088 c -0.0926,-0.01429 -0.17992,-0.0471 -0.2593,-0.09578 -0.0794,-0.04895 -0.15081,-0.112977 -0.20372,-0.188648 -0.0556,-0.07567 -0.0952,-0.161395 -0.11642,-0.252412 -0.0212,-0.09075 -0.0238,-0.184944 -0.0106,-0.277283 l 0.15345,-0.952765 c 0.0238,-0.138642 0.003,-0.280723 -0.0608,-0.406135 -0.0635,-0.125413 -0.16404,-0.228071 -0.2884,-0.293423 h -0.0106 c -0.11906,-0.06218 -0.254,-0.08678 -0.38894,-0.07038 -0.13493,0.0164 -0.26193,0.07303 -0.36248,0.162454 l -0.68262,0.597164 c -0.0714,0.06165 -0.15081,0.108744 -0.24077,0.138642 -0.0873,0.0299 -0.18256,0.04207 -0.27517,0.03598 -0.0926,-0.0061 -0.18521,-0.03043 -0.26723,-0.0717 -0.0847,-0.04154 -0.15875,-0.09869 -0.2196,-0.169069 l -0.79904,-0.912548 c -0.0635,-0.07012 -0.11113,-0.151606 -0.14023,-0.239977 -0.0291,-0.08864 -0.0423,-0.182033 -0.037,-0.275166 0.008,-0.09313 0.0317,-0.18415 0.0741,-0.267759 0.0397,-0.08361 0.0979,-0.158221 0.16933,-0.219604 l 0.68263,-0.597164 c 0.10054,-0.08996 0.17462,-0.208228 0.20637,-0.339196 0.0317,-0.131234 0.0265,-0.269346 -0.0212,-0.396082 v -0.0093 c -0.0476,-0.131233 -0.13494,-0.244475 -0.25136,-0.32332 -0.11642,-0.07885 -0.254,-0.119327 -0.39423,-0.115888 l -0.96573,0.02567 c -0.18785,0.0048 -0.37041,-0.06535 -0.508,-0.195262 -0.13758,-0.129646 -0.21696,-0.30824 -0.22225,-0.496623 l -0.0318,-1.211264 c -0.005,-0.188118 0.0661,-0.370416 0.19579,-0.506941 0.12965,-0.13679 0.30692,-0.216429 0.49742,-0.221721 l 1.12448,-0.03016 c 0.12965,-0.0026 0.25665,-0.04366 0.36248,-0.118004 0.10848,-0.07408 0.1905,-0.178329 0.24077,-0.299243 0.0238,-0.06059 0.0476,-0.120386 0.0741,-0.179123 0.0503,-0.116946 0.0688,-0.245798 0.0476,-0.371475 -0.0185,-0.125942 -0.0741,-0.243417 -0.15875,-0.338932 l -0.69586,-0.794014 c -0.12435,-0.141817 -0.18785,-0.327025 -0.17462,-0.514879 0.0132,-0.188119 0.10054,-0.363538 0.24077,-0.487627 l 0.91281,-0.797719 c 0.0688,-0.06165 0.15082,-0.108744 0.24077,-0.138642 0.0873,-0.0299 0.17992,-0.04207 0.27517,-0.03598 0.0926,0.0064 0.18256,0.03096 0.26723,0.07223 0.0847,0.04154 0.15875,0.09922 0.2196,0.169598 l 0.51594,0.589756 c 0.0953,0.108479 0.2249,0.183357 0.36513,0.213254 0.14287,0.03016 0.28839,0.01349 0.42068,-0.04683 0.20902,-0.09313 0.42334,-0.171979 0.64294,-0.235214 0.12436,-0.03519 0.23283,-0.104246 0.3175,-0.199232 0.0873,-0.09498 0.14288,-0.211931 0.16404,-0.337343 l 0.15875,-0.98425 c 0.0291,-0.186002 0.13229,-0.352425 0.28575,-0.462757 0.15082,-0.110331 0.34132,-0.15531 0.52917,-0.125412 l 1.19592,0.192087 c 0.1852,0.03016 0.35189,0.133086 0.46302,0.28575 0.11112,0.15293 0.1561,0.343165 0.127,0.529432 l -0.11377,0.694531 c -0.0238,0.142081 0,0.287867 0.0661,0.41566 0.0661,0.127794 0.17198,0.230452 0.30163,0.292894 0.0529,0.02487 0.10583,0.05159 0.1561,0.07805 0.11906,0.06191 0.254,0.08625 0.38894,0.06985 0.13229,-0.0164 0.25929,-0.07276 0.35983,-0.16166 l 0.48154,-0.420952 c 0.14288,-0.123825 0.32809,-0.186267 0.51594,-0.173832 0.18786,0.0127 0.36248,0.09922 0.48683,0.241036 l 0.79905,0.910696 c 0.0609,0.07011 0.10848,0.151606 0.14023,0.239977 0.0291,0.08837 0.0423,0.181768 0.0344,0.274902 -0.005,0.09313 -0.0291,0.18415 -0.0714,0.267758 -0.0423,0.08361 -0.0979,0.158486 -0.16933,0.219869 l -0.48154,0.421746 c -0.10054,0.08811 -0.17463,0.205052 -0.20902,0.334962 -0.0317,0.130175 -0.0265,0.267494 0.0185,0.3937 0.0212,0.0553 0.0397,0.110331 0.0582,0.165365 0.045,0.137054 0.13229,0.255852 0.25135,0.338666 0.11642,0.08282 0.25929,0.125413 0.40217,0.120915 l 0.70644,-0.01932 c 0.18785,-0.0048 0.37041,0.06535 0.508,0.194998 0.13493,0.129382 0.21431,0.307975 0.2196,0.496094 l 0.0344,1.211263 c 0.005,0.188119 -0.0661,0.370417 -0.1958,0.506942 -0.12964,0.13679 -0.30691,0.216429 -0.49477,0.221721 l -0.99748,0.02752 c -0.12964,0.004 -0.25135,0.04418 -0.35718,0.115623 -0.10584,0.0717 -0.1905,0.171714 -0.24077,0.28866 -0.0926,0.209285 -0.19844,0.411692 -0.3175,0.605631 -0.0767,0.121973 -0.11378,0.265377 -0.10055,0.409046 0.0106,0.143669 0.0661,0.279929 0.1614,0.388673 l 0.51858,0.590815 c 0.0609,0.07012 0.10848,0.15187 0.13759,0.240241 0.0291,0.08837 0.0423,0.181769 0.037,0.274638 -0.008,0.09313 -0.0318,0.18415 -0.0714,0.267758 -0.0423,0.08387 -0.10054,0.158486 -0.16933,0.219869 l -0.91811,0.795867 c -0.0688,0.06165 -0.15081,0.108743 -0.24077,0.138641 -0.0873,0.0299 -0.17991,0.04207 -0.27516,0.03598 -0.0926,-0.0064 -0.18257,-0.03096 -0.26723,-0.07223 -0.0847,-0.04154 -0.15875,-0.09922 -0.21961,-0.169598 l -0.69585,-0.79375 c -0.082,-0.09604 -0.19315,-0.166423 -0.31486,-0.202671 -0.1217,-0.03625 -0.25135,-0.03704 -0.3757,-0.0024 -0.0609,0.01852 -0.12436,0.03598 -0.18257,0.05159 -0.127,0.03175 -0.24077,0.100013 -0.32808,0.196321 -0.09,0.09631 -0.14552,0.216165 -0.16669,0.344752 l -0.17727,1.110192 c -0.0291,0.166687 -0.11377,0.318029 -0.24342,0.427037 -0.12964,0.108744 -0.29368,0.168275 -0.46302,0.167482 z m -2.41564,-2.793471 c 0.11377,-2.65e-4 0.22754,0.02752 0.32808,0.0807 l 0.0106,0.0048 c 0.12965,0.06985 0.23548,0.178858 0.30163,0.312208 0.0662,0.133086 0.09,0.283634 0.0662,0.430213 l -0.15346,0.953029 c -0.0291,0.174625 0.0132,0.353483 0.11641,0.497417 0.10319,0.143668 0.2593,0.24077 0.43392,0.269875 l 1.19592,0.191029 c 0.17462,0.02805 0.35454,-0.01402 0.49741,-0.117475 0.14552,-0.103188 0.24077,-0.259292 0.26988,-0.433917 l 0.17992,-1.109927 c 0.0212,-0.137054 0.082,-0.264319 0.17462,-0.366712 0.0926,-0.102394 0.21431,-0.17489 0.34925,-0.208757 0.0609,-0.01561 0.12435,-0.03201 0.18521,-0.05053 0.12964,-0.03757 0.26987,-0.03704 0.39952,0.0016 0.12965,0.03836 0.24606,0.113507 0.33602,0.216429 l 0.69585,0.79375 c 0.0582,0.06615 0.127,0.120386 0.20638,0.15928 0.0794,0.03889 0.16404,0.06191 0.25135,0.06773 0.09,0.0058 0.17727,-0.0056 0.2593,-0.03387 0.0847,-0.02831 0.16139,-0.0725 0.22754,-0.13044 l 0.91281,-0.797719 c 0.13229,-0.116681 0.21431,-0.281781 0.22754,-0.458787 0.0106,-0.177007 -0.0476,-0.351367 -0.16404,-0.484982 l -0.51858,-0.590814 c -0.10055,-0.115358 -0.1614,-0.260085 -0.17463,-0.41275 -0.0106,-0.152665 0.0265,-0.305065 0.10848,-0.43471 0.11906,-0.192353 0.2249,-0.392907 0.31485,-0.600075 0.0556,-0.12409 0.14288,-0.230188 0.254,-0.306388 0.11378,-0.07594 0.24607,-0.118533 0.381,-0.122767 l 0.99484,-0.02752 c 0.17727,-0.005 0.3466,-0.08017 0.46831,-0.208756 0.12171,-0.128587 0.18785,-0.300302 0.18256,-0.477573 l -0.0318,-1.210204 c -0.005,-0.177535 -0.0794,-0.34581 -0.20902,-0.467783 -0.127,-0.122238 -0.29898,-0.188384 -0.47625,-0.183886 l -0.70644,0.01932 c -0.15345,0.0042 -0.30162,-0.04075 -0.42862,-0.128323 -0.12435,-0.08758 -0.21696,-0.21299 -0.26458,-0.357717 -0.0185,-0.0553 -0.0371,-0.109537 -0.0582,-0.163512 -0.0476,-0.134408 -0.0556,-0.280194 -0.0185,-0.418571 0.0344,-0.138377 0.11112,-0.262467 0.2196,-0.356129 l 0.48154,-0.420952 c 0.0661,-0.05794 0.12171,-0.128323 0.15875,-0.207169 0.0397,-0.07885 0.0635,-0.164571 0.0688,-0.252148 0.005,-0.08784 -0.005,-0.175948 -0.0344,-0.259027 -0.0265,-0.08334 -0.0714,-0.160337 -0.12965,-0.226219 l -0.79904,-0.911754 c -0.11642,-0.132821 -0.2831,-0.214048 -0.46037,-0.225954 -0.17727,-0.01164 -0.3519,0.0471 -0.48419,0.163513 l -0.48154,0.420952 c -0.10848,0.09419 -0.24077,0.153723 -0.38365,0.17092 -0.14023,0.0172 -0.28575,-0.0087 -0.41275,-0.07461 -0.0503,-0.02646 -0.10054,-0.05318 -0.15346,-0.07805 -0.13758,-0.06615 -0.25135,-0.175154 -0.32014,-0.310621 -0.0714,-0.135467 -0.0952,-0.290248 -0.0714,-0.44106 l 0.11377,-0.694796 c 0.0265,-0.174625 -0.0159,-0.353748 -0.11906,-0.497417 -0.10319,-0.143933 -0.25929,-0.241035 -0.43392,-0.269875 l -1.19592,-0.192881 c -0.17462,-0.02778 -0.35454,0.01429 -0.49741,0.117739 -0.14288,0.103188 -0.24077,0.259028 -0.26988,0.433653 l -0.15875,0.98425 c -0.0238,0.13335 -0.082,0.257704 -0.17198,0.358775 -0.0899,0.100806 -0.20902,0.17436 -0.33866,0.211666 -0.21696,0.06271 -0.43127,0.140759 -0.63765,0.233627 -0.14023,0.0635 -0.29633,0.0807 -0.4445,0.04842 -0.15081,-0.03201 -0.28575,-0.111654 -0.38894,-0.226748 l -0.51593,-0.590021 c -0.0582,-0.06615 -0.127,-0.120121 -0.20638,-0.159279 -0.0794,-0.03889 -0.16404,-0.06191 -0.254,-0.06773 -0.0873,-0.0058 -0.17462,0.0058 -0.25664,0.03387 -0.0847,0.02831 -0.1614,0.07276 -0.22755,0.130705 l -0.91281,0.797718 c -0.13229,0.116682 -0.21431,0.281782 -0.22489,0.458788 -0.0132,0.176742 0.045,0.351102 0.16139,0.484981 l 0.69586,0.79375 c 0.0899,0.1016 0.14816,0.226219 0.16933,0.359833 0.0212,0.133615 0.005,0.270669 -0.0503,0.394759 -0.0238,0.05794 -0.0503,0.117475 -0.0741,0.177271 -0.0503,0.129381 -0.14022,0.240506 -0.254,0.319352 -0.11641,0.07911 -0.25135,0.122502 -0.38893,0.124618 l -1.12713,0.03016 c -0.0873,0.0024 -0.17462,0.02196 -0.254,0.05768 -0.0794,0.03572 -0.15346,0.08678 -0.21431,0.150548 -0.0582,0.06377 -0.10583,0.138906 -0.13758,0.220927 -0.0318,0.08202 -0.0476,0.169598 -0.045,0.25744 l 0.0318,1.210997 c 0.005,0.177536 0.082,0.345811 0.20902,0.467784 0.12964,0.122237 0.30162,0.188383 0.47889,0.183885 l 0.96838,-0.02567 c 0.14817,-0.0042 0.29369,0.03863 0.41804,0.122238 0.12171,0.08361 0.21696,0.203729 0.26723,0.343693 v 0.0071 c 0.0503,0.134938 0.0582,0.281782 0.0212,0.420953 -0.0344,0.13917 -0.11113,0.264583 -0.21961,0.359304 l -0.68527,0.597429 c -0.0661,0.05768 -0.11906,0.128058 -0.15875,0.206904 -0.0397,0.07885 -0.0608,0.164571 -0.0661,0.252413 -0.008,0.08758 0.005,0.175683 0.0317,0.259027 0.0291,0.08334 0.0741,0.160072 0.13229,0.226218 l 0.79904,0.91149 c 0.0582,0.06641 0.127,0.120385 0.20637,0.159279 0.0794,0.03916 0.16669,0.06218 0.254,0.068 0.0873,0.0058 0.17463,-0.0058 0.2593,-0.03413 0.082,-0.02831 0.15875,-0.0725 0.22489,-0.13044 l 0.68263,-0.597429 c 0.13229,-0.115623 0.30427,-0.178329 0.48154,-0.175418 z"
       fill="#131f2d"
       id="path476"
       style="stroke-width:0.264583" />
    <g
       opacity="0.6"
       id="g480"
       transform="matrix(0.26458333,0,0,0.26458333,-125.80194,44.12688)">
      <path
         d="M 1136.68,208.029 H 892.495 c -3.492,0 -6.322,2.827 -6.322,6.314 v 41.484 c 0,3.487 2.83,6.314 6.322,6.314 h 244.185 c 3.49,0 6.32,-2.827 6.32,-6.314 v -41.484 c 0,-3.487 -2.83,-6.314 -6.32,-6.314 z"
         fill="#d5d6da"
         id="path478" />
    </g>
    <g
       opacity="0.6"
       id="g484"
       transform="matrix(0.26458333,0,0,0.26458333,-125.80194,44.12688)">
      <path
         d="m 1139.16,278.656 h -117.91 c -0.24,0 -0.48,-0.047 -0.7,-0.139 -0.22,-0.092 -0.42,-0.227 -0.59,-0.396 -0.17,-0.17 -0.31,-0.372 -0.4,-0.593 -0.09,-0.222 -0.14,-0.459 -0.14,-0.699 v -1.077 c 0,-0.241 0.05,-0.48 0.14,-0.702 0.1,-0.223 0.23,-0.425 0.4,-0.594 0.18,-0.17 0.38,-0.305 0.6,-0.396 0.23,-0.091 0.46,-0.136 0.71,-0.135 l 117.91,1.087 c 0.48,0.005 0.94,0.199 1.28,0.54 0.34,0.342 0.53,0.803 0.53,1.284 v 0 c 0,0.483 -0.19,0.946 -0.54,1.287 -0.34,0.341 -0.8,0.533 -1.29,0.533 z"
         fill="#d5d6da"
         id="path482" />
    </g>
    <path
       d="m 173.26718,105.76395 h -20.93383 v -0.79296 l 20.93383,0.18548 z"
       fill="#657285"
       id="path486"
       style="stroke-width:0.264583" />
    <path
       d="m 161.68372,107.54856 h -9.35037 v -0.79295 l 9.35037,0.18653 z"
       fill="#00a3fe"
       id="path488"
       style="stroke-width:0.264583" />
    <path
       d="m 164.71849,111.41016 h -12.38514 v -0.79402 l 12.38514,0.18653 z"
       fill="#00a3fe"
       id="path490"
       style="stroke-width:0.264583" />
    <path
       d="m 161.68372,109.61999 h -9.35037 v -0.79322 l 9.35037,0.18653 z"
       fill="#5c305d"
       id="path492"
       style="stroke-width:0.264583" />
    <path
       d="m 168.50204,109.61999 h -5.47953 v -0.79322 l 5.47953,0.18653 z"
       fill="#657285"
       id="path494"
       style="stroke-width:0.264583" />
    <path
       d="m 172.37024,107.54856 h -9.34773 v -0.79295 l 9.34773,0.18653 z"
       fill="#00a3fe"
       id="path496"
       style="stroke-width:0.264583" />
    <g
       opacity="0.6"
       id="g500"
       transform="matrix(0.26458333,0,0,0.26458333,-125.80194,44.12688)">
      <path
         d="m 1139.34,289.155 -118.22,1.39 c -0.22,0.002 -0.44,-0.039 -0.65,-0.122 -0.2,-0.082 -0.39,-0.205 -0.54,-0.36 -0.16,-0.156 -0.29,-0.341 -0.37,-0.545 -0.09,-0.204 -0.13,-0.423 -0.13,-0.644 v -1.389 c 0,-0.442 0.18,-0.866 0.49,-1.179 0.31,-0.313 0.74,-0.488 1.18,-0.488 h 118.22 c 0.44,0 0.87,0.175 1.18,0.488 0.31,0.312 0.49,0.736 0.49,1.179 v 0 c 0,0.439 -0.17,0.861 -0.48,1.174 -0.31,0.312 -0.73,0.491 -1.17,0.496 z"
         fill="#d5d6da"
         id="path498" />
    </g>
    <g
       opacity="0.6"
       id="g504"
       transform="matrix(0.26458333,0,0,0.26458333,-125.80194,44.12688)">
      <path
         d="m 951.757,325.842 h -64.7 v -3.848 l 63.647,0.875 c 0.533,0.008 1.042,0.225 1.416,0.604 0.375,0.38 0.584,0.892 0.583,1.425 v 0 c 0,0.25 -0.1,0.491 -0.277,0.668 -0.178,0.177 -0.418,0.276 -0.669,0.276 z"
         fill="#d5d6da"
         id="path502" />
    </g>
    <g
       opacity="0.6"
       id="g508"
       transform="matrix(0.26458333,0,0,0.26458333,-125.80194,44.12688)">
      <path
         d="m 971.98,335.244 -83.859,1.119 c -0.139,0.002 -0.277,-0.022 -0.406,-0.074 -0.129,-0.051 -0.246,-0.127 -0.346,-0.224 -0.099,-0.097 -0.177,-0.213 -0.231,-0.341 -0.054,-0.127 -0.081,-0.265 -0.081,-0.403 v -1.702 c 0,-0.276 0.11,-0.542 0.305,-0.737 0.196,-0.195 0.461,-0.305 0.738,-0.305 h 83.859 c 0.276,0 0.542,0.11 0.737,0.305 0.196,0.195 0.306,0.461 0.306,0.737 v 0.583 c 0,0.273 -0.107,0.535 -0.298,0.73 -0.192,0.195 -0.451,0.307 -0.724,0.312 z"
         fill="#d5d6da"
         id="path506" />
    </g>
    <g
       opacity="0.6"
       id="g512"
       transform="matrix(0.26458333,0,0,0.26458333,-125.80194,44.12688)">
      <path
         d="m 1038.8,335.255 -58.667,1.097 c -0.179,0.003 -0.357,-0.029 -0.524,-0.095 -0.166,-0.067 -0.318,-0.165 -0.446,-0.291 -0.127,-0.125 -0.229,-0.275 -0.298,-0.44 -0.07,-0.165 -0.105,-0.342 -0.105,-0.521 v -1.094 c 0,-0.358 0.142,-0.701 0.395,-0.953 0.253,-0.253 0.596,-0.395 0.954,-0.395 h 58.691 c 0.36,0.001 0.7,0.143 0.95,0.396 0.25,0.253 0.4,0.595 0.4,0.952 0,0.356 -0.15,0.698 -0.4,0.95 -0.25,0.252 -0.59,0.394 -0.95,0.394 z"
         fill="#d5d6da"
         id="path510" />
    </g>
    <g
       opacity="0.6"
       id="g516"
       transform="matrix(0.26458333,0,0,0.26458333,-125.80194,44.12688)">
      <path
         d="m 1139.34,304.357 -118.22,1.39 c -0.22,0.002 -0.44,-0.039 -0.65,-0.122 -0.2,-0.082 -0.39,-0.205 -0.54,-0.36 -0.16,-0.156 -0.29,-0.341 -0.37,-0.545 -0.09,-0.204 -0.13,-0.423 -0.13,-0.644 v -1.389 c 0,-0.442 0.18,-0.866 0.49,-1.179 0.31,-0.313 0.74,-0.488 1.18,-0.488 h 118.22 c 0.44,0 0.87,0.175 1.18,0.488 0.31,0.312 0.49,0.736 0.49,1.179 v 0 c 0,0.439 -0.17,0.861 -0.48,1.174 -0.31,0.312 -0.73,0.491 -1.17,0.496 z"
         fill="#d5d6da"
         id="path514" />
    </g>
    <path
       d="m 122.87173,115.4395 h -12.73492 c -0.81307,0 -1.47215,0.65828 -1.47215,1.47029 v 7.95549 c 0,0.812 0.65908,1.47029 1.47215,1.47029 h 12.73492 c 0.81306,0 1.47188,-0.65829 1.47188,-1.47029 v -7.95549 c 0,-0.81201 -0.65882,-1.47029 -1.47188,-1.47029 z"
       fill="#d5d6da"
       id="path518"
       style="stroke-width:0.264583" />
    <g
       opacity="0.6"
       id="g522"
       transform="matrix(0.26458333,0,0,0.26458333,-125.80194,44.12688)">
      <path
         d="m 1001.68,269.528 h -43.56 c -2.614,0 -4.732,2.117 -4.732,4.727 v 31.728 c 0,2.61 2.118,4.727 4.732,4.727 h 43.56 c 2.61,0 4.73,-2.117 4.73,-4.727 v -31.728 c 0,-2.61 -2.12,-4.727 -4.73,-4.727 z"
         fill="#d5d6da"
         id="path520" />
    </g>
    <path
       d="m 123.30512,132.3895 c -0.0839,4.53681 -0.41143,10.74711 -1.44357,16.19276 -1.71926,9.08659 -12.3063,15.32044 -14.25945,16.40205 -0.0952,0.0526 -0.20161,0.0823 -0.31036,0.0865 -0.10874,0.004 -0.21696,-0.0172 -0.31591,-0.0624 C 90.416352,157.40958 90.67485,145.8621 90.67485,145.8621 v -13.56254 c 0,-0.18309 0.07197,-0.35904 0.200554,-0.48948 0.128588,-0.13044 0.303477,-0.20505 0.486569,-0.20796 2.521744,-0.0415 11.315697,-0.51567 15.159307,-5.02497 0.0627,-0.0728 0.13996,-0.13176 0.22674,-0.17304 0.0868,-0.0415 0.18124,-0.0646 0.27755,-0.0675 0.096,-0.003 0.19182,0.0135 0.28099,0.0495 0.0894,0.0357 0.17039,0.0894 0.23759,0.15796 1.65603,1.6809 7.05432,6.34074 15.73133,5.84729 z"
       fill="#00a3fe"
       id="path524"
       style="stroke-width:0.264583" />
    <path
       d="m 107.25179,162.7761 c -0.0109,-2.6e-4 -0.0214,-0.002 -0.0315,-0.006 -3.37608,-1.51998 -6.24284,-3.35407 -8.52249,-5.45486 -1.824302,-1.68064 -3.277658,-3.5351 -4.323821,-5.51366 -1.777206,-3.36682 -1.740429,-5.95735 -1.740429,-5.98328 V 134.451 c -0.0021,-0.31009 0.117475,-0.6088 0.333111,-0.83211 0.215635,-0.22331 0.510116,-0.35322 0.820473,-0.36248 1.23825,-0.0423 3.689879,-0.20585 6.186752,-0.83423 2.978674,-0.7501 5.174724,-1.92987 6.531764,-3.50494 0.0632,-0.0746 0.14129,-0.13494 0.2294,-0.17753 0.0881,-0.0426 0.18388,-0.0661 0.28178,-0.0696 0.0976,-0.003 0.195,0.014 0.28575,0.0505 0.0905,0.0365 0.17251,0.0915 0.24077,0.16166 0.91996,0.94456 3.39381,3.24008 6.56193,4.14522 1.96929,0.54928 3.996,0.86704 6.03885,0.94748 0.30295,0.0127 0.5887,0.1434 0.7964,0.36406 0.20743,0.22093 0.32014,0.51409 0.31379,0.81677 -0.13229,5.3004 -0.51699,9.57183 -1.17739,13.05825 -0.381,2.00977 -1.288,4.02669 -2.70484,5.99334 -1.13056,1.57057 -2.58313,3.11335 -4.31826,4.58549 -1.78356,1.51421 -3.71528,2.8448 -5.76633,3.97166 -0.0108,0.007 -0.023,0.0111 -0.0357,0.0119 z m -0.21087,-33.95213 h -0.0183 c -0.077,0.003 -0.15267,0.0212 -0.22225,0.0545 -0.0693,0.0331 -0.13124,0.0802 -0.18177,0.13838 -1.3724,1.60099 -3.5941,2.79638 -6.60427,3.55362 -2.510628,0.63235 -4.97337,0.79666 -6.219028,0.83899 -0.270404,0.008 -0.526786,0.12145 -0.714904,0.31592 -0.187855,0.1942 -0.29263,0.45428 -0.291571,0.72442 v 11.37285 c 0,0.0275 -0.03572,2.58578 1.726935,5.92059 1.034786,1.95844 2.478352,3.7973 4.290748,5.46496 2.25848,2.07963 5.09826,3.89917 8.44232,5.40729 2.02962,-1.11918 3.9423,-2.43787 5.70945,-3.937 2.70828,-2.29711 6.11664,-5.98487 6.96966,-10.49046 0.65854,-3.47742 1.04219,-7.74118 1.17475,-13.03338 0.004,-0.26299 -0.0939,-0.51699 -0.27411,-0.70881 -0.18018,-0.19156 -0.4281,-0.3056 -0.69109,-0.31777 -2.05396,-0.0812 -4.09152,-0.40111 -6.07166,-0.95276 -3.20332,-0.91917 -5.70389,-3.23215 -6.62914,-4.18598 -0.0513,-0.0529 -0.11298,-0.0947 -0.18098,-0.12329 -0.068,-0.0283 -0.14102,-0.0426 -0.21484,-0.0421 z"
       fill="#131f2d"
       id="path526"
       style="stroke-width:0.264583" />
    <path
       d="m 110.8017,151.42071 h -10.47908 c -0.466464,-2.6e-4 -0.91361,-0.18574 -1.243281,-0.51514 -0.329935,-0.32941 -0.515408,-0.77602 -0.515672,-1.24169 v -6.45848 c 2.64e-4,-0.46593 0.185472,-0.91281 0.515408,-1.24248 0.329671,-0.32941 0.776816,-0.51488 1.243545,-0.51541 h 0.59055 c 0.25267,-1.04114 0.84851,-1.96744 1.69174,-2.6297 0.84323,-0.66251 1.88463,-1.02261 2.95725,-1.02261 1.07262,0 2.11429,0.3601 2.95725,1.02261 0.84322,0.66226 1.43907,1.58856 1.69174,2.6297 h 0.59055 c 0.46673,5.3e-4 0.91414,0.18574 1.24407,0.51541 0.32994,0.32967 0.51541,0.77655 0.51594,1.24248 v 6.45848 c -7.9e-4,0.46593 -0.18653,0.91255 -0.5162,1.24195 -0.32994,0.32914 -0.77735,0.51462 -1.24381,0.51488 z m -10.47908,-9.82239 c -0.426512,5.3e-4 -0.835293,0.17013 -1.136654,0.47149 -0.301624,0.30136 -0.470958,0.70961 -0.471487,1.13559 v 6.45848 c 5.29e-4,0.42571 0.170127,0.83397 0.471487,1.13533 0.301361,0.30109 0.710142,0.47043 1.136654,0.47095 h 10.47908 c 0.42651,-5.2e-4 0.83529,-0.16986 1.13692,-0.47095 0.30162,-0.3011 0.47148,-0.70935 0.47228,-1.13533 v -6.45848 c -5.3e-4,-0.42598 -0.17013,-0.8345 -0.47175,-1.13586 -0.30189,-0.30136 -0.71067,-0.47095 -1.13745,-0.47122 h -0.65034 c -0.0169,0 -0.0336,-0.006 -0.0468,-0.0161 -0.0135,-0.0106 -0.0228,-0.0254 -0.0267,-0.0418 -0.23522,-1.0205 -0.80989,-1.93093 -1.6301,-2.58286 -0.82021,-0.65194 -1.83727,-1.00701 -2.88555,-1.00701 -1.04828,0 -2.06533,0.35507 -2.88554,1.00701 -0.82021,0.65193 -1.39489,1.56236 -1.6301,2.58286 -0.004,0.0167 -0.0132,0.0315 -0.0265,0.0418 -0.0135,0.0106 -0.0302,0.0161 -0.0471,0.0161 z m 8.62541,0 h -6.77095 c -0.0116,0 -0.0233,-0.003 -0.0339,-0.008 -0.0106,-0.005 -0.0198,-0.013 -0.0267,-0.0225 -0.007,-0.01 -0.0119,-0.0204 -0.014,-0.032 -0.002,-0.0116 -0.001,-0.0238 0.002,-0.0352 0.22992,-0.73633 0.68924,-1.38007 1.31128,-1.837 0.62203,-0.4572 1.37398,-0.70379 2.1463,-0.70379 0.77231,0 1.52426,0.24659 2.1463,0.70379 0.62203,0.45693 1.08161,1.10067 1.31127,1.837 0.004,0.0114 0.005,0.0233 0.003,0.0349 -0.002,0.0116 -0.007,0.0228 -0.0138,0.0323 -0.007,0.01 -0.0161,0.0172 -0.0267,0.0225 -0.0106,0.005 -0.0222,0.008 -0.0341,0.008 z m -6.66697,-0.15081 h 6.56405 c -0.23521,-0.68236 -0.67786,-1.27423 -1.26603,-1.69333 -0.58817,-0.4191 -1.29249,-0.64453 -2.01507,-0.64453 -0.72258,0 -1.4269,0.22543 -2.01506,0.64453 -0.58817,0.4191 -1.03082,1.01097 -1.26604,1.69333 z"
       fill="#131f2d"
       id="path528"
       style="stroke-width:0.264583" />
    <path
       d="m 111.8222,140.50109 h -9.87213 c -0.99748,0 -1.80605,0.80751 -1.80605,1.80367 v 6.21506 c 0,0.99616 0.80857,1.80367 1.80605,1.80367 h 9.87213 c 0.99722,0 1.80578,-0.80751 1.80578,-1.80367 v -6.21506 c 0,-0.99616 -0.80856,-1.80367 -1.80578,-1.80367 z"
       fill="#131f2d"
       id="path530"
       style="stroke-width:0.264583" />
    <path
       d="m 106.8864,146.25922 c -0.9316,0 -1.84229,-0.27569 -2.61699,-0.79269 -0.77497,-0.517 -1.37875,-1.25174 -1.73541,-2.11138 -0.35665,-0.85989 -0.44979,-1.80604 -0.26828,-2.71859 0.18177,-0.91281 0.6305,-1.75128 1.28931,-2.4093 0.65881,-0.65801 1.49807,-1.10622 2.41194,-1.28772 0.91361,-0.18151 1.86082,-0.0884 2.72151,0.26802 0.86069,0.35613 1.59649,0.95938 2.11375,1.73329 0.51753,0.77364 0.79375,1.68354 0.79349,2.61408 -0.001,1.24725 -0.49795,2.4429 -1.38086,3.32475 -0.88292,0.88186 -2.07989,1.37795 -3.32846,1.37954 z m 0,-8.2468 c -0.70141,0 -1.38721,0.20744 -1.97035,0.59664 -0.58341,0.3892 -1.03823,0.94244 -1.30678,1.58962 -0.26855,0.64743 -0.33893,1.35969 -0.20214,2.04681 0.13679,0.68739 0.4744,1.31869 0.97049,1.81425 0.49583,0.49556 1.12766,0.83291 1.81584,0.9697 0.68791,0.13679 1.40097,0.0667 2.04919,-0.20135 0.64797,-0.26829 1.20201,-0.72231 1.59174,-1.30493 0.38973,-0.58261 0.59769,-1.26735 0.59769,-1.96823 -0.001,-0.93901 -0.37491,-1.83938 -1.03955,-2.50349 -0.66463,-0.6641 -1.5658,-1.03769 -2.50613,-1.03902 z"
       fill="#131f2d"
       id="path532"
       style="stroke-width:0.264583" />
    <path
       d="m 106.8864,145.79594 c -0.13017,-2.7e-4 -0.25479,-0.0521 -0.34687,-0.14394 -0.0921,-0.0921 -0.14393,-0.21669 -0.1442,-0.34687 V 142.926 c 2.7e-4,-0.12991 0.0521,-0.25453 0.1442,-0.3466 0.0921,-0.0921 0.2167,-0.14367 0.34687,-0.14394 v 0 c 0.13017,5.3e-4 0.25479,0.0524 0.3466,0.1442 0.0918,0.0921 0.14367,0.21643 0.14394,0.34634 v 2.37913 c -2.7e-4,0.12991 -0.0521,0.25453 -0.14394,0.34661 -0.0918,0.0918 -0.21643,0.14367 -0.3466,0.1442 z"
       fill="#00a3fe"
       id="path534"
       style="stroke-width:0.264583" />
    <path
       d="m 106.8864,147.95282 c 0.73131,0 1.32398,-0.59214 1.32398,-1.32239 0,-0.73051 -0.59267,-1.32239 -1.32398,-1.32239 -0.73104,0 -1.32371,0.59188 -1.32371,1.32239 0,0.73025 0.59267,1.32239 1.32371,1.32239 z"
       fill="#00a3fe"
       id="path536"
       style="stroke-width:0.264583" />
    <path
       d="m 130.96375,112.20391 c -0.0291,0 -0.0577,-0.007 -0.0836,-0.0201 l -1.8878,-0.94271 c -0.0222,-0.0109 -0.0423,-0.0259 -0.0585,-0.0442 -0.0164,-0.0185 -0.0288,-0.0402 -0.0368,-0.0635 -0.008,-0.0236 -0.0109,-0.0482 -0.009,-0.0728 0.002,-0.0246 0.009,-0.0487 0.0201,-0.0706 0.0109,-0.0222 0.0259,-0.0421 0.0444,-0.0585 0.0185,-0.0161 0.04,-0.0286 0.0635,-0.0365 0.0233,-0.008 0.0482,-0.0108 0.0728,-0.009 0.0246,0.002 0.0487,0.009 0.0707,0.0201 l 1.89045,0.94112 c 0.0418,0.0159 0.0762,0.0463 0.0974,0.0855 0.0209,0.0394 0.0267,0.0852 0.0164,0.12858 -0.0101,0.0434 -0.0357,0.0815 -0.0722,0.10743 -0.0362,0.0259 -0.081,0.0376 -0.12514,0.0331 z"
       fill="#131f2d"
       id="path538"
       style="stroke-width:0.264583" />
    <path
       d="m 128.28114,114.46742 c -0.0498,0.002 -0.0979,-0.0167 -0.13415,-0.0505 -0.0362,-0.0339 -0.0574,-0.081 -0.059,-0.13044 -0.002,-0.0497 0.0167,-0.0979 0.0505,-0.13415 0.0341,-0.036 0.081,-0.0574 0.1307,-0.059 l 2.09735,-0.14155 c 0.0497,-0.003 0.0984,0.013 0.136,0.0458 0.0373,0.0325 0.0603,0.0786 0.0638,0.12806 0.003,0.0495 -0.013,0.0982 -0.0455,0.13573 -0.0328,0.0373 -0.0788,0.0603 -0.12832,0.0638 l -2.09841,0.14129 z"
       fill="#131f2d"
       id="path540"
       style="stroke-width:0.264583" />
    <path
       d="m 129.46779,117.60829 c -0.0423,0.002 -0.0841,-0.01 -0.11853,-0.0347 -0.0344,-0.0249 -0.059,-0.0609 -0.0698,-0.10187 -0.0109,-0.041 -0.007,-0.0844 0.0106,-0.12303 0.0175,-0.0386 0.0479,-0.0698 0.086,-0.0886 l 1.8243,-1.0705 c 0.0212,-0.0124 0.0444,-0.0206 0.0688,-0.0241 0.0243,-0.003 0.0489,-0.002 0.0728,0.004 0.0238,0.006 0.046,0.0169 0.0656,0.0315 0.0196,0.0148 0.036,0.0333 0.0484,0.0545 0.0124,0.0209 0.0206,0.0444 0.0241,0.0685 0.003,0.0243 0.002,0.0492 -0.004,0.0728 -0.006,0.0238 -0.0169,0.046 -0.0315,0.0656 -0.0148,0.0196 -0.0333,0.036 -0.0545,0.0484 l -1.82351,1.0705 c -0.0296,0.0177 -0.0638,0.027 -0.0984,0.0267 z"
       fill="#131f2d"
       id="path542"
       style="stroke-width:0.264583" />
    <path
       d="m 137.09996,112.20391 c -0.0349,5.3e-4 -0.0691,-0.009 -0.099,-0.0275 -0.0296,-0.0185 -0.0534,-0.0447 -0.0685,-0.0762 -0.0114,-0.022 -0.0183,-0.0458 -0.0204,-0.0704 -0.002,-0.0246 0.001,-0.0495 0.009,-0.0728 0.008,-0.0236 0.0201,-0.045 0.0365,-0.0635 0.0164,-0.0185 0.0362,-0.0336 0.0587,-0.0442 l 1.88939,-0.94113 c 0.0238,-0.0108 0.0476,-0.0175 0.0714,-0.019 0.0238,-0.002 0.0503,0.002 0.0714,0.009 0.0238,0.008 0.045,0.0201 0.0635,0.0363 0.0185,0.0161 0.0344,0.0357 0.045,0.0577 0.0106,0.022 0.0185,0.0458 0.0185,0.0704 0.003,0.0243 0,0.049 -0.008,0.0722 -0.008,0.0233 -0.0212,0.0447 -0.037,0.0632 -0.0159,0.0185 -0.0344,0.0336 -0.0582,0.0444 l -1.89256,0.93927 c -0.0246,0.0132 -0.0519,0.0209 -0.0799,0.022 z"
       fill="#131f2d"
       id="path544"
       style="stroke-width:0.264583" />
    <path
       d="m 139.78151,114.46742 h -0.0132 l -2.09709,-0.14155 c -0.0495,-0.003 -0.0958,-0.0265 -0.12832,-0.0638 -0.0326,-0.0373 -0.049,-0.0862 -0.0455,-0.13574 0.003,-0.0495 0.0262,-0.0955 0.0638,-0.12805 0.0373,-0.0325 0.0863,-0.0489 0.13573,-0.0455 l 2.09788,0.14155 c 0.0503,0.002 0.0953,0.0228 0.12965,0.059 0.0344,0.0363 0.0529,0.0844 0.0503,0.13388 0,0.0497 -0.0212,0.0966 -0.0582,0.13044 -0.037,0.0341 -0.0847,0.0521 -0.13494,0.0505 z"
       fill="#131f2d"
       id="path546"
       style="stroke-width:0.264583" />
    <path
       d="m 138.59565,117.60829 c -0.0323,-5.3e-4 -0.064,-0.01 -0.0918,-0.0267 l -1.82351,-1.07051 c -0.0212,-0.0124 -0.0394,-0.0288 -0.0542,-0.0484 -0.0148,-0.0196 -0.0257,-0.0418 -0.0318,-0.0656 -0.006,-0.0236 -0.008,-0.0484 -0.004,-0.0728 0.003,-0.0241 0.0116,-0.0476 0.0241,-0.0685 0.0124,-0.0212 0.0288,-0.0397 0.0484,-0.0545 0.0196,-0.0145 0.0421,-0.0254 0.0656,-0.0315 0.0238,-0.006 0.0487,-0.008 0.0728,-0.004 0.0243,0.003 0.0479,0.0116 0.0691,0.0241 l 1.8206,1.06865 c 0.0378,0.0188 0.0683,0.05 0.086,0.0886 0.018,0.0386 0.0206,0.082 0.01,0.12303 -0.0106,0.041 -0.0352,0.077 -0.0696,0.10187 -0.0344,0.0249 -0.0762,0.037 -0.11854,0.0347 z"
       fill="#131f2d"
       id="path548"
       style="stroke-width:0.264583" />
    <path
       d="m 137.78709,113.39877 c 0,2.42596 -1.61079,4.41086 -3.63485,4.53019 -0.0661,0.004 -0.13229,0.006 -0.1987,0.006 -2.11587,0 -3.83329,-2.03094 -3.83329,-4.53575 -0.009,-1.00886 0.28496,-1.99734 0.8435,-2.83792 0.70194,-1.03558 1.78011,-1.69916 2.98979,-1.69916 0.33099,5.3e-4 0.66013,0.0505 0.97631,0.14896 0.82788,0.27358 1.53776,0.82021 2.01374,1.5502 0.55828,0.84058 0.85223,1.82906 0.8435,2.83792 z"
       fill="#657285"
       id="path550"
       style="stroke-width:0.264583" />
    <path
       d="m 137.78709,113.3985 c 0,2.42623 -1.61079,4.41113 -3.63485,4.53046 -0.26167,-0.7493 -0.449,-1.52241 -0.55933,-2.30849 -0.23177,-1.6301 -0.13335,-3.17579 0.22172,-4.43283 0.25136,-0.89508 0.63315,-1.64491 1.11496,-2.17699 0.82788,0.27358 1.53802,0.82021 2.014,1.55019 0.55828,0.84059 0.85223,1.82907 0.8435,2.83766 z"
       fill="#657285"
       id="path552"
       style="stroke-width:0.264583" />
    <path
       d="m 133.95354,112.26106 c 1.65126,0 2.99005,-0.76094 2.99005,-1.69916 0,-0.93847 -1.33879,-1.69915 -2.99005,-1.69915 -1.65127,0 -2.98979,0.76068 -2.98979,1.69915 0,0.93822 1.33852,1.69916 2.98979,1.69916 z"
       fill="#131f2d"
       id="path554"
       style="stroke-width:0.264583" />
    <path
       d="m 133.11454,109.45171 c -0.0487,0 -0.0955,-0.0193 -0.12991,-0.0537 -0.0347,-0.0347 -0.054,-0.0812 -0.054,-0.12991 -0.0349,-1.42002 -1.34594,-1.99522 -1.35969,-2.00078 -0.0458,-0.0193 -0.0818,-0.0564 -0.10055,-0.10239 -0.0185,-0.046 -0.018,-0.0976 0.002,-0.14341 0.0196,-0.0455 0.0564,-0.0818 0.10266,-0.10027 0.046,-0.0185 0.0976,-0.018 0.1434,0.002 0.0635,0.0275 1.54649,0.67812 1.58618,2.336 0.001,0.0246 -0.003,0.0495 -0.0119,0.0725 -0.009,0.0233 -0.0222,0.0444 -0.0394,0.0622 -0.0172,0.018 -0.0378,0.032 -0.0606,0.0418 -0.0228,0.01 -0.0474,0.0145 -0.0722,0.0145 z"
       fill="#131f2d"
       id="path556"
       style="stroke-width:0.264583" />
    <path
       d="m 134.66209,109.93246 c -0.0468,0 -0.0921,-0.0177 -0.1262,-0.0495 -0.0341,-0.032 -0.0548,-0.0757 -0.058,-0.1225 -0.15901,-2.00131 1.20703,-2.79347 1.26498,-2.82655 0.0431,-0.0243 0.0944,-0.0307 0.14208,-0.0175 0.0479,0.0132 0.0884,0.045 0.11271,0.0881 0.0246,0.0431 0.0307,0.0942 0.0175,0.14208 -0.0132,0.0476 -0.045,0.0881 -0.0881,0.11245 -0.0516,0.0296 -1.2155,0.71782 -1.07659,2.472 0.002,0.0246 -2.7e-4,0.0492 -0.008,0.0725 -0.007,0.0236 -0.0196,0.0452 -0.0354,0.0638 -0.0159,0.0188 -0.0355,0.0339 -0.0574,0.045 -0.022,0.0111 -0.046,0.0175 -0.0704,0.0191 z"
       fill="#131f2d"
       id="path558"
       style="stroke-width:0.264583" />
    <g
       opacity="0.4"
       id="g562"
       transform="matrix(0.26458333,0,0,0.26458333,-125.80194,44.12688)">
      <path
         d="m 1024.29,305.476 c 22.98,-22.961 22.98,-60.19 0,-83.152 -22.99,-22.961 -60.259,-22.961 -83.246,0 -22.988,22.962 -22.988,60.191 -10e-4,83.152 22.988,22.962 60.257,22.962 83.247,0 z"
         fill="#00a3fe"
         id="path560" />
    </g>
    <path
       d="m 151.89943,127.20843 c 0,0 -2.75167,0.0598 -3.50573,-1.14485 -0.75671,-1.20492 0.52388,-2.2532 0.52388,-2.2532 l 4.09575,2.21166 z"
       fill="#ff7955"
       id="path564"
       style="stroke-width:0.264583" />
    <path
       d="m 147.61054,120.90764 -1.19857,1.93199 30.37946,18.79309 1.19856,-1.93199 z"
       fill="#131f2d"
       id="path566"
       style="stroke-width:0.264583" />
    <path
       d="m 178.28368,140.50109 -0.65087,1.04934 c -0.12436,0.20029 -0.32544,0.34317 -0.55298,0.39714 -0.23019,0.054 -0.47096,0.0146 -0.67204,-0.10954 l -15.84855,-9.80519 c -0.20108,-0.12409 -0.34395,-0.32279 -0.39687,-0.55245 -0.0556,-0.22939 -0.0159,-0.47096 0.10848,-0.67151 l 0.65087,-1.04934 c 0.12436,-0.20029 0.32279,-0.34316 0.55298,-0.39714 0.23019,-0.054 0.47096,-0.0146 0.67204,0.10954 l 15.84855,9.80493 c 0.20108,0.12435 0.34395,0.32305 0.39687,0.55271 0.0556,0.2294 0.0159,0.47096 -0.10848,0.67151 z"
       fill="#131f2d"
       id="path568"
       style="stroke-width:0.264583" />
    <path
       d="m 120.33438,105.37448 c -1.69784,2.73817 -2.54503,5.9182 -2.43364,9.13739 0.11112,3.21918 1.17528,6.33306 3.05832,8.94821 1.88277,2.61487 4.49977,4.61353 7.51972,5.74278 3.01995,1.1295 6.3074,1.33879 9.44668,0.60192 3.13928,-0.73686 5.98885,-2.38707 8.19018,-4.74186 2.19869,-2.35479 3.65125,-5.30833 4.16983,-8.4873 0.52123,-3.17897 0.0847,-6.44049 -1.25148,-9.37234 -1.33614,-2.93158 -3.51102,-5.40173 -6.2521,-7.09824 -1.82033,-1.126331 -3.8444,-1.883304 -5.95842,-2.228056 -2.11296,-0.344752 -4.27355,-0.270404 -6.35793,0.21881 -2.08439,0.489215 -4.0521,1.384036 -5.79041,2.632866 -1.73805,1.24884 -3.2131,2.82734 -4.34075,4.64582 z m 26.50622,16.39941 c -1.55046,2.49819 -3.80736,4.48151 -6.48494,5.69886 -2.67679,1.21761 -5.65573,1.61448 -8.55901,1.14088 -2.90353,-0.4736 -5.60122,-1.79679 -7.75202,-3.80206 -2.1508,-2.00502 -3.65787,-4.60217 -4.33097,-7.46311 -0.67283,-2.86067 -0.48154,-5.85655 0.54981,-8.60874 1.03161,-2.7522 2.85697,-5.13689 5.24536,-6.85271 2.3884,-1.71609 5.23267,-2.685786 8.17298,-2.787122 2.94005,-0.101071 5.84306,0.670719 8.34602,2.218262 1.65893,1.02738 3.10091,2.37147 4.24127,3.95553 1.143,1.58406 1.95791,3.37714 2.40506,5.27658 0.44715,1.89971 0.51594,3.86847 0.20108,5.79411 -0.31485,1.9259 -1.00806,3.77084 -2.03464,5.42952 z"
       fill="#131f2d"
       id="path570"
       style="stroke-width:0.264583" />
    <path
       d="m 176.49245,130.68108 c -0.73554,-5.50333 -6.91356,-8.61218 -6.91356,-8.61218 0,0 0.52387,12.26502 1.57956,11.90307 1.80711,-0.61939 4.28361,-0.63235 5.334,-3.29089 z"
       fill="#00a3fe"
       id="path572"
       style="stroke-width:0.264583" />
    <path
       d="m 164.41951,161.61749 c 0,0 -0.0476,0.9189 -0.66939,1.16522 -0.62177,0.24607 -2.41036,0.42916 -1.75948,1.03929 0.37306,0.35084 2.18017,0.18362 2.68817,0.19394 0.508,0.0101 0.97895,0.25162 1.36789,-0.0828 0.42598,-0.36751 0.0609,-2.2688 0.0609,-2.2688 0,0 -0.44715,0.2196 -0.84138,0.19843 -0.56621,-0.0304 -0.84667,-0.24527 -0.84667,-0.24527 z"
       fill="#131f2d"
       id="path574"
       style="stroke-width:0.264583" />
    <path
       d="m 159.95864,138.39395 c 0.11906,1.91215 0.34396,4.3942 0.75935,7.43056 0.79111,5.78935 1.75155,11.62368 2.22515,14.42191 0.0741,0.4781 0.30692,0.91757 0.66146,1.24751 0.35454,0.32993 0.80962,0.53102 1.29116,0.57097 l 0.52653,0.036 c 1.05568,0.0714 1.93939,-0.82709 1.89177,-1.92432 l -0.82815,-18.8669 -0.0794,-3.00117 c 0,0 -6.64369,-3.05091 -6.4479,0.0855 z"
       fill="#364154"
       id="path576"
       style="stroke-width:0.264583" />
    <path
       d="m 170.24564,161.7773 c 0,0 -0.0476,0.9189 -0.6694,1.16416 -0.62177,0.24554 -2.41035,0.42916 -1.75948,1.04035 0.37307,0.35004 2.17753,0.18388 2.68817,0.19394 0.508,0.0101 0.97896,0.25188 1.36525,-0.0836 0.42598,-0.36751 0.0609,-2.26881 0.0609,-2.26881 0,0 -0.4445,0.21961 -0.83873,0.19844 -0.56886,-0.0304 -0.84667,-0.24447 -0.84667,-0.24447 z"
       fill="#131f2d"
       id="path578"
       style="stroke-width:0.264583" />
    <path
       d="m 165.67893,133.81216 c 0,0 -0.23283,4.15714 0.86254,12.17322 0.79375,5.78934 1.75419,11.62367 2.22779,14.42191 0.0741,0.4781 0.30692,0.91783 0.65882,1.24777 0.35454,0.32994 0.80962,0.53102 1.29381,0.57071 l 0.52652,0.0357 c 1.05569,0.0717 1.9394,-0.82683 1.88913,-1.92405 l -0.82815,-18.86691 -0.1614,-6.2066 z"
       fill="#364154"
       id="path580"
       style="stroke-width:0.264583" />
    <path
       d="m 166.80341,147.61733 -0.0794,-0.0111 c 0,-0.0339 0.45243,-3.44144 0.7911,-4.66461 0.33867,-1.2229 1.91294,-2.29711 1.93146,-2.31113 l 0.045,0.0672 c -0.0132,0.0101 -1.56369,1.05965 -1.89707,2.2651 -0.33337,1.2057 -0.7911,4.62041 -0.7911,4.65455 z"
       fill="#131f2d"
       id="path582"
       style="stroke-width:0.264583" />
    <path
       d="m 166.82193,121.03332 -0.40746,-1.24354 -0.11906,-0.36195 -0.70115,-2.12911 -0.0926,2.11349 -0.0556,1.27186 -0.0159,0.40243 c -0.0132,0.27569 -0.1905,0.32993 -0.40481,0.56806 -0.0873,0.0918 -0.64294,0.67892 -0.0106,0.94192 0.78846,0.32887 2.26218,-0.16828 2.8231,-0.81995 -0.005,0.003 -0.88371,-0.34078 -1.016,-0.74321 z"
       fill="#ff7955"
       id="path584"
       style="stroke-width:0.264583" />
    <path
       d="m 167.65537,118.45945 c 0.23812,-1.23904 -0.45244,-2.41221 -1.54252,-2.62017 -1.08744,-0.20796 -2.16165,0.62786 -2.39977,1.86717 -0.23548,1.2393 0.45243,2.41247 1.54252,2.62043 1.08744,0.20796 2.16164,-0.62812 2.39977,-1.86743 z"
       fill="#ff7955"
       id="path586"
       style="stroke-width:0.264583" />
    <path
       d="m 164.57033,117.29872 c -1.14829,0.0405 -1.70657,-0.58367 -1.71979,-1.16152 -0.0159,-0.74162 0.47889,-1.39779 1.05568,-1.1221 0.57679,0.2757 0.33073,-0.40057 0.88371,-0.47228 1.03717,-0.13414 1.23296,0.56039 2.07963,0.59452 1.11918,0.0439 2.39183,1.80023 1.45785,3.08213 0,0 -2.84956,-0.95303 -3.75708,-0.92075 z"
       fill="#131f2d"
       id="path588"
       style="stroke-width:0.264583" />
    <path
       d="m 163.54639,116.55048 c 0,0 1.22767,1.11284 1.06627,1.73964 -0.1614,0.62679 -0.12171,0.87127 0.59531,1.2057 0.71702,0.33444 0.0847,0.87577 1.03982,0.9189 0.95514,0.0431 2.1246,-1.02367 2.1246,-2.77151 -0.005,-0.59002 -0.21431,-1.15993 -0.59531,-1.61184 z"
       fill="#131f2d"
       id="path590"
       style="stroke-width:0.264583" />
    <path
       d="m 163.99354,118.2626 c 0.0609,-0.0886 0.1561,-0.15081 0.26193,-0.17383 0.10584,-0.0233 0.21432,-0.006 0.30957,0.049 0.0423,0.0304 0.0767,0.0693 0.10318,0.1143 0.0265,0.045 0.045,0.0947 0.0503,0.14658 0.008,0.0519 0.003,0.10424 -0.0132,0.15425 -0.0132,0.05 -0.0397,0.0963 -0.0741,0.13626 -0.0608,0.0886 -0.1561,0.15055 -0.26194,0.17357 -0.10583,0.023 -0.21431,0.005 -0.30956,-0.0497 -0.0423,-0.0302 -0.0767,-0.0691 -0.10319,-0.11377 -0.0264,-0.045 -0.045,-0.0947 -0.0503,-0.14658 -0.008,-0.0519 -0.003,-0.10425 0.0132,-0.15425 0.0132,-0.05 0.0397,-0.096 0.0741,-0.13574 z"
       fill="#ffb27d"
       id="path592"
       style="stroke-width:0.264583" />
    <path
       d="m 168.78779,118.70181 c -0.005,-2.7e-4 -0.0132,-0.003 -0.0185,-0.007 -0.005,-0.004 -0.008,-0.01 -0.0106,-0.0164 -0.0503,-0.15478 -0.15346,-0.28549 -0.29633,-0.36751 -0.003,-0.002 -0.005,-0.004 -0.008,-0.007 -0.003,-0.003 -0.003,-0.006 -0.005,-0.0101 0,-0.004 0,-0.007 0,-0.0111 0,-0.004 0,-0.007 0.003,-0.0106 0.003,-0.003 0.005,-0.006 0.008,-0.009 0.003,-0.002 0.005,-0.004 0.0106,-0.005 0.003,-0.001 0.005,-0.001 0.0106,-0.001 0.003,2.7e-4 0.008,0.001 0.0106,0.003 0.15611,0.0905 0.27252,0.23654 0.32544,0.40905 0,0.004 0,0.007 0,0.0111 0,0.004 -0.003,0.007 -0.005,0.0106 0,0.003 -0.003,0.006 -0.008,0.008 -0.003,0.002 -0.005,0.004 -0.008,0.005 z"
       fill="#131f2d"
       id="path594"
       style="stroke-width:0.264583" />
    <path
       d="m 168.47822,118.17714 c -0.008,0 -0.0159,-0.003 -0.0212,-0.008 -0.005,-0.005 -0.008,-0.0119 -0.008,-0.019 0,-0.004 0,-0.007 0,-0.0111 0.003,-0.003 0.003,-0.007 0.005,-0.01 0.003,-0.003 0.008,-0.005 0.0106,-0.007 0.003,-0.002 0.005,-0.003 0.0106,-0.003 0,0 0.31221,-0.0212 0.35718,-0.24739 0.003,-0.007 0.008,-0.014 0.0132,-0.0183 0.005,-0.004 0.0132,-0.006 0.0212,-0.005 0.008,0.002 0.0132,0.006 0.0185,0.0124 0.005,0.006 0.005,0.014 0.005,0.0217 -0.0556,0.26935 -0.39687,0.2921 -0.41275,0.29316 z"
       fill="#131f2d"
       id="path596"
       style="stroke-width:0.264583" />
    <path
       d="m 164.08085,114.97092 c -0.0212,0 -0.0423,-0.003 -0.0609,-0.009 -0.0847,-0.0262 -0.16404,-0.0659 -0.23548,-0.11748 -0.0661,-0.055 -0.14552,-0.0918 -0.23018,-0.10636 -0.082,-0.0145 -0.16934,-0.006 -0.24871,0.0236 -0.005,0.001 -0.008,0.002 -0.0106,0.001 -0.005,-5.3e-4 -0.008,-0.002 -0.0132,-0.003 -0.003,-0.002 -0.005,-0.004 -0.008,-0.007 -0.003,-0.003 -0.003,-0.006 -0.005,-0.01 0,-0.003 0,-0.007 0,-0.0111 0,-0.004 0,-0.007 0.003,-0.0109 0.003,-0.003 0.005,-0.006 0.008,-0.008 0.003,-0.002 0.005,-0.004 0.0106,-0.005 0.0873,-0.032 0.18257,-0.0402 0.27517,-0.0241 0.0926,0.0161 0.17727,0.0561 0.24871,0.11589 0.0688,0.0484 0.14287,0.0855 0.22225,0.11033 0.0185,0.007 0.0397,0.009 0.0608,0.006 0.0212,-0.003 0.0423,-0.0108 0.0609,-0.023 0.12435,-0.0855 0.1561,-0.36751 0.1561,-0.36751 0,-0.007 0.005,-0.0143 0.0106,-0.019 0.005,-0.005 0.0132,-0.007 0.0212,-0.007 0.003,2.7e-4 0.008,0.001 0.0106,0.003 0.003,0.002 0.005,0.004 0.008,0.007 0.003,0.003 0.005,0.006 0.005,0.0101 0.003,0.004 0.003,0.008 0,0.0114 0,0.0119 -0.0318,0.30692 -0.18256,0.40799 -0.0317,0.0217 -0.0688,0.0333 -0.10583,0.0331 z"
       fill="#131f2d"
       id="path598"
       style="stroke-width:0.264583" />
    <path
       d="m 166.78224,115.04527 c -0.26987,-0.0119 -0.52916,-0.11404 -0.73554,-0.29025 -0.003,-0.002 -0.005,-0.005 -0.008,-0.009 -0.003,-0.003 -0.003,-0.007 -0.005,-0.0114 0,-0.004 0,-0.008 0.003,-0.0119 0,-0.004 0.003,-0.007 0.005,-0.0103 0.003,-0.003 0.005,-0.005 0.0106,-0.007 0.003,-0.002 0.008,-0.003 0.0106,-0.003 0.005,0 0.008,7.9e-4 0.0132,0.003 0.003,0.002 0.005,0.004 0.008,0.007 0,0 0.381,0.33364 0.82021,0.26644 0.008,-10e-4 0.0159,0.001 0.0212,0.005 0.008,0.004 0.0106,0.0114 0.0132,0.0188 0,0.007 -0.003,0.0151 -0.005,0.0212 -0.005,0.006 -0.0132,0.0106 -0.0212,0.0119 -0.0423,0.006 -0.0847,0.009 -0.12965,0.009 z"
       fill="#131f2d"
       id="path600"
       style="stroke-width:0.264583" />
    <path
       d="m 164.30045,118.89204 c -0.0265,8e-4 -0.0529,-0.003 -0.0794,-0.01 -0.003,-2.6e-4 -0.003,-0.001 -0.005,-0.002 -0.003,-10e-4 -0.003,-0.002 -0.005,-0.004 0,-0.002 0,-0.003 0,-0.006 -0.003,-0.002 -0.003,-0.004 0,-0.006 0,-0.002 0,-0.004 0.003,-0.005 0,-10e-4 0.003,-0.003 0.005,-0.003 0,-7.9e-4 0.003,-10e-4 0.005,-10e-4 0.003,2.7e-4 0.005,8e-4 0.005,0.002 0.0106,0 0.2593,0.078 0.43657,-0.25267 0,-0.002 0.003,-0.003 0.003,-0.004 0.003,-0.001 0.003,-0.002 0.005,-0.002 0.003,-5.3e-4 0.003,-8e-4 0.005,-5.3e-4 0.003,2.6e-4 0.003,7.9e-4 0.005,0.002 0.003,0.002 0.005,0.004 0.005,0.008 0.003,0.003 0.003,0.007 0,0.0103 -0.127,0.23627 -0.29104,0.27569 -0.38894,0.27569 z"
       fill="#131f2d"
       id="path602"
       style="stroke-width:0.264583" />
    <path
       d="m 159.95864,138.39395 c 0,0 8.33173,-0.45958 12.2846,0.5043 l 0.0609,-1.143 -5.54567,-1.65867 -4.47675,0.11112 -1.37319,0.29766 -0.97102,1.52082 z"
       fill="#131f2d"
       id="path604"
       style="stroke-width:0.264583" />
    <path
       d="m 171.50506,124.47105 c 0,0 -0.73555,-3.19802 -5.22023,-3.19802 -7.81844,0 -5.62504,6.46668 -6.34736,16.74865 0,0 5.04032,-1.10834 12.33223,0.36751 0,0 0.71173,-5.56789 -0.20637,-10.27456 -0.24342,-1.24434 -0.20109,-2.56302 -0.55827,-3.64358 z"
       fill="#00a3fe"
       id="path606"
       style="stroke-width:0.264583" />
    <path
       d="m 165.38524,121.27303 c 0,0 -2.50825,0.0368 -4.37356,1.82218 -1.86267,1.78568 -4.26508,4.24392 -4.77573,5.65812 -0.62706,1.74598 0.52917,3.49197 1.99496,3.5269 1.46579,0.0349 2.78077,-1.04114 2.78077,-1.04114 z"
       fill="#00a3fe"
       id="path608"
       style="stroke-width:0.264583" />
    <path
       d="m 172.50783,135.87962 h -0.0556 c 0.21696,-4.03331 -0.48683,-8.16213 -0.49477,-8.20341 l 0.0556,-0.009 c 0.003,0.0386 0.70908,4.17407 0.49477,8.21267 z"
       fill="#131f2d"
       id="path610"
       style="stroke-width:0.264583" />
    <path
       d="m 160.14385,131.81879 -0.0291,-0.0468 c 1.47373,-0.88212 3.39196,-3.20437 3.41048,-3.22818 l 0.0423,0.0357 c -0.0185,0.023 -1.94205,2.35347 -3.42371,3.23929 z"
       fill="#131f2d"
       id="path612"
       style="stroke-width:0.264583" />
    <path
       d="m 149.90976,127.6688 c -0.0185,1.14062 5.63563,5.30887 9.02759,4.61222 3.60627,-0.73501 -0.84402,-4.74716 -0.84402,-4.74716 l -6.64634,-1.52823 c 0,0 -1.5187,0.50827 -1.53723,1.66317 z"
       fill="#00a3fe"
       id="path614"
       style="stroke-width:0.264583" />
    <path
       d="m 151.44699,126.00563 c 0.0185,-0.13282 0.005,-0.26802 -0.0423,-0.39396 -0.045,-0.12621 -0.12171,-0.23892 -0.2196,-0.32914 -0.34132,-0.30057 -0.69586,-1.67085 -0.92075,-1.32715 -0.22225,0.34369 -0.0159,1.43721 -0.35455,1.55495 -0.33866,0.11748 1.53723,0.4953 1.53723,0.4953 z"
       fill="#ff7955"
       id="path616"
       style="stroke-width:0.264583" />
    <path
       d="m 153.93408,101.63618 h -0.33338 c -0.045,0 -0.0873,0.0172 -0.11641,0.0479 -0.0318,0.0307 -0.0476,0.0722 -0.0476,0.11563 V 103.27 c 0,0.0437 -0.0185,0.0855 -0.0503,0.11641 -0.0291,0.0307 -0.0714,0.0482 -0.11642,0.0482 h -0.11641 c -0.045,-2.6e-4 -0.0847,-0.0177 -0.11642,-0.0484 -0.0291,-0.031 -0.0476,-0.0728 -0.0476,-0.11615 v -1.47029 c 0,-0.0434 -0.0185,-0.0849 -0.0476,-0.11562 -0.0317,-0.0307 -0.0741,-0.0479 -0.11642,-0.0479 h -0.32543 c -0.045,0 -0.0873,-0.0175 -0.11642,-0.0482 -0.0317,-0.031 -0.0503,-0.0728 -0.0503,-0.11642 v -0.032 c 0,-0.0437 0.0185,-0.0855 0.0503,-0.11642 0.0291,-0.031 0.0714,-0.0481 0.11642,-0.0481 h 1.43404 c 0.045,0 0.0847,0.0172 0.11641,0.0481 0.0318,0.031 0.0476,0.0728 0.0476,0.11642 v 0.032 c 0,0.0437 -0.0159,0.0855 -0.0476,0.11642 -0.0317,0.0307 -0.0714,0.0482 -0.11641,0.0482 z"
       fill="#00a3fe"
       id="path618"
       style="stroke-width:0.264583" />
    <path
       d="m 155.48718,102.49714 h -0.52917 c -0.0423,0 -0.0847,0.0175 -0.11377,0.0481 -0.0318,0.0304 -0.0476,0.0722 -0.0476,0.11562 v 0.25083 c 0,0.0434 0.0159,0.0852 0.0476,0.11588 0.0291,0.031 0.0714,0.0484 0.11377,0.0487 h 0.67734 c 0.0212,0 0.045,0.004 0.0635,0.0124 0.0212,0.008 0.037,0.0204 0.0529,0.0357 0.0159,0.0153 0.0291,0.0333 0.037,0.0534 0.008,0.0198 0.0106,0.0413 0.0106,0.0627 v 0.0294 c 0,0.0217 -0.003,0.0431 -0.0106,0.063 -0.008,0.0198 -0.0212,0.0381 -0.037,0.0534 -0.0159,0.0153 -0.0318,0.0272 -0.0529,0.0357 -0.0185,0.008 -0.0423,0.0124 -0.0635,0.0124 h -1.12184 c -0.0423,0 -0.0847,-0.0172 -0.11641,-0.0482 -0.0317,-0.031 -0.0476,-0.0728 -0.0476,-0.11641 v -1.8378 c 0,-0.0437 0.0159,-0.0855 0.0476,-0.11642 0.0318,-0.0307 0.0741,-0.0482 0.11641,-0.0482 h 1.11919 c 0.045,2.7e-4 0.0847,0.0177 0.11642,0.0487 0.0318,0.0307 0.0476,0.0725 0.0476,0.11589 v 0.0323 c 0,0.0434 -0.0159,0.0849 -0.0476,0.11589 -0.0317,0.0307 -0.0714,0.0481 -0.11642,0.0484 h -0.67469 c -0.0423,0 -0.0847,0.0172 -0.11377,0.0479 -0.0318,0.0307 -0.0476,0.0725 -0.0476,0.11589 v 0.18362 c 0,0.0434 0.0159,0.0852 0.0476,0.11615 0.0291,0.0307 0.0714,0.0482 0.11377,0.0484 h 0.52917 c 0.0423,0 0.0847,0.0172 0.11642,0.0479 0.0318,0.0307 0.0476,0.0722 0.0476,0.11562 v 0.0212 c 0.003,0.0222 -0.003,0.0444 -0.0106,0.0651 -0.008,0.0209 -0.0185,0.04 -0.0344,0.0561 -0.0159,0.0159 -0.0344,0.0288 -0.0556,0.0376 -0.0185,0.009 -0.0423,0.0132 -0.0635,0.013 z"
       fill="#00a3fe"
       id="path620"
       style="stroke-width:0.264583" />
    <path
       d="m 157.18845,102.8665 c 0,-0.0344 -0.005,-0.0691 -0.0159,-0.10187 -0.0132,-0.0331 -0.0344,-0.0619 -0.0635,-0.0836 -0.0397,-0.0307 -0.0847,-0.0561 -0.12965,-0.0754 -0.0688,-0.0304 -0.14023,-0.0569 -0.21431,-0.0791 -0.0926,-0.0302 -0.18521,-0.0656 -0.27517,-0.10663 -0.082,-0.0362 -0.16139,-0.0836 -0.23019,-0.14049 -0.0635,-0.0505 -0.11641,-0.11298 -0.1561,-0.18388 -0.0397,-0.0765 -0.0582,-0.16087 -0.0582,-0.2466 0,-0.0857 0.0185,-0.17012 0.0582,-0.24685 0.0397,-0.0754 0.0952,-0.14103 0.16404,-0.19103 0.0767,-0.0553 0.1614,-0.0971 0.25136,-0.1233 0.10583,-0.0294 0.21431,-0.0439 0.32279,-0.0431 0.11112,-10e-4 0.22225,0.0153 0.32808,0.0497 0.0926,0.0296 0.17727,0.0767 0.25136,0.13864 0.0688,0.0579 0.1217,0.13018 0.15875,0.21141 0.0106,0.0177 0.0159,0.0352 0.0238,0.0524 0.008,0.0246 0.0106,0.0511 0.005,0.0767 -0.003,0.0257 -0.0132,0.05 -0.0291,0.0712 -0.0159,0.0212 -0.0344,0.0381 -0.0582,0.05 -0.0238,0.0119 -0.0503,0.018 -0.0741,0.018 h -0.1217 c -0.0344,-2.7e-4 -0.0661,-0.0114 -0.0952,-0.0318 -0.0291,-0.0204 -0.0503,-0.0492 -0.0609,-0.082 0,0 0,-0.008 0,-0.0122 -0.0132,-0.0378 -0.037,-0.072 -0.0661,-0.10002 -0.0317,-0.0288 -0.0688,-0.0508 -0.11113,-0.0643 -0.0503,-0.0167 -0.10319,-0.0243 -0.15875,-0.023 -0.0503,-7.9e-4 -0.10319,0.006 -0.15081,0.0193 -0.0397,0.0111 -0.0767,0.0291 -0.10848,0.0532 -0.0265,0.0214 -0.0476,0.0492 -0.0635,0.081 -0.0132,0.0304 -0.0212,0.0638 -0.0212,0.0974 0,0.0376 0.0106,0.0746 0.0291,0.1069 0.0185,0.0323 0.0476,0.0587 0.0794,0.077 0.10054,0.0595 0.20902,0.10477 0.32015,0.13414 0.10848,0.0323 0.21166,0.0733 0.31221,0.12224 0.082,0.0389 0.15875,0.09 0.22489,0.1516 0.0582,0.0534 0.10319,0.11827 0.13758,0.19024 0.0317,0.0757 0.045,0.1569 0.045,0.23892 0.003,0.0878 -0.0185,0.17462 -0.0556,0.25347 -0.037,0.073 -0.0926,0.13599 -0.15875,0.18388 -0.0741,0.054 -0.15875,0.0934 -0.24871,0.11669 -0.10318,0.0288 -0.21431,0.0426 -0.32279,0.0413 -0.0714,0 -0.14287,-0.006 -0.21431,-0.0183 -0.0688,-0.0122 -0.13758,-0.0315 -0.20373,-0.0579 -0.0661,-0.0233 -0.127,-0.0542 -0.18521,-0.0918 -0.0529,-0.0381 -0.10319,-0.0839 -0.14552,-0.136 -0.0397,-0.0542 -0.0741,-0.11483 -0.0953,-0.17939 v -0.0101 c -0.008,-0.0246 -0.0106,-0.0505 -0.005,-0.0759 0.003,-0.0254 0.0132,-0.0492 0.0291,-0.0701 0.0159,-0.0206 0.037,-0.0373 0.0582,-0.049 0.0238,-0.0114 0.0503,-0.0175 0.0741,-0.0172 h 0.11642 c 0.0344,0 0.0688,0.0119 0.0979,0.0336 0.0291,0.0217 0.0503,0.0521 0.0608,0.0868 0.003,0.0156 0.008,0.0312 0.0159,0.046 0.0185,0.0434 0.0476,0.0818 0.0847,0.11113 0.0423,0.0291 0.0873,0.05 0.13759,0.0617 0.0556,0.0132 0.11377,0.0198 0.17462,0.0193 0.0503,5.3e-4 0.10054,-0.006 0.15081,-0.0185 0.037,-0.0103 0.0714,-0.0278 0.10319,-0.0513 0.0291,-0.0206 0.0503,-0.0474 0.0635,-0.0783 0.0132,-0.0331 0.0212,-0.0688 0.0185,-0.10478 z"
       fill="#00a3fe"
       id="path622"
       style="stroke-width:0.264583" />
    <path
       d="m 159.40301,101.63618 h -0.33337 c -0.045,0 -0.0873,0.0172 -0.11642,0.0479 -0.0318,0.0307 -0.0476,0.0722 -0.0476,0.11563 V 103.27 c 0,0.0437 -0.0185,0.0855 -0.0503,0.11641 -0.0291,0.031 -0.0714,0.0482 -0.11642,0.0482 h -0.11642 c -0.0423,-2.6e-4 -0.0847,-0.0177 -0.11641,-0.0484 -0.0291,-0.031 -0.0476,-0.0725 -0.0476,-0.11615 v -1.47029 c 0,-0.0434 -0.0185,-0.0849 -0.0476,-0.11562 -0.0317,-0.0307 -0.0741,-0.0479 -0.11642,-0.0479 h -0.32279 c -0.045,-2.7e-4 -0.0847,-0.0177 -0.11642,-0.0484 -0.0317,-0.031 -0.0476,-0.0725 -0.0476,-0.11615 v -0.032 c 0,-0.0222 0.003,-0.0442 0.0106,-0.0648 0.008,-0.0206 0.0185,-0.0394 0.0344,-0.0553 0.0159,-0.0161 0.0344,-0.0288 0.0556,-0.0376 0.0185,-0.009 0.0397,-0.0132 0.0635,-0.0132 h 1.43404 c 0.045,0 0.0873,0.0172 0.11642,0.0482 0.0317,0.0307 0.0476,0.0728 0.0476,0.11615 v 0.0323 c 0.003,0.0225 -0.003,0.0447 -0.0106,0.0656 -0.008,0.0209 -0.0185,0.04 -0.0344,0.0558 -0.0159,0.0161 -0.0344,0.0286 -0.0556,0.0373 -0.0212,0.008 -0.0423,0.0127 -0.0662,0.0122 z"
       fill="#00a3fe"
       id="path624"
       style="stroke-width:0.264583" />
    <path
       d="m 160.13326,103.43456 h -0.11906 c -0.0423,-2.7e-4 -0.0847,-0.0177 -0.11641,-0.0484 -0.0291,-0.031 -0.0476,-0.0725 -0.0476,-0.11616 v -1.83779 c 0,-0.0434 0.0185,-0.0852 0.0476,-0.11589 0.0317,-0.031 0.0741,-0.0484 0.11641,-0.0487 h 0.11906 c 0.0423,0 0.0847,0.0175 0.11642,0.0482 0.0291,0.031 0.0476,0.0728 0.0476,0.11642 v 1.8378 c 0,0.0437 -0.0185,0.0855 -0.0476,0.11641 -0.0318,0.031 -0.0741,0.0482 -0.11642,0.0482 z"
       fill="#00a3fe"
       id="path626"
       style="stroke-width:0.264583" />
    <path
       d="m 162.30549,103.43456 h -0.18785 c -0.0291,0 -0.0582,-0.007 -0.082,-0.0212 -0.0238,-0.0138 -0.045,-0.0339 -0.0582,-0.0579 l -0.51594,-0.84535 c -0.0185,-0.0302 -0.0476,-0.0534 -0.082,-0.0664 -0.0318,-0.013 -0.0688,-0.0148 -0.10319,-0.005 -0.0344,0.01 -0.0635,0.0302 -0.0873,0.0585 -0.0212,0.0283 -0.0317,0.0627 -0.0317,0.0984 v 0.67443 c 0,0.0437 -0.0185,0.0855 -0.0503,0.11641 -0.0291,0.031 -0.0714,0.0482 -0.11642,0.0482 h -0.11641 c -0.0423,0 -0.0847,-0.0172 -0.11642,-0.0482 -0.0318,-0.031 -0.0476,-0.0728 -0.0476,-0.11641 v -1.83783 c 0,-0.0437 0.0159,-0.0855 0.0476,-0.11642 0.0317,-0.0307 0.0741,-0.0482 0.11642,-0.0482 h 0.1905 c 0.0265,2.7e-4 0.0556,0.007 0.0794,0.0212 0.0238,0.014 0.045,0.0339 0.0609,0.0579 l 0.51593,0.8472 c 0.0185,0.0307 0.0476,0.0545 0.0794,0.0677 0.0344,0.013 0.0714,0.0151 0.10583,0.006 0.0344,-0.01 0.0635,-0.0302 0.0873,-0.0587 0.0212,-0.0283 0.0318,-0.0632 0.0318,-0.099 v -0.67738 c 0,-0.0434 0.0185,-0.0852 0.0503,-0.11589 0.0291,-0.031 0.0714,-0.0484 0.11377,-0.0487 h 0.11641 c 0.045,0 0.0873,0.0175 0.11642,0.0482 0.0318,0.031 0.0476,0.0728 0.0476,0.11642 v 1.8378 c 0,0.0437 -0.0159,0.0855 -0.0476,0.11641 -0.0291,0.031 -0.0714,0.0482 -0.11642,0.0482 z"
       fill="#00a3fe"
       id="path628"
       style="stroke-width:0.264583" />
    <path
       d="m 164.57297,103.09457 c 0,0.023 -0.005,0.0458 -0.0132,0.0669 -0.0106,0.0209 -0.0238,0.04 -0.0423,0.0553 -0.0132,0.0138 -0.0318,0.0283 -0.0503,0.0431 -0.0503,0.0389 -0.10848,0.0714 -0.16669,0.0974 -0.0767,0.0333 -0.1561,0.059 -0.23812,0.0762 -0.10584,0.0214 -0.21167,0.0318 -0.3175,0.0304 -0.12965,0.002 -0.26194,-0.0217 -0.38365,-0.0691 -0.11112,-0.0442 -0.21431,-0.11377 -0.29633,-0.20294 -0.0847,-0.0952 -0.15081,-0.2069 -0.1905,-0.32808 -0.0476,-0.14367 -0.0714,-0.29448 -0.0688,-0.44582 v -0.12753 c -0.003,-0.15161 0.0212,-0.30216 0.0661,-0.44662 0.0397,-0.12118 0.10054,-0.2331 0.18521,-0.32914 0.0767,-0.0886 0.17463,-0.15822 0.28575,-0.20294 0.11906,-0.0479 0.24606,-0.0717 0.37306,-0.0699 0.12436,-0.003 0.24871,0.0148 0.36777,0.0524 0.0952,0.0307 0.18257,0.081 0.25665,0.1479 0.0688,0.0635 0.12435,0.14076 0.1614,0.22702 0.0106,0.0241 0.0212,0.049 0.0291,0.0743 0.008,0.0249 0.0106,0.0511 0.005,0.0767 -0.003,0.0257 -0.0132,0.05 -0.0291,0.0712 -0.0159,0.0212 -0.0344,0.0384 -0.0582,0.05 -0.0238,0.0119 -0.0476,0.018 -0.0741,0.018 h -0.10319 c -0.0344,-2.7e-4 -0.0688,-0.0116 -0.0979,-0.032 -0.0265,-0.0204 -0.0476,-0.0492 -0.0582,-0.0818 l -0.0132,-0.0341 c -0.0185,-0.0426 -0.045,-0.0812 -0.0767,-0.11298 -0.0344,-0.0325 -0.0767,-0.0574 -0.12171,-0.0725 -0.0556,-0.0177 -0.11377,-0.0262 -0.17198,-0.0249 -0.0688,-0.003 -0.13494,0.0106 -0.19579,0.0408 -0.0609,0.0302 -0.11377,0.0757 -0.15082,0.13203 -0.09,0.15557 -0.13229,0.33443 -0.1217,0.51355 v 0.13044 c -0.0106,0.18071 0.0344,0.36063 0.13229,0.51382 0.0423,0.0569 0.0979,0.10266 0.16404,0.13309 0.0635,0.0304 0.13494,0.0447 0.20637,0.0415 0.0476,7.9e-4 0.0952,-0.003 0.14023,-0.01 0.0344,-0.006 0.0688,-0.0143 0.10319,-0.0259 0.0238,-0.009 0.0476,-0.0204 0.0688,-0.0339 0.0185,-0.0108 0.0317,-0.023 0.0476,-0.0368 v -0.20849 c 0,-0.0437 -0.0185,-0.0855 -0.0476,-0.11642 -0.0317,-0.031 -0.0741,-0.0482 -0.11641,-0.0482 h -0.0794 c -0.0423,0 -0.0847,-0.0172 -0.11377,-0.0479 -0.0317,-0.0307 -0.0503,-0.0722 -0.0503,-0.11562 v 0 c 0,-0.0437 0.0185,-0.0855 0.0476,-0.11642 0.0317,-0.031 0.0741,-0.0482 0.11642,-0.0482 h 0.52917 c 0.0212,0 0.0423,0.004 0.0608,0.0124 0.0212,0.008 0.0397,0.0204 0.0556,0.0357 0.0132,0.0153 0.0265,0.0336 0.0344,0.0534 0.008,0.0198 0.0132,0.0413 0.0132,0.063 z"
       fill="#00a3fe"
       id="path630"
       style="stroke-width:0.264583" />
  </g>
</svg>
