<?xml version="1.0" encoding="UTF-8" standalone="no"?>
<!-- Created with Inkscape (http://www.inkscape.org/) -->

<svg
   width="116.05278mm"
   height="87.242714mm"
   viewBox="0 0 116.05278 87.242714"
   version="1.1"
   id="svg621"
   inkscape:version="1.2.1 (9c6d41e410, 2022-07-14)"
   sodipodi:docname="support.svg"
   xmlns:inkscape="http://www.inkscape.org/namespaces/inkscape"
   xmlns:sodipodi="http://sodipodi.sourceforge.net/DTD/sodipodi-0.dtd"
   xmlns="http://www.w3.org/2000/svg"
   xmlns:svg="http://www.w3.org/2000/svg">
  <sodipodi:namedview
     id="namedview623"
     pagecolor="#ffffff"
     bordercolor="#666666"
     borderopacity="1.0"
     inkscape:showpageshadow="2"
     inkscape:pageopacity="0.0"
     inkscape:pagecheckerboard="0"
     inkscape:deskcolor="#d1d1d1"
     inkscape:document-units="mm"
     showgrid="false"
     inkscape:zoom="0.71446409"
     inkscape:cx="29.39266"
     inkscape:cy="142.76435"
     inkscape:window-width="1920"
     inkscape:window-height="1030"
     inkscape:window-x="0"
     inkscape:window-y="0"
     inkscape:window-maximized="1"
     inkscape:current-layer="layer1" />
  <defs
     id="defs618" />
  <g
     inkscape:label="Layer 1"
     inkscape:groupmode="layer"
     id="layer1"
     transform="translate(-97.509771,-110.80383)">
    <g
       class="cls-1"
       id="g177"
       style="isolation:isolate"
       transform="matrix(0.26458333,0,0,0.26458333,88.963423,91.779291)">
      <g
         id="OBJECTS">
        <path
           class="cls-2"
           d="m 107.46,384.26 c 0,0 -54.62,-38.89 -70.34,-105.1 -15.72,-66.21 8.27,-146.48 53.79,-187 45.52,-40.52 127.45,-13.24 163.86,20.69 l 36.42,33.93 c 0,0 34.76,19 80.27,17.38 45.51,-1.62 86.07,60.42 96.83,109.25 10.76,48.83 -14.9,113.37 -14.9,113.37 z"
           id="path6"
           style="fill:#ddecff" />
        <path
           class="cls-3"
           d="m 82.64,394.19 c 0,0 -38.07,-20.69 -48,-68.69 -9.93,-48 33.1,-91.86 37.24,-115.86 4.14,-24 -5,-53.79 33.1,-77 38.1,-23.21 105.93,-14.86 131.59,-20.64 25.66,-5.78 55.43,-45.53 106.76,-36.43 51.33,9.1 101,36.42 103.44,96 2.44,59.58 -16.55,61.24 2.49,93.52 19.04,32.28 26.48,54.62 17.38,87.72 -9.1,33.1 -28.14,42.19 -28.14,42.19 z"
           id="path8"
           style="mix-blend-mode:multiply;fill:#ddecff" />
        <path
           class="cls-3"
           d="m 162.12,383.43 c -2.36,-2.48 -37.1,-72 1.58,-135.72 38.68,-63.72 135.78,-56.28 174.45,-31.45 38.67,24.83 57.63,57.11 61.58,91 3.95,33.89 -22.11,86.89 -22.11,86.89 z"
           id="path10"
           style="mix-blend-mode:multiply;fill:#ddecff" />
        <rect
           class="cls-4"
           x="384.84"
           y="234.12"
           width="54.619999"
           height="32.279999"
           rx="5"
           id="rect12"
           style="fill:#60a8ff" />
        <polygon
           class="cls-4"
           points="405.08,262.26 412.15,279.02 419.22,262.26 "
           id="polygon14"
           style="fill:#60a8ff" />
        <polygon
           class="cls-5"
           points="424.76,244.72 424.76,246.59 431.02,242.98 424.76,239.37 424.76,241.24 411.98,241.24 411.98,244.72 "
           id="polygon16"
           style="fill:#223a7a" />
        <polygon
           class="cls-6"
           points="418.25,252.06 418.25,250.2 411.98,253.81 418.25,257.42 418.25,255.55 431.02,255.55 431.02,252.06 "
           id="polygon18"
           style="fill:#ffffff" />
        <path
           class="cls-5"
           d="m 404.14,255.35 -0.6,0.22 a 19.1,19.1 0 0 1 -2.88,-4.52 16.06,16.06 0 0 1 -1,-5.23 l 0.44,-0.19 -2.7,-6.46 a 5.29,5.29 0 0 0 -1.31,1.48 c -1.53,2.59 -1.38,6.55 0.16,10.42 1.54,3.87 3.18,7.33 6.18,9.5 a 5.93,5.93 0 0 0 4.47,1.32 z"
           id="path20"
           style="fill:#223a7a" />
        <path
           class="cls-5"
           d="m 406.08,254.59 -0.84,0.3 2.77,6.62 a 4.93,4.93 0 0 0 0.83,-0.36 1.61,1.61 0 0 0 0.73,-2 l -1.44,-3.63 a 1.61,1.61 0 0 0 -2.05,-0.93 z"
           id="path22"
           style="fill:#223a7a" />
        <path
           class="cls-5"
           d="m 399.49,238 a 6.94,6.94 0 0 0 -1.08,0.51 l 2.76,6.6 0.93,-0.38 a 1.63,1.63 0 0 0 0.88,-2.07 L 401.53,239 a 1.62,1.62 0 0 0 -2.04,-1 z"
           id="path24"
           style="fill:#223a7a" />
        <path
           class="cls-7"
           d="m 149.22,372.26 v -74.48 c 0,0 -0.83,-20.07 9.73,-25.86 10.56,-5.79 55,-2.69 55,-2.69 v 103 z"
           id="path26"
           style="fill:#1c83ff" />
        <path
           class="cls-8"
           d="m 227.88,199.5 c 0,0 -2.69,22.56 -3.73,24.42 l -1,1.86 -5.15,3.52 c 0,0 9.93,14.07 22.13,16.34 12.2,2.27 11.18,-5 11.18,-5 l -1.87,-3.94 2.49,-21.51 c 0,0 -22.19,-10.1 -24.05,-15.69 z"
           id="path28"
           style="fill:#ff9d8c" />
        <path
           class="cls-6"
           d="m 211.53,231.16 8.07,-3.52 c 0,0 5.17,8.48 17.17,13.45 12,4.97 12.21,2.07 12.83,0 a 7.88,7.88 0 0 0 -0.21,-4.35 l 0.89,-7.24 4.8,1.6 16.66,134.75 -42.83,2.07 z"
           id="path30"
           style="fill:#ffffff" />
        <path
           class="cls-5"
           d="m 251.05,229.64 c 0,0 2.9,6.69 5.59,22.42 2.69,15.73 5.17,42.2 5.79,60.41 0.62,18.21 1,59.79 1,59.79 h 54 c 0.62,0 4.35,-20.48 4.35,-20.48 0,0 -23.56,-20.21 -24.78,-23.52 -0.83,-2.2 -0.41,-43.1 -3.93,-61.93 C 289.55,247.5 285,243.71 275.46,239 c -9.83,-4.83 -24.41,-9.36 -24.41,-9.36 z"
           id="path32"
           style="fill:#223a7a" />
        <path
           class="cls-9"
           d="m 279.19,348.56 a 0.5,0.5 0 0 1 -0.5,-0.5 c 0,-1.48 -0.27,-22.5 -0.52,-42.83 -0.25,-20.33 -0.52,-41.34 -0.52,-42.83 a 0.5,0.5 0 0 1 0.5,-0.5 0.5,0.5 0 0 1 0.5,0.5 c 0,1.48 0.27,22.5 0.52,42.82 0.25,20.32 0.52,41.35 0.52,42.84 a 0.51,0.51 0 0 1 -0.5,0.5 z"
           id="path34"
           style="fill:#8593b6" />
        <path
           class="cls-5"
           d="m 171.6,343.5 -0.41,28.76 h 62.89 c 0,0 2.69,-24.41 1.66,-26.69 -1.03,-2.28 -64.14,-2.07 -64.14,-2.07 z"
           id="path36"
           style="fill:#223a7a" />
        <g
           class="cls-10"
           id="g40"
           style="mix-blend-mode:multiply">
          <path
             class="cls-11"
             d="m 241.6,223.3 a 32.93,32.93 0 0 0 8.8,4.72 l 1.48,-12.79 c 0,0 -16.63,-7.62 -22.27,-13.29 1.18,6.44 4.08,14.97 11.99,21.36 z"
             id="path38"
             style="fill:#8e9bbb" />
        </g>
        <path
           class="cls-8"
           d="m 271.33,157.5 a 44.87,44.87 0 0 1 5.17,16.56 c 0.83,9.1 0,32.48 -7.45,42.41 -7.45,9.93 -23,7 -30,1 -6.46,-5.5 -12.83,-11.58 -14.48,-23.58 -1.65,-12 3.51,-34.76 18.2,-39.52 14.69,-4.76 28.56,3.13 28.56,3.13 z"
           id="path42"
           style="fill:#ff9d8c" />
        <path
           class="cls-8"
           d="m 290,359.26 c 0,0 -0.73,0 -1.84,0 h -0.85 l -3.68,-0.1 h -0.88 c -1.3,0 -2.41,0.13 -3.45,0.07 v 0 c -0.22,0 -0.54,0 -0.8,0 a 1.94,1.94 0 0 1 -0.33,0 4.86,4.86 0 0 1 -1.37,-0.54 93,93 0 0 0 -21.46,-2.86 c -9.24,0 -17.53,0.67 -18.88,-0.46 -1.35,-1.13 -2.18,-12.76 5.71,-13.52 l 9.7,3.68 c 0,0 22.15,-2.63 30.27,3.36 8.12,5.99 7.86,10.37 7.86,10.37 z"
           id="path44"
           style="fill:#ff9d8c" />
        <path
           class="cls-5"
           d="m 279.26,359.16 c -0.22,0 -0.54,0 -0.8,0 a 9.39,9.39 0 0 0 -0.85,-1.14 c -2.5,-2.55 -8.54,-4.2 -10.73,-4.73 a 0.38,0.38 0 0 1 -0.28,-0.45 0.38,0.38 0 0 1 0.46,-0.28 c 3.19,0.77 10,2.74 11.88,6 0.06,0.09 0.22,0.44 0.32,0.6 z"
           id="path46"
           style="fill:#223a7a" />
        <path
           class="cls-5"
           d="m 283.62,359.11 c -0.29,0 -0.59,0 -0.88,0 -2.73,-5 -7.19,-6.4 -12.71,-8.18 l -0.33,-0.11 a 0.37473324,0.37473324 0 1 1 0.24,-0.71 l 0.32,0.11 c 5.83,1.84 10.53,3.34 13.36,8.89 z"
           id="path48"
           style="fill:#223a7a" />
        <path
           class="cls-5"
           d="m 288.15,359.22 h -0.85 a 21.79,21.79 0 0 0 -14.38,-10.66 0.37,0.37 0 0 1 -0.31,-0.44 0.39,0.39 0 0 1 0.43,-0.3 c 7.47,1.4 13.5,7.49 15.11,11.4 z"
           id="path50"
           style="fill:#223a7a" />
        <path
           class="cls-5"
           d="m 229.53,183.68 a 19.44,19.44 0 0 0 7.76,-8.28 23.48,23.48 0 0 0 2.79,-11.59 c 0,0 5.8,-0.93 14.49,1.66 8.69,2.59 19,6.1 27.72,1.14 8.72,-4.96 8.69,-12.93 4.45,-16.24 -4.75,-3.71 -14.17,-1.45 -14.17,-1.45 0,0 3.62,-3.52 1.65,-5.59 -1.97,-2.07 -9.1,0.62 -9.1,0.62 0,0 -8.69,-6.93 -25.14,-6.1 -16.45,0.83 -24.31,12.31 -25.24,25.15 -0.93,12.84 3.72,25.65 3.72,25.65 z"
           id="path52"
           style="fill:#223a7a" />
        <g
           class="cls-10"
           id="g56"
           style="mix-blend-mode:multiply">
          <path
             class="cls-11"
             d="m 262.9,186.79 c -0.93,2.29 -0.91,5 -1.14,7.4 -0.18,1.9 -0.53,4.11 1.21,5.39 0.83,0.61 4.75,2.26 2.73,3.6 a 5.3,5.3 0 0 1 -2.93,0.33 c -0.61,0 -1.22,0 -1.82,-0.1 -0.6,-0.1 -1.29,-0.24 -1.93,-0.25 a 0.38,0.38 0 0 0 -0.19,0.7 8,8 0 0 0 3.79,0.9 5.65,5.65 0 0 0 3.14,-0.55 2.27,2.27 0 0 0 1.44,-1.61 2.56,2.56 0 0 0 -1.24,-2.21 c -0.78,-0.58 -1.74,-0.85 -2.53,-1.42 -1.1,-0.78 -1,-2.1 -0.93,-3.33 0.18,-2.94 0.86,-5.83 1.12,-8.76 0,-0.44 -0.58,-0.44 -0.72,-0.09 z"
             id="path54"
             style="fill:#8e9bbb" />
        </g>
        <path
           class="cls-5"
           d="m 271.36,193.66 c -0.31,1.75 -1.58,3 -2.83,2.76 -1.25,-0.24 -2,-1.82 -1.72,-3.56 0.28,-1.74 1.58,-3 2.83,-2.76 1.25,0.24 2.03,1.82 1.72,3.56 z"
           id="path58"
           style="fill:#223a7a" />
        <path
           class="cls-5"
           d="m 255.53,192.28 c -0.28,1.88 -1.61,3.25 -3,3 -1.39,-0.25 -2.23,-1.89 -1.95,-3.77 0.28,-1.88 1.61,-3.24 3,-3 1.39,0.24 2.23,1.89 1.95,3.77 z"
           id="path60"
           style="fill:#223a7a" />
        <path
           class="cls-5"
           d="m 267.67,186.48 c 1,0.16 1.95,0 2.92,0.06 l 0.7,0.07 h -0.08 0.15 l 0.37,0.07 c 0.2,0.05 0.4,0.13 0.61,0.18 a 3,3 0 0 0 0.59,0.08 l 0.32,-0.05 h -0.2 a 3.37,3.37 0 0 0 0.4,0 1.09,1.09 0 0 0 0.74,-1.31 1.19,1.19 0 0 0 -0.21,-0.42 c 0,-0.06 -0.09,-0.11 -0.13,-0.16 l 0.12,0.13 -0.13,-0.17 a 0.66,0.66 0 0 0 -0.22,-0.22 l -0.24,-0.18 a 2.78,2.78 0 0 0 -0.89,-0.36 7.69,7.69 0 0 0 -1.78,-0.23 12.92,12.92 0 0 0 -1.76,0.14 3.38,3.38 0 0 0 -1.51,0.56 1,1 0 0 0 -0.47,1 1,1 0 0 0 0.7,0.82 z"
           id="path62"
           style="fill:#223a7a" />
        <path
           class="cls-5"
           d="m 256.64,183.71 a 3.17,3.17 0 0 0 -0.41,-0.21 c -0.11,-0.05 -0.43,-0.22 -0.19,-0.09 l -0.27,-0.14 a 6,6 0 0 0 -1.25,-0.45 8.32,8.32 0 0 0 -2.9,-0.2 6.71,6.71 0 0 0 -2.87,0.9 1.9,1.9 0 0 0 -0.37,0.26 l -0.2,0.27 v -0.09 a 1,1 0 0 0 -0.43,0.84 0.85,0.85 0 0 0 0.45,0.75 1.29,1.29 0 0 0 1,0 h -0.52 a 1.86,1.86 0 0 0 0.78,0 c 0,0 0.28,-0.07 0.1,0 -0.18,0.07 0.28,0 0.33,0 0.05,0 0.37,0 0,0 h 0.18 l 0.47,-0.05 c 0.68,0 1.36,-0.08 2.05,-0.1 0.69,-0.02 1.28,0 1.92,0 h 0.81 c 0.15,0 0.09,0 0,0 h 0.17 l 0.34,0.11 a 1,1 0 0 0 1.13,-0.55 1,1 0 0 0 -0.39,-1.2 z"
           id="path64"
           style="fill:#223a7a" />
        <path
           class="cls-5"
           d="m 261.55,212.47 a 9.38,9.38 0 0 1 4.67,-4.21 c -1.73,-0.18 -9.91,-0.93 -12,0.24 -2.31,1.31 0.43,6.59 5.21,6.85 a 6.32,6.32 0 0 0 1.4,-0.08 6.93,6.93 0 0 1 0.72,-2.8 z"
           id="path66"
           style="fill:#223a7a" />
        <path
           class="cls-12"
           d="m 223.74,201.37 c 0,0 0.83,3.2 5.59,6.93 a 55,55 0 0 0 11.67,6.44 l 0.55,-2.41 c 0,0 -7.14,-3.1 -10.45,-6.52 -3.31,-3.42 -3.72,-5.27 -3.72,-5.27 z"
           id="path68"
           style="fill:#dee1eb" />
        <path
           class="cls-5"
           d="m 242.36,210.55 a 6,6 0 0 1 6.23,4.8 c 0.27,2 -1.57,4.16 -5.87,2.23 -5.35,-2.4 -4.19,-6.86 -0.36,-7.03 z"
           id="path70"
           style="fill:#223a7a" />
        <path
           class="cls-12"
           d="m 226.74,177.68 c 0,0 1.65,-11.89 9.62,-20 15.21,-15.41 28.14,-14.48 28.14,-14.48 0,0 -0.11,-2.17 -5,-3.83 -4.56,-1.55 -6.62,-0.72 -6.62,-0.72 0,0 -12.52,1 -23.07,12.72 C 219.26,163.09 218.15,178 218.15,178 Z"
           id="path72"
           style="fill:#dee1eb" />
        <path
           class="cls-6"
           d="m 225.6,176.23 c -10,-1.69 -15.52,6.1 -15.93,14 -0.41,7.9 5.33,13.77 12.93,13.2 17.17,-1.34 15.21,-25.13 3,-27.2 z"
           id="path74"
           style="fill:#ffffff" />
        <path
           class="cls-13"
           d="m 220.64,195.79 a 6.79,6.79 0 0 1 -6.12,-3.64 7.57,7.57 0 0 1 0.29,-7.82 0.3744329,0.3744329 0 1 1 0.62,0.42 6.81,6.81 0 0 0 -0.25,7 6,6 0 0 0 5.65,3.25 6.54,6.54 0 0 0 5.43,-2.93 8.27,8.27 0 0 0 0.82,-7.35 5.59,5.59 0 0 0 -5.58,-3.67 0.37,0.37 0 0 1 -0.42,-0.32 0.38,0.38 0 0 1 0.32,-0.42 6.27,6.27 0 0 1 6.39,4.15 9.08,9.08 0 0 1 -0.9,8 7.33,7.33 0 0 1 -6,3.26 z"
           id="path76"
           style="fill:#818fb3" />
        <path
           class="cls-5"
           d="m 213.39,228.26 c 0,0 -30.2,7.45 -40.75,19.45 -10.55,12 -15.52,71.17 -15.73,82.14 -0.21,10.97 7.45,15.52 12,18.62 4.55,3.1 24.62,8.69 40.76,9.52 16.14,0.83 31.45,0 31.45,0 a 21.54,21.54 0 0 1 2.43,-8.69 c 2.3,-4.8 5.22,-5.8 5.22,-5.8 l -13.86,-5 c 0,0 -2.43,-43.5 -6.21,-64.5 -4.34,-24.22 -15.31,-45.74 -15.31,-45.74 z"
           id="path78"
           style="fill:#223a7a" />
        <path
           class="cls-9"
           d="m 263.46,331.59 a 0.51,0.51 0 0 1 -0.2,0 0.5,0.5 0 0 1 -0.25,-0.66 c 2.83,-6.39 5.76,-18.92 7.41,-27.72 l 0.14,-0.71 c 0.5,-2.59 1.12,-5.81 -0.12,-8 -0.64,-1.13 -2.07,-3.59 -3.44,-5.95 -1.37,-2.36 -2.77,-4.77 -3.15,-5.46 -0.73,-1.35 1.57,-5 4.89,-9.91 0.89,-1.34 1.67,-2.49 2.12,-3.27 1.19,-2 0.4,-3.93 -0.51,-6.1 L 270,263 c -0.82,-2 -1.76,-4.06 -2.67,-6 l -1.11,-2.42 c -0.49,-1.07 -1,-2.15 -1.47,-3.26 a 188.91,188.91 0 0 0 -9.75,-19.8 0.51,0.51 0 0 1 0.18,-0.69 0.49,0.49 0 0 1 0.68,0.18 190,190 0 0 1 9.87,19.87 l 1.47,3.25 1.11,2.41 c 0.91,2 1.85,4 2.69,6.07 l 0.31,0.74 c 0.93,2.22 1.89,4.51 0.46,7 -0.47,0.81 -1.25,2 -2.16,3.33 -1.73,2.58 -5.34,7.95 -4.84,8.87 0.37,0.68 1.71,3 3.13,5.44 1.42,2.44 2.82,4.83 3.45,6 1.42,2.54 0.76,5.95 0.23,8.7 l -0.14,0.7 c -0.6,3.21 -3.79,19.61 -7.48,27.94 a 0.5,0.5 0 0 1 -0.5,0.26 z"
           id="path80"
           style="fill:#8593b6" />
        <path
           class="cls-9"
           d="m 234,333.35 a 0.47,0.47 0 0 1 -0.35,-0.15 c -2.36,-2.37 -13.69,-22 -14.54,-25.69 -0.46,-2 0.7,-7.15 1.82,-12.11 0.87,-3.84 1.77,-7.81 1.52,-8.88 -0.39,-1.61 -3.29,-4 -6.09,-6.27 -3.39,-2.77 -6.89,-5.63 -7.57,-8.21 -0.77,-2.93 -0.11,-21.26 0.33,-33.39 0.15,-4.37 0.28,-7.81 0.28,-9 a 0.5,0.5 0 0 1 0.5,-0.5 v 0 a 0.5,0.5 0 0 1 0.5,0.5 c 0,1.24 -0.13,4.7 -0.28,9.07 -0.41,11.34 -1.09,30.32 -0.36,33.11 0.6,2.26 4.12,5.14 7.23,7.69 3.11,2.55 6,4.87 6.43,6.8 0.31,1.3 -0.54,5 -1.51,9.34 -1,4.63 -2.23,9.86 -1.82,11.67 0.83,3.61 12,22.88 14.27,25.21 a 0.49,0.49 0 0 1 0,0.7 0.47,0.47 0 0 1 -0.36,0.11 z"
           id="path82"
           style="fill:#8593b6" />
        <path
           class="cls-9"
           d="m 193.33,324.76 h -0.07 a 0.5,0.5 0 0 1 -0.43,-0.57 c 0.37,-2.6 6.11,-54.4 6.37,-58.37 a 0.5012235,0.5012235 0 0 1 1,0.07 c -0.27,4 -6,55.84 -6.38,58.44 a 0.5,0.5 0 0 1 -0.49,0.43 z"
           id="path84"
           style="fill:#8593b6" />
        <path
           class="cls-9"
           d="m 234.5,338.83 a 0.43,0.43 0 0 1 -0.19,0 c -1.27,-0.51 -6.89,-2.41 -14,-4.81 -14.36,-4.84 -34,-11.47 -37.77,-13.41 a 0.51,0.51 0 0 1 -0.21,-0.68 0.5,0.5 0 0 1 0.67,-0.21 c 3.67,1.91 24.11,8.8 37.62,13.36 7.13,2.4 12.77,4.3 14.07,4.83 a 0.5,0.5 0 0 1 0.27,0.65 0.51,0.51 0 0 1 -0.46,0.27 z"
           id="path86"
           style="fill:#8593b6" />
        <path
           class="cls-9"
           d="m 227.59,359.46 c -12.63,0 -37.13,-2.28 -55.74,-8.86 a 0.5265216,0.5265216 0 0 1 0.33,-1 c 23.51,8.32 56.4,9.74 62.52,8.37 a 0.51195703,0.51195703 0 1 1 0.22,1 39.61,39.61 0 0 1 -7.33,0.49 z"
           id="path88"
           style="fill:#8593b6" />
        <path
           class="cls-14"
           d="m 83,235.24 c 3.92,3.45 8.89,5.66 12.33,9.65 1.36,1.57 2.57,3.24 3.83,4.89 0.92,1.2 3.36,3.18 3.76,4.69 0.17,0.66 0.13,-0.24 0,-0.9 v -0.08 c -0.34,-3.05 -0.59,-6.11 -0.7,-9.18 -0.11,-3.07 0.09,-6.13 -0.1,-9.19 -0.28,-4.3 -1.62,-8.48 -5.14,-11.18 -1.72,-1.31 -3.94,-2.12 -5.52,-3.58 -1.58,-1.46 -0.9,-3 0,-4.53 a 15.82,15.82 0 0 0 2.15,-4.55 8.06,8.06 0 0 0 -1.31,-5.47 c -2.05,-3.44 -6.6,-7.28 -10.9,-6.76 -3.59,0.43 -4,4.57 -3.94,7.45 0.06,2.88 0.32,5.6 0.35,8.41 0.03,2.81 -0.46,5.7 -0.5,8.57 -0.19,4.88 2.06,8.6 5.69,11.76 z"
           id="path90"
           style="fill:#6baeff" />
        <path
           class="cls-14"
           d="m 119.41,280 a 46.24,46.24 0 0 1 3.88,-7.41 c 2.12,-3.25 4.46,-6.42 5.88,-10.05 1.42,-3.63 1.24,-7.7 1.38,-11.61 0.11,-2.87 1,-5.74 0.73,-8.63 -0.11,-1.38 -0.91,-3.61 -2.69,-3.39 -1.4,0.18 -2.22,1.91 -2.76,3 a 52.68,52.68 0 0 0 -2.27,6 c -0.27,0.79 -0.53,1.59 -0.87,2.35 -0.2,0.44 -0.84,1.52 -1.43,1.38 -1,-0.26 -0.1,-4.41 0,-5.14 0.76,-3.69 1.91,-7.12 2.06,-10.92 0.23,-5.51 -0.19,-12.07 -5.58,-15.08 -1.41,-0.79 -3.19,-1.26 -4.53,-0.08 -1.34,1.18 -1.7,3.18 -1.89,4.83 -0.6,5.09 0.59,9.91 2.23,14.69 1.34,4 2.94,8 3.06,12.26 0.11,4.07 -2,7.67 -3,11.52 a 36.51,36.51 0 0 0 -1.26,11.35 c 0,2.48 0.08,4.94 0.26,7.42 0.17,2.28 0.37,4.55 0.65,6.82 0,0.46 0.1,0.94 0.17,1.42 -0.88,-2.11 -1.19,-4.52 -1.91,-6.64 -1.29,-3.76 -2.78,-7.45 -4,-11.23 a 92.34,92.34 0 0 0 -3.33,-9.28 c -1.27,-2.81 -2.79,-5.79 -5.15,-7.86 a 7.56,7.56 0 0 0 -5.06,-2 13.85,13.85 0 0 0 -3.48,0.74 3.92,3.92 0 0 1 -3.75,-0.66 c -3.86,-3 -5,-8.29 -7.89,-12 -2.1,-2.8 -7.16,-7.57 -10.86,-4.52 -2,1.62 -2.52,4.76 -2.41,7.16 a 17.33,17.33 0 0 0 3,8.29 c 1.67,2.68 3.82,5.08 5.36,7.83 a 8.31,8.31 0 0 1 0.9,5 12,12 0 0 0 0.3,5.07 c 1.77,5 7.3,4.31 11.6,4.44 a 32.22,32.22 0 0 1 9.09,1.51 10.09,10.09 0 0 1 6.63,6.52 c 0.85,2.36 1.31,5 2.92,7.05 a 7.51,7.51 0 0 0 2.85,2.13 c 1.68,0.74 6.79,1.06 6.83,0.6 a 22.68,22.68 0 0 1 1.33,-4.7 c 0.86,-2.76 1.88,-5.47 3.01,-8.18 z"
           id="path92"
           style="fill:#6baeff" />
        <path
           class="cls-14"
           d="m 143.14,279.08 c -0.44,-2.87 -0.36,-6 -1.72,-8.65 a 0.38,0.38 0 0 0 -0.52,-0.14 c -1,0.54 -1,2.11 -1.1,3.07 -0.13,1.6 0,3.2 -0.23,4.79 a 36.09,36.09 0 0 1 -2,8.31 9,9 0 0 1 -6.23,5.6 15.83,15.83 0 0 0 -5.44,2.4 11.51,11.51 0 0 0 -3.2,4.41 c -2,4.51 -3,9.54 -3.89,14.36 -0.63,3.24 -1.14,6.5 -1.93,9.71 a 94,94 0 0 0 -2.08,9.67 c -0.08,0.17 -0.16,0.33 -0.23,0.5 -0.21,0.49 0.56,0.75 0.82,0.35 3.11,-4.79 6.9,-9.08 12.06,-11.71 2.33,-1.19 5.43,-1.44 7.38,-3.31 1.48,-1.42 1.68,-3.59 1.46,-5.53 -0.29,-2.54 -1.51,-4.63 -2.78,-6.79 -0.7,-1.19 -1.52,-2.47 -1.24,-3.91 a 5,5 0 0 1 2.53,-3.07 c 2.14,-1.33 4.65,-1.93 6.41,-3.85 a 10.51,10.51 0 0 0 2.72,-6.41 44.23,44.23 0 0 0 -0.79,-9.8 z"
           id="path94"
           style="fill:#6baeff" />
        <path
           class="cls-14"
           d="m 100.77,295.59 a 41.22,41.22 0 0 0 -9.77,-9 c -2,-1.32 -6.67,-3.92 -7.62,0 -0.55,2.28 1.68,4.52 3.15,5.95 2.21,2.15 4.76,4 6.62,6.48 -2.3,0.74 -4.71,0.88 -6.72,2.48 -2.37,1.89 -3.44,5.53 -1.08,7.85 a 15.16,15.16 0 0 0 4.09,2.51 c 1.86,0.89 3.75,1.71 5.65,2.5 4.11,1.72 8.27,3.46 11.77,6.27 3.5,2.81 6.93,7.71 7.21,12.38 0,0.45 -0.14,0 0.12,-0.16 0.15,0.13 0.64,-0.11 0.64,-0.37 a 49.37,49.37 0 0 0 -4.16,-19.89 82.64,82.64 0 0 0 -9.9,-17 z"
           id="path96"
           style="fill:#6baeff" />
        <path
           class="cls-15"
           d="m 91.3,231 c 1.52,3.14 3.1,6.2 4.78,9.26 a 76.17,76.17 0 0 1 4.44,9 c 1.49,3.87 3,7.68 4.62,11.52 a 112.27,112.27 0 0 1 4.27,12.2 144.67,144.67 0 0 1 4.83,24.81 100,100 0 0 1 0.51,12.83 c -0.09,3.34 -0.47,6.65 -0.78,10 a 58.73,58.73 0 0 0 -0.28,10.44 c 0.25,2.9 0.71,6.35 3,8.42 a 0.52,0.52 0 0 0 0.81,-0.62 c -2.68,-5.49 -2.53,-11.48 -2,-17.44 0.29,-3.28 0.68,-6.55 0.79,-9.85 a 98,98 0 0 0 -0.42,-12.59 148.86,148.86 0 0 0 -4.54,-24.32 108.69,108.69 0 0 0 -4,-12 c -1.55,-3.94 -3.35,-7.78 -4.86,-11.74 -2.73,-7.17 -6.9,-13.52 -10.58,-20.2 -0.19,-0.35 -0.69,0 -0.53,0.31 z"
           id="path98"
           style="fill:#43588e" />
        <path
           class="cls-15"
           d="m 114.37,289.64 c 0.43,-5.22 0.89,-10.24 2.65,-15.22 0.82,-2.32 1.82,-4.58 2.61,-6.91 0.65,-1.93 1.63,-4.57 1.13,-6.62 a 0.23,0.23 0 0 0 -0.45,0 c -0.34,1.17 -0.3,2.45 -0.55,3.65 a 31.25,31.25 0 0 1 -0.91,3.45 c -0.77,2.41 -1.78,4.72 -2.66,7.1 a 35.19,35.19 0 0 0 -2.19,14.55 0.18,0.18 0 0 0 0.36,0 z"
           id="path100"
           style="fill:#43588e" />
        <path
           class="cls-15"
           d="m 84.12,259.65 c 2.07,5 8.3,5.29 12.84,6.41 a 12,12 0 0 1 7.35,5.77 43.78,43.78 0 0 1 4.19,10.1 c 0,0 0.07,0 0.06,0 -1.27,-6 -3.08,-13.22 -9.27,-16 -5,-2.24 -11.48,-1.12 -14.65,-6.47 -0.16,-0.26 -0.64,-0.09 -0.52,0.22 z"
           id="path102"
           style="fill:#43588e" />
        <path
           class="cls-15"
           d="m 111.09,288.85 c 0.25,0.33 0.47,0.68 0.73,1 a 2.43,2.43 0 0 0 0.41,0.44 1,1 0 0 0 0.58,0.29 0.12,0.12 0 0 0 0.11,-0.18 2.1,2.1 0 0 0 -0.44,-0.4 l -0.44,-0.39 c -0.29,-0.28 -0.55,-0.58 -0.84,-0.86 0,-0.05 -0.16,0 -0.11,0.09 z"
           id="path104"
           style="fill:#43588e" />
        <path
           class="cls-15"
           d="m 98.14,304.73 a 50.47,50.47 0 0 1 9.49,10.2 62,62 0 0 1 3.45,5.69 62.62,62.62 0 0 1 2.8,6.59 c 0.06,0.17 0.37,0.17 0.35,0 -0.5,-4.71 -3.48,-8.74 -5.87,-12.66 a 30.41,30.41 0 0 0 -4.44,-5.37 39.08,39.08 0 0 0 -5.46,-4.82 c -0.24,-0.17 -0.56,0.22 -0.32,0.42 z"
           id="path106"
           style="fill:#43588e" />
        <path
           class="cls-15"
           d="m 126.59,299.18 c -1.72,1 -1.77,3.7 -1.81,5.43 -0.06,3.34 0.76,6.47 -0.7,9.65 -1.32,2.87 -3.43,5.27 -5.1,7.93 -1.55,2.5 -3.08,5.69 -3,8.69 0,0.18 0.27,0.27 0.35,0.1 a 36.67,36.67 0 0 0 1.3,-4.34 18,18 0 0 1 2.12,-4.48 c 1.6,-2.48 3.56,-4.73 4.86,-7.4 1.3,-2.67 1.16,-5.58 1.07,-8.62 -0.06,-1.94 -0.25,-5.06 1.31,-6.5 0.25,-0.23 -0.06,-0.61 -0.35,-0.46 z"
           id="path108"
           style="fill:#43588e" />
        <path
           class="cls-6"
           d="M 115.08,331.19 C 108.15,331.1 95,331 95,331 l 3.26,24.26 a 11,11 0 0 0 10.91,9.53 H 121.1 A 11,11 0 0 0 132,355.26 L 135.22,331 c 0,0 -13.22,0.1 -20.14,0.19 z"
           id="path110"
           style="fill:#ffffff" />
        <polygon
           class="cls-16"
           points="450.19,286.61 410.64,364.95 295.32,365.78 330.91,285.5 "
           id="polygon112"
           style="fill:#f6f7fa" />
        <path
           class="cls-17"
           d="m 218.8,365.29 v -6.27 h 74.64 l 34.35,-75.31 h 119.4 l 3,2.9 H 333.57 l -35.69,78.62 c 0,0 -79.08,-0.15 -79.08,0.06 z"
           id="path114"
           style="fill:#d9dee8" />
        <path
           class="cls-17"
           d="m 390.31,329.84 c -1.3,3.91 -8.37,6.92 -15.79,6.74 -7.42,-0.18 -12.38,-3.5 -11.08,-7.41 1.3,-3.91 8.38,-6.93 15.8,-6.74 7.42,0.19 12.37,3.5 11.07,7.41 z"
           id="path116"
           style="fill:#d9dee8" />
        <path
           class="cls-6"
           d="m 297.88,365.73 a 0.54,0.54 0 0 1 -0.21,-0.05 0.5,0.5 0 0 1 -0.25,-0.66 l 35.82,-78.91 h 117 a 0.5,0.5 0 0 1 0.5,0.5 0.51,0.51 0 0 1 -0.5,0.5 H 333.89 l -35.56,78.33 a 0.49,0.49 0 0 1 -0.45,0.29 z"
           id="path118"
           style="fill:#ffffff" />
        <rect
           class="cls-18"
           x="76.43"
           y="371.23001"
           width="137.17"
           height="30.41"
           id="rect120"
           style="fill:#596b9b" />
        <rect
           class="cls-19"
           x="212.82001"
           y="371.23001"
           width="246.8"
           height="30.41"
           id="rect122"
           style="fill:#7a89af" />
        <polygon
           class="cls-20"
           points="213.6,371.23 212.82,371.23 76.43,371.23 76.43,376.81 212.82,376.81 213.6,376.81 459.62,376.81 459.62,371.23 "
           id="polygon124"
           style="mix-blend-mode:multiply;fill:#bdc4d7" />
        <rect
           class="cls-21"
           x="69.809998"
           y="365.23001"
           width="149.78999"
           height="7.4499998"
           id="rect126"
           style="fill:#6f7fa9" />
        <rect
           class="cls-22"
           x="218.82001"
           y="365.23001"
           width="246.8"
           height="7.4499998"
           id="rect128"
           style="fill:#9ca6c3" />
        <rect
           class="cls-6"
           x="125.12"
           y="170.63"
           width="59.279999"
           height="35.029999"
           rx="5.4299998"
           id="rect130"
           style="fill:#ffffff" />
        <polygon
           class="cls-6"
           points="180.01,195.82 198.19,188.14 180.01,180.47 "
           id="polygon132"
           style="fill:#ffffff" />
        <circle
           class="cls-5"
           cx="143.27"
           cy="188.14"
           r="3.3499999"
           id="circle134"
           style="fill:#223a7a" />
        <circle
           class="cls-5"
           cx="154.75999"
           cy="188.14"
           r="3.3499999"
           id="circle136"
           style="fill:#223a7a" />
        <circle
           class="cls-5"
           cx="166.24001"
           cy="188.14"
           r="3.3499999"
           id="circle138"
           style="fill:#223a7a" />
        <path
           class="cls-4"
           d="M 425.5,96.26 H 313.7 a 13,13 0 0 0 -13,13 v 53 a 13,13 0 0 0 13,13 h 10 c 0.28,4.8 -0.41,12 -4.43,21.1 a 56.13,56.13 0 0 0 24.24,-21.1 h 82 a 13,13 0 0 0 13,-13 v -53 a 13,13 0 0 0 -13.01,-13 z"
           id="path140"
           style="fill:#60a8ff" />
        <path
           class="cls-6"
           d="m 377.81,121.54 h -55.45 a 2.77,2.77 0 0 1 -2.76,-2.76 v 0 a 2.77,2.77 0 0 1 2.76,-2.76 h 55.45 a 2.77,2.77 0 0 1 2.76,2.76 v 0 a 2.77,2.77 0 0 1 -2.76,2.76 z"
           id="path142"
           style="fill:#ffffff" />
        <path
           class="cls-23"
           d="m 417.57,137.61 h -96.28 a 1.69,1.69 0 0 1 -1.69,-1.69 v 0 a 1.69,1.69 0 0 1 1.69,-1.69 h 96.28 a 1.69,1.69 0 0 1 1.69,1.69 v 0 a 1.69,1.69 0 0 1 -1.69,1.69 z"
           id="path144"
           style="fill:#d2e6ff" />
        <path
           class="cls-23"
           d="m 417.57,147 h -96.28 a 1.69,1.69 0 0 1 -1.69,-1.69 v 0 a 1.69,1.69 0 0 1 1.69,-1.69 h 96.28 a 1.69,1.69 0 0 1 1.69,1.69 v 0 a 1.69,1.69 0 0 1 -1.69,1.69 z"
           id="path146"
           style="fill:#d2e6ff" />
        <path
           class="cls-23"
           d="m 396.57,157 h -75.28 a 1.69,1.69 0 0 1 -1.69,-1.69 v 0 a 1.69,1.69 0 0 1 1.69,-1.69 h 75.28 a 1.69,1.69 0 0 1 1.69,1.69 v 0 a 1.69,1.69 0 0 1 -1.69,1.69 z"
           id="path148"
           style="fill:#d2e6ff" />
        <path
           class="cls-6"
           d="m 416.81,121.54 h -26.45 a 2.77,2.77 0 0 1 -2.76,-2.76 v 0 a 2.77,2.77 0 0 1 2.76,-2.76 h 26.45 a 2.77,2.77 0 0 1 2.76,2.76 v 0 a 2.77,2.77 0 0 1 -2.76,2.76 z"
           id="path150"
           style="fill:#ffffff" />
        <rect
           class="cls-6"
           x="318.10999"
           y="218.99001"
           width="34.029999"
           height="24.52"
           rx="2"
           id="rect152"
           style="fill:#ffffff" />
        <path
           class="cls-21"
           d="m 335.33,234.91 a 0.78,0.78 0 0 1 -0.47,-0.17 l -16.35,-13.5 a 0.76576759,0.76576759 0 1 1 1,-1.16 l 15.85,13.1 15.45,-13.45 a 0.75447001,0.75447001 0 1 1 1,1.13 l -15.93,13.86 a 0.73,0.73 0 0 1 -0.55,0.19 z"
           id="path154"
           style="fill:#6f7fa9" />
        <path
           class="cls-21"
           d="m 319,242.94 a 0.74,0.74 0 0 1 -0.54,-1.26 l 11.43,-12 a 0.75,0.75 0 0 1 1.06,0 0.75,0.75 0 0 1 0,1.06 l -11.43,12 a 0.7,0.7 0 0 1 -0.52,0.2 z"
           id="path156"
           style="fill:#6f7fa9" />
        <path
           class="cls-21"
           d="m 351.27,242.5 a 0.75,0.75 0 0 1 -0.54,-0.22 l -11.38,-11.41 a 0.75,0.75 0 0 1 0,-1.06 0.74,0.74 0 0 1 1.06,0 l 11.39,11.41 a 0.76,0.76 0 0 1 0,1.07 0.73,0.73 0 0 1 -0.53,0.21 z"
           id="path158"
           style="fill:#6f7fa9" />
        <circle
           class="cls-24"
           cx="353.70001"
           cy="218.23"
           r="10.03"
           id="circle160"
           style="fill:#ff5f42" />
        <text
           class="cls-25"
           transform="translate(346.65,222.46)"
           id="text162"
           style="font-weight:700;font-size:12px;font-family:Quicksand-Bold, Quicksand;fill:#ffffff">85</text>
        <rect
           class="cls-5"
           x="391.87"
           y="197.36"
           width="66.620003"
           height="17.17"
           rx="4"
           id="rect164"
           style="fill:#223a7a" />
        <path
           class="cls-6"
           d="m 400.1,210.45 a 0.77,0.77 0 0 1 -0.63,-0.28 0.94,0.94 0 0 1 -0.22,-0.7 l 0.26,-2.23 c 0,-0.05 0,-0.09 0,-0.11 0,-0.02 -0.08,0 -0.14,0 l -1.83,1.32 a 0.85,0.85 0 0 1 -0.7,0.18 0.86,0.86 0 0 1 -0.6,-0.43 0.85,0.85 0 0 1 -0.09,-0.79 0.91,0.91 0 0 1 0.52,-0.48 l 2.05,-0.93 c 0.06,0 0.09,0 0.09,-0.08 0,-0.08 0,-0.07 -0.09,-0.09 l -2.05,-0.92 a 0.85,0.85 0 0 1 -0.51,-0.54 0.94,0.94 0 0 1 0.08,-0.73 0.91,0.91 0 0 1 0.6,-0.44 1,1 0 0 1 0.7,0.16 l 1.83,1.35 c 0.06,0 0.1,0 0.14,0 0.04,0 0,-0.06 0,-0.12 l -0.26,-2.22 a 0.89,0.89 0 0 1 0.23,-0.7 0.85,0.85 0 0 1 0.68,-0.28 0.84,0.84 0 0 1 0.84,1 l -0.25,2.22 c 0,0.06 0,0.1 0,0.12 a 0.15,0.15 0 0 0 0.15,0 l 1.82,-1.32 a 0.93,0.93 0 0 1 0.72,-0.19 0.83,0.83 0 0 1 0.58,0.44 0.86,0.86 0 0 1 0.1,0.79 1,1 0 0 1 -0.52,0.48 l -2.06,0.92 c -0.05,0 -0.08,0 -0.08,0.09 0,0.09 0,0.06 0.08,0.08 l 2.06,0.93 a 0.89,0.89 0 0 1 0.52,0.54 0.84,0.84 0 0 1 -0.1,0.73 0.79,0.79 0 0 1 -0.58,0.43 0.94,0.94 0 0 1 -0.72,-0.15 l -1.82,-1.35 a 0.15,0.15 0 0 0 -0.15,0 0.09,0.09 0 0 0 0,0.11 l 0.25,2.23 a 0.8,0.8 0 0 1 -0.21,0.7 0.9,0.9 0 0 1 -0.69,0.26 z"
           id="path166"
           style="fill:#ffffff" />
        <path
           class="cls-6"
           d="m 412.22,210.45 a 0.78,0.78 0 0 1 -0.63,-0.28 0.93,0.93 0 0 1 -0.21,-0.7 l 0.25,-2.23 c 0,-0.05 0,-0.09 0,-0.11 0,-0.02 -0.08,0 -0.14,0 l -1.83,1.32 a 0.84,0.84 0 0 1 -0.7,0.18 1,1 0 0 1 -0.69,-1.22 1,1 0 0 1 0.52,-0.48 l 2.06,-0.93 c 0.05,0 0.08,0 0.08,-0.08 0,-0.08 0,-0.07 -0.08,-0.09 l -2.06,-0.92 a 0.9,0.9 0 0 1 -0.51,-0.54 1,1 0 0 1 0.09,-0.73 0.91,0.91 0 0 1 0.59,-0.44 0.94,0.94 0 0 1 0.7,0.16 l 1.83,1.35 c 0.06,0 0.11,0 0.14,0 0.03,0 0,-0.06 0,-0.12 l -0.25,-2.22 a 0.93,0.93 0 0 1 0.22,-0.7 0.87,0.87 0 0 1 0.68,-0.28 0.83,0.83 0 0 1 0.65,0.28 0.81,0.81 0 0 1 0.19,0.7 l -0.25,2.22 q 0,0.09 0,0.12 c 0,0 0.08,0 0.14,0 l 1.83,-1.32 a 0.91,0.91 0 0 1 0.72,-0.19 0.81,0.81 0 0 1 0.57,0.44 0.83,0.83 0 0 1 0.1,0.79 1,1 0 0 1 -0.52,0.48 l -2.05,0.92 q -0.09,0 -0.09,0.09 c 0,0 0,0.06 0.09,0.08 l 2.05,0.93 a 0.87,0.87 0 0 1 0.52,0.54 0.81,0.81 0 0 1 -0.1,0.73 0.78,0.78 0 0 1 -0.57,0.43 0.92,0.92 0 0 1 -0.72,-0.15 L 413,207.16 c -0.06,0 -0.1,0 -0.14,0 -0.04,0 0,0.06 0,0.11 l 0.25,2.23 a 0.8,0.8 0 0 1 -0.21,0.7 0.9,0.9 0 0 1 -0.68,0.25 z"
           id="path168"
           style="fill:#ffffff" />
        <path
           class="cls-6"
           d="m 424.35,210.45 a 0.8,0.8 0 0 1 -0.64,-0.28 0.93,0.93 0 0 1 -0.21,-0.7 l 0.26,-2.23 c 0,-0.05 0,-0.09 0,-0.11 a 0.13,0.13 0 0 0 -0.14,0 l -1.83,1.32 a 0.85,0.85 0 0 1 -0.7,0.18 0.86,0.86 0 0 1 -0.6,-0.43 0.83,0.83 0 0 1 -0.09,-0.79 0.91,0.91 0 0 1 0.52,-0.48 l 2.05,-0.93 c 0.06,0 0.09,0 0.09,-0.08 0,-0.08 0,-0.07 -0.09,-0.09 l -2.05,-0.92 a 0.85,0.85 0 0 1 -0.51,-0.54 0.94,0.94 0 0 1 0.08,-0.73 0.91,0.91 0 0 1 0.6,-0.44 1,1 0 0 1 0.7,0.16 l 1.83,1.35 a 0.13,0.13 0 0 0 0.14,0 c 0,0 0,-0.06 0,-0.12 l -0.26,-2.22 a 0.89,0.89 0 0 1 0.23,-0.7 0.85,0.85 0 0 1 0.67,-0.28 0.84,0.84 0 0 1 0.85,1 l -0.25,2.22 c 0,0.06 0,0.1 0,0.12 a 0.13,0.13 0 0 0 0.14,0 l 1.83,-1.32 a 0.93,0.93 0 0 1 0.72,-0.19 0.83,0.83 0 0 1 0.58,0.44 0.86,0.86 0 0 1 0.1,0.79 1,1 0 0 1 -0.52,0.48 l -2.06,0.92 c -0.05,0 -0.08,0 -0.08,0.09 0,0.09 0,0.06 0.08,0.08 l 2.06,0.93 a 0.89,0.89 0 0 1 0.52,0.54 0.84,0.84 0 0 1 -0.1,0.73 0.79,0.79 0 0 1 -0.58,0.43 0.94,0.94 0 0 1 -0.72,-0.15 l -1.83,-1.35 a 0.13,0.13 0 0 0 -0.14,0 0.09,0.09 0 0 0 0,0.11 l 0.25,2.23 a 0.8,0.8 0 0 1 -0.21,0.7 0.9,0.9 0 0 1 -0.69,0.26 z"
           id="path170"
           style="fill:#ffffff" />
        <path
           class="cls-6"
           d="m 436.47,210.45 a 0.78,0.78 0 0 1 -0.63,-0.28 0.93,0.93 0 0 1 -0.21,-0.7 l 0.25,-2.23 c 0,-0.05 0,-0.09 0,-0.11 0,-0.02 -0.08,0 -0.14,0 l -1.83,1.32 a 0.84,0.84 0 0 1 -0.7,0.18 1,1 0 0 1 -0.69,-1.22 A 1,1 0 0 1 433,207 l 2.06,-0.93 c 0.05,0 0.08,0 0.08,-0.08 0,-0.08 0,-0.07 -0.08,-0.09 L 433,204.98 a 0.9,0.9 0 0 1 -0.51,-0.54 1,1 0 0 1 0.09,-0.73 0.91,0.91 0 0 1 0.59,-0.44 0.94,0.94 0 0 1 0.7,0.16 l 1.83,1.35 c 0.06,0 0.11,0 0.14,0 0.03,0 0,-0.06 0,-0.12 l -0.25,-2.22 a 0.89,0.89 0 0 1 0.22,-0.7 0.87,0.87 0 0 1 0.68,-0.28 0.83,0.83 0 0 1 0.65,0.28 0.81,0.81 0 0 1 0.19,0.7 l -0.25,2.22 q 0,0.09 0,0.12 c 0,0 0.08,0 0.14,0 l 1.83,-1.32 a 0.91,0.91 0 0 1 0.72,-0.19 0.81,0.81 0 0 1 0.57,0.44 0.86,0.86 0 0 1 0.1,0.79 1,1 0 0 1 -0.52,0.48 l -2.05,0.92 q -0.09,0 -0.09,0.09 c 0,0 0,0.06 0.09,0.08 L 440,207 a 0.87,0.87 0 0 1 0.52,0.54 0.81,0.81 0 0 1 -0.1,0.73 0.78,0.78 0 0 1 -0.57,0.43 0.92,0.92 0 0 1 -0.72,-0.15 l -1.83,-1.35 c -0.06,0 -0.1,0 -0.14,0 -0.04,0 0,0.06 0,0.11 l 0.25,2.23 a 0.8,0.8 0 0 1 -0.21,0.7 0.9,0.9 0 0 1 -0.73,0.21 z"
           id="path172"
           style="fill:#ffffff" />
        <path
           class="cls-26"
           d="m 448.6,210.45 a 0.79,0.79 0 0 1 -0.64,-0.28 0.93,0.93 0 0 1 -0.21,-0.7 l 0.26,-2.23 c 0,-0.05 0,-0.09 0,-0.11 a 0.13,0.13 0 0 0 -0.14,0 l -1.87,1.35 a 0.92,0.92 0 0 1 -1.4,-1 1,1 0 0 1 0.53,-0.48 l 2.05,-0.93 c 0.06,0 0.08,0 0.08,-0.08 0,-0.08 0,-0.07 -0.08,-0.09 l -2.05,-0.92 a 0.85,0.85 0 0 1 -0.51,-0.54 0.9,0.9 0 0 1 0.08,-0.73 0.91,0.91 0 0 1 0.59,-0.44 1,1 0 0 1 0.71,0.16 l 1.83,1.35 a 0.13,0.13 0 0 0 0.14,0 c 0,0 0,-0.06 0,-0.12 l -0.26,-2.22 a 0.89,0.89 0 0 1 0.23,-0.7 0.85,0.85 0 0 1 0.67,-0.28 0.84,0.84 0 0 1 0.85,1 l -0.26,2.22 c 0,0.06 0,0.1 0,0.12 a 0.13,0.13 0 0 0 0.14,0 l 1.83,-1.32 a 0.93,0.93 0 0 1 0.72,-0.19 0.83,0.83 0 0 1 0.58,0.44 0.86,0.86 0 0 1 0.1,0.79 1,1 0 0 1 -0.53,0.48 l -2.05,0.92 c -0.06,0 -0.08,0 -0.08,0.09 0,0.09 0,0.06 0.08,0.08 l 2.05,0.93 a 0.88,0.88 0 0 1 0.53,0.54 0.84,0.84 0 0 1 -0.1,0.73 0.79,0.79 0 0 1 -0.58,0.43 0.94,0.94 0 0 1 -0.72,-0.15 l -1.83,-1.35 a 0.13,0.13 0 0 0 -0.14,0 c 0,0 0,0.06 0,0.11 l 0.26,2.23 a 0.8,0.8 0 0 1 -0.21,0.7 0.9,0.9 0 0 1 -0.65,0.19 z"
           id="path174"
           style="fill:#67acff" />
      </g>
    </g>
  </g>
</svg>
