<?xml version="1.0" encoding="UTF-8" standalone="no"?>
<!-- Created with Inkscape (http://www.inkscape.org/) -->

<svg
   width="12.700135mm"
   height="12.700135mm"
   viewBox="0 0 12.700135 12.700135"
   version="1.1"
   id="svg4690"
   inkscape:version="1.2.1 (9c6d41e410, 2022-07-14)"
   sodipodi:docname="wp-host-logo.svg"
   xmlns:inkscape="http://www.inkscape.org/namespaces/inkscape"
   xmlns:sodipodi="http://sodipodi.sourceforge.net/DTD/sodipodi-0.dtd"
   xmlns="http://www.w3.org/2000/svg"
   xmlns:svg="http://www.w3.org/2000/svg">
  <sodipodi:namedview
     id="namedview4692"
     pagecolor="#ffffff"
     bordercolor="#666666"
     borderopacity="1.0"
     inkscape:showpageshadow="2"
     inkscape:pageopacity="0.0"
     inkscape:pagecheckerboard="0"
     inkscape:deskcolor="#d1d1d1"
     inkscape:document-units="mm"
     showgrid="false"
     inkscape:zoom="0.71446409"
     inkscape:cx="-155.3612"
     inkscape:cy="12.596854"
     inkscape:window-width="1920"
     inkscape:window-height="1030"
     inkscape:window-x="0"
     inkscape:window-y="0"
     inkscape:window-maximized="1"
     inkscape:current-layer="layer1" />
  <defs
     id="defs4687">
    <linearGradient
       id="paint9_linear_0_1"
       x1="760"
       y1="768.77802"
       x2="789.245"
       y2="826.31097"
       gradientUnits="userSpaceOnUse"
       gradientTransform="matrix(0.26458333,0,0,0.26458333,-54.859765,-58.351987)">
      <stop
         stop-color="#09C6F9"
         id="stop751" />
      <stop
         offset="1"
         stop-color="#045DE9"
         id="stop753" />
    </linearGradient>
  </defs>
  <g
     inkscape:label="Layer 1"
     inkscape:groupmode="layer"
     id="layer1"
     transform="translate(-146.2235,-145.11253)">
    <path
       fill-rule="evenodd"
       clip-rule="evenodd"
       d="m 150.4778,145.35522 c 1.37848,-0.32359 2.81305,-0.32359 4.19153,0 1.99046,0.46672 3.54489,2.02115 4.01161,4.01161 0.32359,1.37848 0.32359,2.81305 0,4.19153 -0.46672,1.99046 -2.02115,3.54489 -4.01161,4.01161 -1.37848,0.32359 -2.81305,0.32359 -4.19153,0 -1.99046,-0.46672 -3.54489,-2.02115 -4.01161,-4.01161 -0.32359,-1.37848 -0.32359,-2.81305 0,-4.19153 0.46672,-1.99046 2.02115,-3.54489 4.01161,-4.01161 z m 3.14696,4.70508 c 0.22066,-0.0884 0.43947,0.13044 0.35136,0.3511 l -0.5506,1.37637 c -0.096,0.24024 -0.28654,0.43047 -0.52678,0.52678 l -1.37636,0.55034 c -0.2204,0.0884 -0.43948,-0.13044 -0.35111,-0.35111 l 0.5506,-1.37636 c 0.096,-0.24024 0.28628,-0.43048 0.52679,-0.52678 z m 1.10384,0.6522 c 0.35295,-0.88239 -0.52256,-1.75763 -1.40468,-1.40494 l -1.37636,0.5506 c -0.44635,0.17859 -0.79983,0.53208 -0.97843,0.97843 l -0.55033,1.3761 c -0.35296,0.88238 0.52255,1.75762 1.40467,1.40493 l 1.37636,-0.55059 c 0.44609,-0.1786 0.79984,-0.53208 0.97817,-0.97843 z"
       fill="url(#paint9_linear_0_1)"
       id="path672"
       style="fill:url(#paint9_linear_0_1);stroke-width:0.264583" />
  </g>
</svg>
